<svg width="1448" height="1022" viewBox="0 0 1448 1022" fill="none" xmlns="http://www.w3.org/2000/svg">
<g clip-path="url(#clip0_14_2)" filter="url(#filter0_d_14_2)">
<rect width="1440" height="1014" transform="translate(4)" fill="#8175FD"/>
<path d="M47.4975 0L71.7462 14V42L47.4975 56L23.2488 42V14L47.4975 0Z" fill="#7F70FF"/>
<path d="M47.4975 92L71.7462 106V134L47.4975 148L23.2488 134V106L47.4975 92Z" fill="#7F70FF"/>
<path d="M47.4975 184L71.7462 198V226L47.4975 240L23.2488 226V198L47.4975 184Z" fill="#7F70FF"/>
<path d="M47.4975 276L71.7462 290V318L47.4975 332L23.2488 318V290L47.4975 276Z" fill="#7F70FF"/>
<path d="M47.4975 368L71.7462 382V410L47.4975 424L23.2488 410V382L47.4975 368Z" fill="#7F70FF"/>
<path d="M47.4975 460L71.7462 474V502L47.4975 516L23.2488 502V474L47.4975 460Z" fill="#7F70FF"/>
<path d="M47.4975 552L71.7462 566V594L47.4975 608L23.2488 594V566L47.4975 552Z" fill="#7F70FF"/>
<path d="M47.4975 644L71.7462 658V686L47.4975 700L23.2488 686V658L47.4975 644Z" fill="#7F70FF"/>
<path d="M47.4975 736L71.7462 750V778L47.4975 792L23.2488 778V750L47.4975 736Z" fill="#7F70FF"/>
<path d="M47.4975 828L71.7462 842V870L47.4975 884L23.2488 870V842L47.4975 828Z" fill="#7F70FF"/>
<path d="M47.4975 920L71.7462 934V962L47.4975 976L23.2488 962V934L47.4975 920Z" fill="#7F70FF"/>
<path d="M74.7463 46L98.995 60V88L74.7463 102L50.4976 88V60L74.7463 46Z" fill="#7F70FF"/>
<path d="M74.7463 138L98.995 152V180L74.7463 194L50.4976 180V152L74.7463 138Z" fill="#7F70FF"/>
<path d="M74.7463 230L98.995 244V272L74.7463 286L50.4976 272V244L74.7463 230Z" fill="#7F70FF"/>
<path d="M74.7463 322L98.995 336V364L74.7463 378L50.4976 364V336L74.7463 322Z" fill="#7F70FF"/>
<path d="M74.7463 414L98.995 428V456L74.7463 470L50.4976 456V428L74.7463 414Z" fill="#7F70FF"/>
<path d="M74.7463 506L98.995 520V548L74.7463 562L50.4976 548V520L74.7463 506Z" fill="#7F70FF"/>
<path d="M74.7463 598L98.995 612V640L74.7463 654L50.4976 640V612L74.7463 598Z" fill="#7F70FF"/>
<path d="M74.7463 690L98.995 704V732L74.7463 746L50.4976 732V704L74.7463 690Z" fill="#7F70FF"/>
<path d="M74.7463 782L98.995 796V824L74.7463 838L50.4976 824V796L74.7463 782Z" fill="#7F70FF"/>
<path d="M74.7463 874L98.995 888V916L74.7463 930L50.4976 916V888L74.7463 874Z" fill="#7F70FF"/>
<path d="M74.7463 966L98.995 980V1008L74.7463 1022L50.4976 1008V980L74.7463 966Z" fill="#7F70FF"/>
<path d="M155.746 0L179.995 14V42L155.746 56L131.498 42V14L155.746 0Z" fill="#7F70FF"/>
<path d="M155.746 92L179.995 106V134L155.746 148L131.498 134V106L155.746 92Z" fill="#7F70FF"/>
<path d="M155.746 184L179.995 198V226L155.746 240L131.498 226V198L155.746 184Z" fill="#7F70FF"/>
<path d="M155.746 276L179.995 290V318L155.746 332L131.498 318V290L155.746 276Z" fill="#7F70FF"/>
<path d="M155.746 368L179.995 382V410L155.746 424L131.498 410V382L155.746 368Z" fill="#7F70FF"/>
<path d="M155.746 460L179.995 474V502L155.746 516L131.498 502V474L155.746 460Z" fill="#7F70FF"/>
<path d="M155.746 552L179.995 566V594L155.746 608L131.498 594V566L155.746 552Z" fill="#7F70FF"/>
<path d="M155.746 644L179.995 658V686L155.746 700L131.498 686V658L155.746 644Z" fill="#7F70FF"/>
<path d="M155.746 736L179.995 750V778L155.746 792L131.498 778V750L155.746 736Z" fill="#7F70FF"/>
<path d="M155.746 828L179.995 842V870L155.746 884L131.498 870V842L155.746 828Z" fill="#7F70FF"/>
<path d="M155.746 920L179.995 934V962L155.746 976L131.498 962V934L155.746 920Z" fill="#7F70FF"/>
<path d="M182.995 46L207.244 60V88L182.995 102L158.746 88V60L182.995 46Z" fill="#7F70FF"/>
<path d="M182.995 138L207.244 152V180L182.995 194L158.746 180V152L182.995 138Z" fill="#7F70FF"/>
<path d="M182.995 230L207.244 244V272L182.995 286L158.746 272V244L182.995 230Z" fill="#7F70FF"/>
<path d="M182.995 322L207.244 336V364L182.995 378L158.746 364V336L182.995 322Z" fill="#7F70FF"/>
<path d="M182.995 414L207.244 428V456L182.995 470L158.746 456V428L182.995 414Z" fill="#7F70FF"/>
<path d="M182.995 506L207.244 520V548L182.995 562L158.746 548V520L182.995 506Z" fill="#7F70FF"/>
<path d="M182.995 598L207.244 612V640L182.995 654L158.746 640V612L182.995 598Z" fill="#7F70FF"/>
<path d="M182.995 690L207.244 704V732L182.995 746L158.746 732V704L182.995 690Z" fill="#7F70FF"/>
<path d="M182.995 782L207.244 796V824L182.995 838L158.746 824V796L182.995 782Z" fill="#7F70FF"/>
<path d="M182.995 874L207.244 888V916L182.995 930L158.746 916V888L182.995 874Z" fill="#7F70FF"/>
<path d="M182.995 966L207.244 980V1008L182.995 1022L158.746 1008V980L182.995 966Z" fill="#7F70FF"/>
<path d="M263.995 0L288.244 14V42L263.995 56L239.746 42V14L263.995 0Z" fill="#7F70FF"/>
<path d="M263.995 92L288.244 106V134L263.995 148L239.746 134V106L263.995 92Z" fill="#7F70FF"/>
<path d="M263.995 184L288.244 198V226L263.995 240L239.746 226V198L263.995 184Z" fill="#7F70FF"/>
<path d="M263.995 276L288.244 290V318L263.995 332L239.746 318V290L263.995 276Z" fill="#7F70FF"/>
<path d="M263.995 368L288.244 382V410L263.995 424L239.746 410V382L263.995 368Z" fill="#7F70FF"/>
<path d="M263.995 460L288.244 474V502L263.995 516L239.746 502V474L263.995 460Z" fill="#7F70FF"/>
<path d="M263.995 552L288.244 566V594L263.995 608L239.746 594V566L263.995 552Z" fill="#7F70FF"/>
<path d="M263.995 644L288.244 658V686L263.995 700L239.746 686V658L263.995 644Z" fill="#7F70FF"/>
<path d="M263.995 736L288.244 750V778L263.995 792L239.746 778V750L263.995 736Z" fill="#7F70FF"/>
<path d="M263.995 828L288.244 842V870L263.995 884L239.746 870V842L263.995 828Z" fill="#7F70FF"/>
<path d="M263.995 920L288.244 934V962L263.995 976L239.746 962V934L263.995 920Z" fill="#7F70FF"/>
<path d="M291.244 46L315.493 60V88L291.244 102L266.995 88V60L291.244 46Z" fill="#7F70FF"/>
<path d="M291.244 138L315.493 152V180L291.244 194L266.995 180V152L291.244 138Z" fill="#7F70FF"/>
<path d="M291.244 230L315.493 244V272L291.244 286L266.995 272V244L291.244 230Z" fill="#7F70FF"/>
<path d="M291.244 322L315.493 336V364L291.244 378L266.995 364V336L291.244 322Z" fill="#7F70FF"/>
<path d="M291.244 414L315.493 428V456L291.244 470L266.995 456V428L291.244 414Z" fill="#7F70FF"/>
<path d="M291.244 506L315.493 520V548L291.244 562L266.995 548V520L291.244 506Z" fill="#7F70FF"/>
<path d="M291.244 598L315.493 612V640L291.244 654L266.995 640V612L291.244 598Z" fill="#7F70FF"/>
<path d="M291.244 690L315.493 704V732L291.244 746L266.995 732V704L291.244 690Z" fill="#7F70FF"/>
<path d="M291.244 782L315.493 796V824L291.244 838L266.995 824V796L291.244 782Z" fill="#7F70FF"/>
<path d="M291.244 874L315.493 888V916L291.244 930L266.995 916V888L291.244 874Z" fill="#7F70FF"/>
<path d="M291.244 966L315.493 980V1008L291.244 1022L266.995 1008V980L291.244 966Z" fill="#7F70FF"/>
<path d="M372.244 0L396.493 14V42L372.244 56L347.995 42V14L372.244 0Z" fill="#7F70FF"/>
<path d="M372.244 92L396.493 106V134L372.244 148L347.995 134V106L372.244 92Z" fill="#7F70FF"/>
<path d="M372.244 184L396.493 198V226L372.244 240L347.995 226V198L372.244 184Z" fill="#7F70FF"/>
<path d="M372.244 276L396.493 290V318L372.244 332L347.995 318V290L372.244 276Z" fill="#7F70FF"/>
<path d="M372.244 368L396.493 382V410L372.244 424L347.995 410V382L372.244 368Z" fill="#7F70FF"/>
<path d="M372.244 460L396.493 474V502L372.244 516L347.995 502V474L372.244 460Z" fill="#7F70FF"/>
<path d="M372.244 552L396.493 566V594L372.244 608L347.995 594V566L372.244 552Z" fill="#7F70FF"/>
<path d="M372.244 644L396.493 658V686L372.244 700L347.995 686V658L372.244 644Z" fill="#7F70FF"/>
<path d="M372.244 736L396.493 750V778L372.244 792L347.995 778V750L372.244 736Z" fill="#7F70FF"/>
<path d="M372.244 828L396.493 842V870L372.244 884L347.995 870V842L372.244 828Z" fill="#7F70FF"/>
<path d="M372.244 920L396.493 934V962L372.244 976L347.995 962V934L372.244 920Z" fill="#7F70FF"/>
<path d="M399.493 46L423.741 60V88L399.493 102L375.244 88V60L399.493 46Z" fill="#7F70FF"/>
<path d="M399.493 138L423.741 152V180L399.493 194L375.244 180V152L399.493 138Z" fill="#7F70FF"/>
<path d="M399.493 230L423.741 244V272L399.493 286L375.244 272V244L399.493 230Z" fill="#7F70FF"/>
<path d="M399.493 322L423.741 336V364L399.493 378L375.244 364V336L399.493 322Z" fill="#7F70FF"/>
<path d="M399.493 414L423.741 428V456L399.493 470L375.244 456V428L399.493 414Z" fill="#7F70FF"/>
<path d="M399.493 506L423.741 520V548L399.493 562L375.244 548V520L399.493 506Z" fill="#7F70FF"/>
<path d="M399.493 598L423.741 612V640L399.493 654L375.244 640V612L399.493 598Z" fill="#7F70FF"/>
<path d="M399.493 690L423.741 704V732L399.493 746L375.244 732V704L399.493 690Z" fill="#7F70FF"/>
<path d="M399.493 782L423.741 796V824L399.493 838L375.244 824V796L399.493 782Z" fill="#7F70FF"/>
<path d="M399.493 874L423.741 888V916L399.493 930L375.244 916V888L399.493 874Z" fill="#7F70FF"/>
<path d="M399.493 966L423.741 980V1008L399.493 1022L375.244 1008V980L399.493 966Z" fill="#7F70FF"/>
<path d="M480.493 0L504.741 14V42L480.493 56L456.244 42V14L480.493 0Z" fill="#7F70FF"/>
<path d="M480.493 92L504.741 106V134L480.493 148L456.244 134V106L480.493 92Z" fill="#7F70FF"/>
<path d="M480.493 184L504.741 198V226L480.493 240L456.244 226V198L480.493 184Z" fill="#7F70FF"/>
<path d="M480.493 276L504.741 290V318L480.493 332L456.244 318V290L480.493 276Z" fill="#7F70FF"/>
<path d="M480.493 368L504.741 382V410L480.493 424L456.244 410V382L480.493 368Z" fill="#7F70FF"/>
<path d="M480.493 460L504.741 474V502L480.493 516L456.244 502V474L480.493 460Z" fill="#7F70FF"/>
<path d="M480.493 552L504.741 566V594L480.493 608L456.244 594V566L480.493 552Z" fill="#7F70FF"/>
<path d="M480.493 644L504.741 658V686L480.493 700L456.244 686V658L480.493 644Z" fill="#7F70FF"/>
<path d="M480.493 736L504.741 750V778L480.493 792L456.244 778V750L480.493 736Z" fill="#7F70FF"/>
<path d="M480.493 828L504.741 842V870L480.493 884L456.244 870V842L480.493 828Z" fill="#7F70FF"/>
<path d="M480.493 920L504.741 934V962L480.493 976L456.244 962V934L480.493 920Z" fill="#7F70FF"/>
<path d="M507.741 46L531.99 60V88L507.741 102L483.493 88V60L507.741 46Z" fill="#7F70FF"/>
<path d="M507.741 138L531.99 152V180L507.741 194L483.493 180V152L507.741 138Z" fill="#7F70FF"/>
<path d="M507.741 230L531.99 244V272L507.741 286L483.493 272V244L507.741 230Z" fill="#7F70FF"/>
<path d="M507.741 322L531.99 336V364L507.741 378L483.493 364V336L507.741 322Z" fill="#7F70FF"/>
<path d="M507.741 414L531.99 428V456L507.741 470L483.493 456V428L507.741 414Z" fill="#7F70FF"/>
<path d="M507.741 506L531.99 520V548L507.741 562L483.493 548V520L507.741 506Z" fill="#7F70FF"/>
<path d="M507.741 598L531.99 612V640L507.741 654L483.493 640V612L507.741 598Z" fill="#7F70FF"/>
<path d="M507.741 690L531.99 704V732L507.741 746L483.493 732V704L507.741 690Z" fill="#7F70FF"/>
<path d="M507.741 782L531.99 796V824L507.741 838L483.493 824V796L507.741 782Z" fill="#7F70FF"/>
<path d="M507.741 874L531.99 888V916L507.741 930L483.493 916V888L507.741 874Z" fill="#7F70FF"/>
<path d="M507.741 966L531.99 980V1008L507.741 1022L483.493 1008V980L507.741 966Z" fill="#7F70FF"/>
<path d="M588.741 0L612.99 14V42L588.741 56L564.493 42V14L588.741 0Z" fill="#7F70FF"/>
<path d="M588.741 92L612.99 106V134L588.741 148L564.493 134V106L588.741 92Z" fill="#7F70FF"/>
<path d="M588.741 184L612.99 198V226L588.741 240L564.493 226V198L588.741 184Z" fill="#7F70FF"/>
<path d="M588.741 276L612.99 290V318L588.741 332L564.493 318V290L588.741 276Z" fill="#7F70FF"/>
<path d="M588.741 368L612.99 382V410L588.741 424L564.493 410V382L588.741 368Z" fill="#7F70FF"/>
<path d="M588.741 460L612.99 474V502L588.741 516L564.493 502V474L588.741 460Z" fill="#7F70FF"/>
<path d="M588.741 552L612.99 566V594L588.741 608L564.493 594V566L588.741 552Z" fill="#7F70FF"/>
<path d="M588.741 644L612.99 658V686L588.741 700L564.493 686V658L588.741 644Z" fill="#7F70FF"/>
<path d="M588.741 736L612.99 750V778L588.741 792L564.493 778V750L588.741 736Z" fill="#7F70FF"/>
<path d="M588.741 828L612.99 842V870L588.741 884L564.493 870V842L588.741 828Z" fill="#7F70FF"/>
<path d="M588.741 920L612.99 934V962L588.741 976L564.493 962V934L588.741 920Z" fill="#7F70FF"/>
<path d="M615.99 46L640.239 60V88L615.99 102L591.741 88V60L615.99 46Z" fill="#7F70FF"/>
<path d="M615.99 138L640.239 152V180L615.99 194L591.741 180V152L615.99 138Z" fill="#7F70FF"/>
<path d="M615.99 230L640.239 244V272L615.99 286L591.741 272V244L615.99 230Z" fill="#7F70FF"/>
<path d="M615.99 322L640.239 336V364L615.99 378L591.741 364V336L615.99 322Z" fill="#7F70FF"/>
<path d="M615.99 414L640.239 428V456L615.99 470L591.741 456V428L615.99 414Z" fill="#7F70FF"/>
<path d="M615.99 506L640.239 520V548L615.99 562L591.741 548V520L615.99 506Z" fill="#7F70FF"/>
<path d="M615.99 598L640.239 612V640L615.99 654L591.741 640V612L615.99 598Z" fill="#7F70FF"/>
<path d="M615.99 690L640.239 704V732L615.99 746L591.741 732V704L615.99 690Z" fill="#7F70FF"/>
<path d="M615.99 782L640.239 796V824L615.99 838L591.741 824V796L615.99 782Z" fill="#7F70FF"/>
<path d="M615.99 874L640.239 888V916L615.99 930L591.741 916V888L615.99 874Z" fill="#7F70FF"/>
<path d="M615.99 966L640.239 980V1008L615.99 1022L591.741 1008V980L615.99 966Z" fill="#7F70FF"/>
<path d="M696.99 0L721.239 14V42L696.99 56L672.741 42V14L696.99 0Z" fill="#7F70FF"/>
<path d="M696.99 92L721.239 106V134L696.99 148L672.741 134V106L696.99 92Z" fill="#7F70FF"/>
<path d="M696.99 184L721.239 198V226L696.99 240L672.741 226V198L696.99 184Z" fill="#7F70FF"/>
<path d="M696.99 276L721.239 290V318L696.99 332L672.741 318V290L696.99 276Z" fill="#7F70FF"/>
<path d="M696.99 368L721.239 382V410L696.99 424L672.741 410V382L696.99 368Z" fill="#7F70FF"/>
<path d="M696.99 460L721.239 474V502L696.99 516L672.741 502V474L696.99 460Z" fill="#7F70FF"/>
<path d="M696.99 552L721.239 566V594L696.99 608L672.741 594V566L696.99 552Z" fill="#7F70FF"/>
<path d="M696.99 644L721.239 658V686L696.99 700L672.741 686V658L696.99 644Z" fill="#7F70FF"/>
<path d="M696.99 736L721.239 750V778L696.99 792L672.741 778V750L696.99 736Z" fill="#7F70FF"/>
<path d="M696.99 828L721.239 842V870L696.99 884L672.741 870V842L696.99 828Z" fill="#7F70FF"/>
<path d="M696.99 920L721.239 934V962L696.99 976L672.741 962V934L696.99 920Z" fill="#7F70FF"/>
<path d="M724.239 46L748.488 60V88L724.239 102L699.99 88V60L724.239 46Z" fill="#7F70FF"/>
<path d="M724.239 138L748.488 152V180L724.239 194L699.99 180V152L724.239 138Z" fill="#7F70FF"/>
<path d="M724.239 230L748.488 244V272L724.239 286L699.99 272V244L724.239 230Z" fill="#7F70FF"/>
<path d="M724.239 322L748.488 336V364L724.239 378L699.99 364V336L724.239 322Z" fill="#7F70FF"/>
<path d="M724.239 414L748.488 428V456L724.239 470L699.99 456V428L724.239 414Z" fill="#7F70FF"/>
<path d="M724.239 506L748.488 520V548L724.239 562L699.99 548V520L724.239 506Z" fill="#7F70FF"/>
<path d="M724.239 598L748.488 612V640L724.239 654L699.99 640V612L724.239 598Z" fill="#7F70FF"/>
<path d="M724.239 690L748.488 704V732L724.239 746L699.99 732V704L724.239 690Z" fill="#7F70FF"/>
<path d="M724.239 782L748.488 796V824L724.239 838L699.99 824V796L724.239 782Z" fill="#7F70FF"/>
<path d="M724.239 874L748.488 888V916L724.239 930L699.99 916V888L724.239 874Z" fill="#7F70FF"/>
<path d="M724.239 966L748.488 980V1008L724.239 1022L699.99 1008V980L724.239 966Z" fill="#7F70FF"/>
<path d="M805.239 0L829.488 14V42L805.239 56L780.99 42V14L805.239 0Z" fill="#7F70FF"/>
<path d="M805.239 92L829.488 106V134L805.239 148L780.99 134V106L805.239 92Z" fill="#7F70FF"/>
<path d="M805.239 184L829.488 198V226L805.239 240L780.99 226V198L805.239 184Z" fill="#7F70FF"/>
<path d="M805.239 276L829.488 290V318L805.239 332L780.99 318V290L805.239 276Z" fill="#7F70FF"/>
<path d="M805.239 368L829.488 382V410L805.239 424L780.99 410V382L805.239 368Z" fill="#7F70FF"/>
<path d="M805.239 460L829.488 474V502L805.239 516L780.99 502V474L805.239 460Z" fill="#7F70FF"/>
<path d="M805.239 552L829.488 566V594L805.239 608L780.99 594V566L805.239 552Z" fill="#7F70FF"/>
<path d="M805.239 644L829.488 658V686L805.239 700L780.99 686V658L805.239 644Z" fill="#7F70FF"/>
<path d="M805.239 736L829.488 750V778L805.239 792L780.99 778V750L805.239 736Z" fill="#7F70FF"/>
<path d="M805.239 828L829.488 842V870L805.239 884L780.99 870V842L805.239 828Z" fill="#7F70FF"/>
<path d="M805.239 920L829.488 934V962L805.239 976L780.99 962V934L805.239 920Z" fill="#7F70FF"/>
<path d="M832.488 46L856.736 60V88L832.488 102L808.239 88V60L832.488 46Z" fill="#7F70FF"/>
<path d="M832.488 138L856.736 152V180L832.488 194L808.239 180V152L832.488 138Z" fill="#7F70FF"/>
<path d="M832.488 230L856.736 244V272L832.488 286L808.239 272V244L832.488 230Z" fill="#7F70FF"/>
<path d="M832.488 322L856.736 336V364L832.488 378L808.239 364V336L832.488 322Z" fill="#7F70FF"/>
<path d="M832.488 414L856.736 428V456L832.488 470L808.239 456V428L832.488 414Z" fill="#7F70FF"/>
<path d="M832.488 506L856.736 520V548L832.488 562L808.239 548V520L832.488 506Z" fill="#7F70FF"/>
<path d="M832.488 598L856.736 612V640L832.488 654L808.239 640V612L832.488 598Z" fill="#7F70FF"/>
<path d="M832.488 690L856.736 704V732L832.488 746L808.239 732V704L832.488 690Z" fill="#7F70FF"/>
<path d="M832.488 782L856.736 796V824L832.488 838L808.239 824V796L832.488 782Z" fill="#7F70FF"/>
<path d="M832.488 874L856.736 888V916L832.488 930L808.239 916V888L832.488 874Z" fill="#7F70FF"/>
<path d="M832.488 966L856.736 980V1008L832.488 1022L808.239 1008V980L832.488 966Z" fill="#7F70FF"/>
<path d="M913.488 0L937.736 14V42L913.488 56L889.239 42V14L913.488 0Z" fill="#7F70FF"/>
<path d="M913.488 92L937.736 106V134L913.488 148L889.239 134V106L913.488 92Z" fill="#7F70FF"/>
<path d="M913.488 184L937.736 198V226L913.488 240L889.239 226V198L913.488 184Z" fill="#7F70FF"/>
<path d="M913.488 276L937.736 290V318L913.488 332L889.239 318V290L913.488 276Z" fill="#7F70FF"/>
<path d="M913.488 368L937.736 382V410L913.488 424L889.239 410V382L913.488 368Z" fill="#7F70FF"/>
<path d="M913.488 460L937.736 474V502L913.488 516L889.239 502V474L913.488 460Z" fill="#7F70FF"/>
<path d="M913.488 552L937.736 566V594L913.488 608L889.239 594V566L913.488 552Z" fill="#7F70FF"/>
<path d="M913.488 644L937.736 658V686L913.488 700L889.239 686V658L913.488 644Z" fill="#7F70FF"/>
<path d="M913.488 736L937.736 750V778L913.488 792L889.239 778V750L913.488 736Z" fill="#7F70FF"/>
<path d="M913.488 828L937.736 842V870L913.488 884L889.239 870V842L913.488 828Z" fill="#7F70FF"/>
<path d="M913.488 920L937.736 934V962L913.488 976L889.239 962V934L913.488 920Z" fill="#7F70FF"/>
<path d="M940.737 46L964.985 60V88L940.737 102L916.488 88V60L940.737 46Z" fill="#7F70FF"/>
<path d="M940.737 138L964.985 152V180L940.737 194L916.488 180V152L940.737 138Z" fill="#7F70FF"/>
<path d="M940.737 230L964.985 244V272L940.737 286L916.488 272V244L940.737 230Z" fill="#7F70FF"/>
<path d="M940.737 322L964.985 336V364L940.737 378L916.488 364V336L940.737 322Z" fill="#7F70FF"/>
<path d="M940.737 414L964.985 428V456L940.737 470L916.488 456V428L940.737 414Z" fill="#7F70FF"/>
<path d="M940.737 506L964.985 520V548L940.737 562L916.488 548V520L940.737 506Z" fill="#7F70FF"/>
<path d="M940.737 598L964.985 612V640L940.737 654L916.488 640V612L940.737 598Z" fill="#7F70FF"/>
<path d="M940.737 690L964.985 704V732L940.737 746L916.488 732V704L940.737 690Z" fill="#7F70FF"/>
<path d="M940.737 782L964.985 796V824L940.737 838L916.488 824V796L940.737 782Z" fill="#7F70FF"/>
<path d="M940.737 874L964.985 888V916L940.737 930L916.488 916V888L940.737 874Z" fill="#7F70FF"/>
<path d="M940.737 966L964.985 980V1008L940.737 1022L916.488 1008V980L940.737 966Z" fill="#7F70FF"/>
<path d="M1021.74 0L1045.99 14V42L1021.74 56L997.488 42V14L1021.74 0Z" fill="#7F70FF"/>
<path d="M1021.74 92L1045.99 106V134L1021.74 148L997.488 134V106L1021.74 92Z" fill="#7F70FF"/>
<path d="M1021.74 184L1045.99 198V226L1021.74 240L997.488 226V198L1021.74 184Z" fill="#7F70FF"/>
<path d="M1021.74 276L1045.99 290V318L1021.74 332L997.488 318V290L1021.74 276Z" fill="#7F70FF"/>
<path d="M1021.74 368L1045.99 382V410L1021.74 424L997.488 410V382L1021.74 368Z" fill="#7F70FF"/>
<path d="M1021.74 460L1045.99 474V502L1021.74 516L997.488 502V474L1021.74 460Z" fill="#7F70FF"/>
<path d="M1021.74 552L1045.99 566V594L1021.74 608L997.488 594V566L1021.74 552Z" fill="#7F70FF"/>
<path d="M1021.74 644L1045.99 658V686L1021.74 700L997.488 686V658L1021.74 644Z" fill="#7F70FF"/>
<path d="M1021.74 736L1045.99 750V778L1021.74 792L997.488 778V750L1021.74 736Z" fill="#7F70FF"/>
<path d="M1021.74 828L1045.99 842V870L1021.74 884L997.488 870V842L1021.74 828Z" fill="#7F70FF"/>
<path d="M1021.74 920L1045.99 934V962L1021.74 976L997.488 962V934L1021.74 920Z" fill="#7F70FF"/>
<path d="M1048.99 46L1073.23 60V88L1048.99 102L1024.74 88V60L1048.99 46Z" fill="#7F70FF"/>
<path d="M1048.99 138L1073.23 152V180L1048.99 194L1024.74 180V152L1048.99 138Z" fill="#7F70FF"/>
<path d="M1048.99 230L1073.23 244V272L1048.99 286L1024.74 272V244L1048.99 230Z" fill="#7F70FF"/>
<path d="M1048.99 322L1073.23 336V364L1048.99 378L1024.74 364V336L1048.99 322Z" fill="#7F70FF"/>
<path d="M1048.99 414L1073.23 428V456L1048.99 470L1024.74 456V428L1048.99 414Z" fill="#7F70FF"/>
<path d="M1048.99 506L1073.23 520V548L1048.99 562L1024.74 548V520L1048.99 506Z" fill="#7F70FF"/>
<path d="M1048.99 598L1073.23 612V640L1048.99 654L1024.74 640V612L1048.99 598Z" fill="#7F70FF"/>
<path d="M1048.99 690L1073.23 704V732L1048.99 746L1024.74 732V704L1048.99 690Z" fill="#7F70FF"/>
<path d="M1048.99 782L1073.23 796V824L1048.99 838L1024.74 824V796L1048.99 782Z" fill="#7F70FF"/>
<path d="M1048.99 874L1073.23 888V916L1048.99 930L1024.74 916V888L1048.99 874Z" fill="#7F70FF"/>
<path d="M1048.99 966L1073.23 980V1008L1048.99 1022L1024.74 1008V980L1048.99 966Z" fill="#7F70FF"/>
<path d="M1129.99 0L1154.23 14V42L1129.99 56L1105.74 42V14L1129.99 0Z" fill="#7F70FF"/>
<path d="M1129.99 92L1154.23 106V134L1129.99 148L1105.74 134V106L1129.99 92Z" fill="#7F70FF"/>
<path d="M1129.99 184L1154.23 198V226L1129.99 240L1105.74 226V198L1129.99 184Z" fill="#7F70FF"/>
<path d="M1129.99 276L1154.23 290V318L1129.99 332L1105.74 318V290L1129.99 276Z" fill="#7F70FF"/>
<path d="M1129.99 368L1154.23 382V410L1129.99 424L1105.74 410V382L1129.99 368Z" fill="#7F70FF"/>
<path d="M1129.99 460L1154.23 474V502L1129.99 516L1105.74 502V474L1129.99 460Z" fill="#7F70FF"/>
<path d="M1129.99 552L1154.23 566V594L1129.99 608L1105.74 594V566L1129.99 552Z" fill="#7F70FF"/>
<path d="M1129.99 644L1154.23 658V686L1129.99 700L1105.74 686V658L1129.99 644Z" fill="#7F70FF"/>
<path d="M1129.99 736L1154.23 750V778L1129.99 792L1105.74 778V750L1129.99 736Z" fill="#7F70FF"/>
<path d="M1129.99 828L1154.23 842V870L1129.99 884L1105.74 870V842L1129.99 828Z" fill="#7F70FF"/>
<path d="M1129.99 920L1154.23 934V962L1129.99 976L1105.74 962V934L1129.99 920Z" fill="#7F70FF"/>
<path d="M1157.23 46L1181.48 60V88L1157.23 102L1132.99 88V60L1157.23 46Z" fill="#7F70FF"/>
<path d="M1157.23 138L1181.48 152V180L1157.23 194L1132.99 180V152L1157.23 138Z" fill="#7F70FF"/>
<path d="M1157.23 230L1181.48 244V272L1157.23 286L1132.99 272V244L1157.23 230Z" fill="#7F70FF"/>
<path d="M1157.23 322L1181.48 336V364L1157.23 378L1132.99 364V336L1157.23 322Z" fill="#7F70FF"/>
<path d="M1157.23 414L1181.48 428V456L1157.23 470L1132.99 456V428L1157.23 414Z" fill="#7F70FF"/>
<path d="M1157.23 506L1181.48 520V548L1157.23 562L1132.99 548V520L1157.23 506Z" fill="#7F70FF"/>
<path d="M1157.23 598L1181.48 612V640L1157.23 654L1132.99 640V612L1157.23 598Z" fill="#7F70FF"/>
<path d="M1157.23 690L1181.48 704V732L1157.23 746L1132.99 732V704L1157.23 690Z" fill="#7F70FF"/>
<path d="M1157.23 782L1181.48 796V824L1157.23 838L1132.99 824V796L1157.23 782Z" fill="#7F70FF"/>
<path d="M1157.23 874L1181.48 888V916L1157.23 930L1132.99 916V888L1157.23 874Z" fill="#7F70FF"/>
<path d="M1157.23 966L1181.48 980V1008L1157.23 1022L1132.99 1008V980L1157.23 966Z" fill="#7F70FF"/>
<path d="M1238.23 0L1262.48 14V42L1238.23 56L1213.99 42V14L1238.23 0Z" fill="#7F70FF"/>
<path d="M1238.23 92L1262.48 106V134L1238.23 148L1213.99 134V106L1238.23 92Z" fill="#7F70FF"/>
<path d="M1238.23 184L1262.48 198V226L1238.23 240L1213.99 226V198L1238.23 184Z" fill="#7F70FF"/>
<path d="M1238.23 276L1262.48 290V318L1238.23 332L1213.99 318V290L1238.23 276Z" fill="#7F70FF"/>
<path d="M1238.23 368L1262.48 382V410L1238.23 424L1213.99 410V382L1238.23 368Z" fill="#7F70FF"/>
<path d="M1238.23 460L1262.48 474V502L1238.23 516L1213.99 502V474L1238.23 460Z" fill="#7F70FF"/>
<path d="M1238.23 552L1262.48 566V594L1238.23 608L1213.99 594V566L1238.23 552Z" fill="#7F70FF"/>
<path d="M1238.23 644L1262.48 658V686L1238.23 700L1213.99 686V658L1238.23 644Z" fill="#7F70FF"/>
<path d="M1238.23 736L1262.48 750V778L1238.23 792L1213.99 778V750L1238.23 736Z" fill="#7F70FF"/>
<path d="M1238.23 828L1262.48 842V870L1238.23 884L1213.99 870V842L1238.23 828Z" fill="#7F70FF"/>
<path d="M1238.23 920L1262.48 934V962L1238.23 976L1213.99 962V934L1238.23 920Z" fill="#7F70FF"/>
<path d="M1265.48 46L1289.73 60V88L1265.48 102L1241.23 88V60L1265.48 46Z" fill="#7F70FF"/>
<path d="M1265.48 138L1289.73 152V180L1265.48 194L1241.23 180V152L1265.48 138Z" fill="#7F70FF"/>
<path d="M1265.48 230L1289.73 244V272L1265.48 286L1241.23 272V244L1265.48 230Z" fill="#7F70FF"/>
<path d="M1265.48 322L1289.73 336V364L1265.48 378L1241.23 364V336L1265.48 322Z" fill="#7F70FF"/>
<path d="M1265.48 414L1289.73 428V456L1265.48 470L1241.23 456V428L1265.48 414Z" fill="#7F70FF"/>
<path d="M1265.48 506L1289.73 520V548L1265.48 562L1241.23 548V520L1265.48 506Z" fill="#7F70FF"/>
<path d="M1265.48 598L1289.73 612V640L1265.48 654L1241.23 640V612L1265.48 598Z" fill="#7F70FF"/>
<path d="M1265.48 690L1289.73 704V732L1265.48 746L1241.23 732V704L1265.48 690Z" fill="#7F70FF"/>
<path d="M1265.48 782L1289.73 796V824L1265.48 838L1241.23 824V796L1265.48 782Z" fill="#7F70FF"/>
<path d="M1265.48 874L1289.73 888V916L1265.48 930L1241.23 916V888L1265.48 874Z" fill="#7F70FF"/>
<path d="M1265.48 966L1289.73 980V1008L1265.48 1022L1241.23 1008V980L1265.48 966Z" fill="#7F70FF"/>
<path d="M1346.48 0L1370.73 14V42L1346.48 56L1322.23 42V14L1346.48 0Z" fill="#7F70FF"/>
<path d="M1346.48 92L1370.73 106V134L1346.48 148L1322.23 134V106L1346.48 92Z" fill="#7F70FF"/>
<path d="M1346.48 184L1370.73 198V226L1346.48 240L1322.23 226V198L1346.48 184Z" fill="#7F70FF"/>
<path d="M1346.48 276L1370.73 290V318L1346.48 332L1322.23 318V290L1346.48 276Z" fill="#7F70FF"/>
<path d="M1346.48 368L1370.73 382V410L1346.48 424L1322.23 410V382L1346.48 368Z" fill="#7F70FF"/>
<path d="M1346.48 460L1370.73 474V502L1346.48 516L1322.23 502V474L1346.48 460Z" fill="#7F70FF"/>
<path d="M1346.48 552L1370.73 566V594L1346.48 608L1322.23 594V566L1346.48 552Z" fill="#7F70FF"/>
<path d="M1346.48 644L1370.73 658V686L1346.48 700L1322.23 686V658L1346.48 644Z" fill="#7F70FF"/>
<path d="M1346.48 736L1370.73 750V778L1346.48 792L1322.23 778V750L1346.48 736Z" fill="#7F70FF"/>
<path d="M1346.48 828L1370.73 842V870L1346.48 884L1322.23 870V842L1346.48 828Z" fill="#7F70FF"/>
<path d="M1346.48 920L1370.73 934V962L1346.48 976L1322.23 962V934L1346.48 920Z" fill="#7F70FF"/>
<path d="M1373.73 46L1397.98 60V88L1373.73 102L1349.48 88V60L1373.73 46Z" fill="#7F70FF"/>
<path d="M1373.73 138L1397.98 152V180L1373.73 194L1349.48 180V152L1373.73 138Z" fill="#7F70FF"/>
<path d="M1373.73 230L1397.98 244V272L1373.73 286L1349.48 272V244L1373.73 230Z" fill="#7F70FF"/>
<path d="M1373.73 322L1397.98 336V364L1373.73 378L1349.48 364V336L1373.73 322Z" fill="#7F70FF"/>
<path d="M1373.73 414L1397.98 428V456L1373.73 470L1349.48 456V428L1373.73 414Z" fill="#7F70FF"/>
<path d="M1373.73 506L1397.98 520V548L1373.73 562L1349.48 548V520L1373.73 506Z" fill="#7F70FF"/>
<path d="M1373.73 598L1397.98 612V640L1373.73 654L1349.48 640V612L1373.73 598Z" fill="#7F70FF"/>
<path d="M1373.73 690L1397.98 704V732L1373.73 746L1349.48 732V704L1373.73 690Z" fill="#7F70FF"/>
<path d="M1373.73 782L1397.98 796V824L1373.73 838L1349.48 824V796L1373.73 782Z" fill="#7F70FF"/>
<path d="M1373.73 874L1397.98 888V916L1373.73 930L1349.48 916V888L1373.73 874Z" fill="#7F70FF"/>
<path d="M1373.73 966L1397.98 980V1008L1373.73 1022L1349.48 1008V980L1373.73 966Z" fill="#7F70FF"/>
<path d="M1454.73 0L1478.98 14V42L1454.73 56L1430.48 42V14L1454.73 0Z" fill="#7F70FF"/>
<path d="M1454.73 92L1478.98 106V134L1454.73 148L1430.48 134V106L1454.73 92Z" fill="#7F70FF"/>
<path d="M1454.73 184L1478.98 198V226L1454.73 240L1430.48 226V198L1454.73 184Z" fill="#7F70FF"/>
<path d="M1454.73 276L1478.98 290V318L1454.73 332L1430.48 318V290L1454.73 276Z" fill="#7F70FF"/>
<path d="M1454.73 368L1478.98 382V410L1454.73 424L1430.48 410V382L1454.73 368Z" fill="#7F70FF"/>
<path d="M1454.73 460L1478.98 474V502L1454.73 516L1430.48 502V474L1454.73 460Z" fill="#7F70FF"/>
<path d="M1454.73 552L1478.98 566V594L1454.73 608L1430.48 594V566L1454.73 552Z" fill="#7F70FF"/>
<path d="M1454.73 644L1478.98 658V686L1454.73 700L1430.48 686V658L1454.73 644Z" fill="#7F70FF"/>
<path d="M1454.73 736L1478.98 750V778L1454.73 792L1430.48 778V750L1454.73 736Z" fill="#7F70FF"/>
<path d="M1454.73 828L1478.98 842V870L1454.73 884L1430.48 870V842L1454.73 828Z" fill="#7F70FF"/>
<path d="M1454.73 920L1478.98 934V962L1454.73 976L1430.48 962V934L1454.73 920Z" fill="#7F70FF"/>
<path d="M-6.75129 0L17.4974 14V42L-6.75129 56L-31 42V14L-6.75129 0Z" fill="#7F70FF"/>
<path d="M-6.75129 92L17.4974 106V134L-6.75129 148L-31 134V106L-6.75129 92Z" fill="#7F70FF"/>
<path d="M-6.75129 184L17.4974 198V226L-6.75129 240L-31 226V198L-6.75129 184Z" fill="#7F70FF"/>
<path d="M-6.75129 276L17.4974 290V318L-6.75129 332L-31 318V290L-6.75129 276Z" fill="#7F70FF"/>
<path d="M-6.75129 368L17.4974 382V410L-6.75129 424L-31 410V382L-6.75129 368Z" fill="#7F70FF"/>
<path d="M-6.75129 460L17.4974 474V502L-6.75129 516L-31 502V474L-6.75129 460Z" fill="#7F70FF"/>
<path d="M-6.75129 552L17.4974 566V594L-6.75129 608L-31 594V566L-6.75129 552Z" fill="#7F70FF"/>
<path d="M-6.75129 644L17.4974 658V686L-6.75129 700L-31 686V658L-6.75129 644Z" fill="#7F70FF"/>
<path d="M-6.75129 736L17.4974 750V778L-6.75129 792L-31 778V750L-6.75129 736Z" fill="#7F70FF"/>
<path d="M-6.75129 828L17.4974 842V870L-6.75129 884L-31 870V842L-6.75129 828Z" fill="#7F70FF"/>
<path d="M-6.75129 920L17.4974 934V962L-6.75129 976L-31 962V934L-6.75129 920Z" fill="#7F70FF"/>
<path d="M20.4975 46L44.7462 60V88L20.4975 102L-3.75122 88V60L20.4975 46Z" fill="#7F70FF"/>
<path d="M20.4975 138L44.7462 152V180L20.4975 194L-3.75122 180V152L20.4975 138Z" fill="#7F70FF"/>
<path d="M20.4975 230L44.7462 244V272L20.4975 286L-3.75122 272V244L20.4975 230Z" fill="#7F70FF"/>
<path d="M20.4975 322L44.7462 336V364L20.4975 378L-3.75122 364V336L20.4975 322Z" fill="#7F70FF"/>
<path d="M20.4975 414L44.7462 428V456L20.4975 470L-3.75122 456V428L20.4975 414Z" fill="#7F70FF"/>
<path d="M20.4975 506L44.7462 520V548L20.4975 562L-3.75122 548V520L20.4975 506Z" fill="#7F70FF"/>
<path d="M20.4975 598L44.7462 612V640L20.4975 654L-3.75122 640V612L20.4975 598Z" fill="#7F70FF"/>
<path d="M20.4975 690L44.7462 704V732L20.4975 746L-3.75122 732V704L20.4975 690Z" fill="#7F70FF"/>
<path d="M20.4975 782L44.7462 796V824L20.4975 838L-3.75122 824V796L20.4975 782Z" fill="#7F70FF"/>
<path d="M20.4975 874L44.7462 888V916L20.4975 930L-3.75122 916V888L20.4975 874Z" fill="#7F70FF"/>
<path d="M20.4975 966L44.7462 980V1008L20.4975 1022L-3.75122 1008V980L20.4975 966Z" fill="#7F70FF"/>
<path d="M101.497 0L125.746 14V42L101.497 56L77.2488 42V14L101.497 0Z" fill="#7F70FF"/>
<path d="M101.497 92L125.746 106V134L101.497 148L77.2488 134V106L101.497 92Z" fill="#7F70FF"/>
<path d="M101.497 184L125.746 198V226L101.497 240L77.2488 226V198L101.497 184Z" fill="#7F70FF"/>
<path d="M101.497 276L125.746 290V318L101.497 332L77.2488 318V290L101.497 276Z" fill="#7F70FF"/>
<path d="M101.497 368L125.746 382V410L101.497 424L77.2488 410V382L101.497 368Z" fill="#7F70FF"/>
<path d="M101.497 460L125.746 474V502L101.497 516L77.2488 502V474L101.497 460Z" fill="#7F70FF"/>
<path d="M101.497 552L125.746 566V594L101.497 608L77.2488 594V566L101.497 552Z" fill="#7F70FF"/>
<path d="M101.497 644L125.746 658V686L101.497 700L77.2488 686V658L101.497 644Z" fill="#7F70FF"/>
<path d="M101.497 736L125.746 750V778L101.497 792L77.2488 778V750L101.497 736Z" fill="#7F70FF"/>
<path d="M101.497 828L125.746 842V870L101.497 884L77.2488 870V842L101.497 828Z" fill="#7F70FF"/>
<path d="M101.497 920L125.746 934V962L101.497 976L77.2488 962V934L101.497 920Z" fill="#7F70FF"/>
<path d="M128.746 46L152.995 60V88L128.746 102L104.498 88V60L128.746 46Z" fill="#7F70FF"/>
<path d="M128.746 138L152.995 152V180L128.746 194L104.498 180V152L128.746 138Z" fill="#7F70FF"/>
<path d="M128.746 230L152.995 244V272L128.746 286L104.498 272V244L128.746 230Z" fill="#7F70FF"/>
<path d="M128.746 322L152.995 336V364L128.746 378L104.498 364V336L128.746 322Z" fill="#7F70FF"/>
<path d="M128.746 414L152.995 428V456L128.746 470L104.498 456V428L128.746 414Z" fill="#7F70FF"/>
<path d="M128.746 506L152.995 520V548L128.746 562L104.498 548V520L128.746 506Z" fill="#7F70FF"/>
<path d="M128.746 598L152.995 612V640L128.746 654L104.498 640V612L128.746 598Z" fill="#7F70FF"/>
<path d="M128.746 690L152.995 704V732L128.746 746L104.498 732V704L128.746 690Z" fill="#7F70FF"/>
<path d="M128.746 782L152.995 796V824L128.746 838L104.498 824V796L128.746 782Z" fill="#7F70FF"/>
<path d="M128.746 874L152.995 888V916L128.746 930L104.498 916V888L128.746 874Z" fill="#7F70FF"/>
<path d="M128.746 966L152.995 980V1008L128.746 1022L104.498 1008V980L128.746 966Z" fill="#7F70FF"/>
<path d="M209.746 0L233.995 14V42L209.746 56L185.498 42V14L209.746 0Z" fill="#7F70FF"/>
<path d="M209.746 92L233.995 106V134L209.746 148L185.498 134V106L209.746 92Z" fill="#7F70FF"/>
<path d="M209.746 184L233.995 198V226L209.746 240L185.498 226V198L209.746 184Z" fill="#7F70FF"/>
<path d="M209.746 276L233.995 290V318L209.746 332L185.498 318V290L209.746 276Z" fill="#7F70FF"/>
<path d="M209.746 368L233.995 382V410L209.746 424L185.498 410V382L209.746 368Z" fill="#7F70FF"/>
<path d="M209.746 460L233.995 474V502L209.746 516L185.498 502V474L209.746 460Z" fill="#7F70FF"/>
<path d="M209.746 552L233.995 566V594L209.746 608L185.498 594V566L209.746 552Z" fill="#7F70FF"/>
<path d="M209.746 644L233.995 658V686L209.746 700L185.498 686V658L209.746 644Z" fill="#7F70FF"/>
<path d="M209.746 736L233.995 750V778L209.746 792L185.498 778V750L209.746 736Z" fill="#7F70FF"/>
<path d="M209.746 828L233.995 842V870L209.746 884L185.498 870V842L209.746 828Z" fill="#7F70FF"/>
<path d="M209.746 920L233.995 934V962L209.746 976L185.498 962V934L209.746 920Z" fill="#7F70FF"/>
<path d="M236.995 46L261.244 60V88L236.995 102L212.746 88V60L236.995 46Z" fill="#7F70FF"/>
<path d="M236.995 138L261.244 152V180L236.995 194L212.746 180V152L236.995 138Z" fill="#7F70FF"/>
<path d="M236.995 230L261.244 244V272L236.995 286L212.746 272V244L236.995 230Z" fill="#7F70FF"/>
<path d="M236.995 322L261.244 336V364L236.995 378L212.746 364V336L236.995 322Z" fill="#7F70FF"/>
<path d="M236.995 414L261.244 428V456L236.995 470L212.746 456V428L236.995 414Z" fill="#7F70FF"/>
<path d="M236.995 506L261.244 520V548L236.995 562L212.746 548V520L236.995 506Z" fill="#7F70FF"/>
<path d="M236.995 598L261.244 612V640L236.995 654L212.746 640V612L236.995 598Z" fill="#7F70FF"/>
<path d="M236.995 690L261.244 704V732L236.995 746L212.746 732V704L236.995 690Z" fill="#7F70FF"/>
<path d="M236.995 782L261.244 796V824L236.995 838L212.746 824V796L236.995 782Z" fill="#7F70FF"/>
<path d="M236.995 874L261.244 888V916L236.995 930L212.746 916V888L236.995 874Z" fill="#7F70FF"/>
<path d="M236.995 966L261.244 980V1008L236.995 1022L212.746 1008V980L236.995 966Z" fill="#7F70FF"/>
<path d="M317.995 0L342.244 14V42L317.995 56L293.746 42V14L317.995 0Z" fill="#7F70FF"/>
<path d="M317.995 92L342.244 106V134L317.995 148L293.746 134V106L317.995 92Z" fill="#7F70FF"/>
<path d="M317.995 184L342.244 198V226L317.995 240L293.746 226V198L317.995 184Z" fill="#7F70FF"/>
<path d="M317.995 276L342.244 290V318L317.995 332L293.746 318V290L317.995 276Z" fill="#7F70FF"/>
<path d="M317.995 368L342.244 382V410L317.995 424L293.746 410V382L317.995 368Z" fill="#7F70FF"/>
<path d="M317.995 460L342.244 474V502L317.995 516L293.746 502V474L317.995 460Z" fill="#7F70FF"/>
<path d="M317.995 552L342.244 566V594L317.995 608L293.746 594V566L317.995 552Z" fill="#7F70FF"/>
<path d="M317.995 644L342.244 658V686L317.995 700L293.746 686V658L317.995 644Z" fill="#7F70FF"/>
<path d="M317.995 736L342.244 750V778L317.995 792L293.746 778V750L317.995 736Z" fill="#7F70FF"/>
<path d="M317.995 828L342.244 842V870L317.995 884L293.746 870V842L317.995 828Z" fill="#7F70FF"/>
<path d="M317.995 920L342.244 934V962L317.995 976L293.746 962V934L317.995 920Z" fill="#7F70FF"/>
<path d="M345.244 46L369.493 60V88L345.244 102L320.995 88V60L345.244 46Z" fill="#7F70FF"/>
<path d="M345.244 138L369.493 152V180L345.244 194L320.995 180V152L345.244 138Z" fill="#7F70FF"/>
<path d="M345.244 230L369.493 244V272L345.244 286L320.995 272V244L345.244 230Z" fill="#7F70FF"/>
<path d="M345.244 322L369.493 336V364L345.244 378L320.995 364V336L345.244 322Z" fill="#7F70FF"/>
<path d="M345.244 414L369.493 428V456L345.244 470L320.995 456V428L345.244 414Z" fill="#7F70FF"/>
<path d="M345.244 506L369.493 520V548L345.244 562L320.995 548V520L345.244 506Z" fill="#7F70FF"/>
<path d="M345.244 598L369.493 612V640L345.244 654L320.995 640V612L345.244 598Z" fill="#7F70FF"/>
<path d="M345.244 690L369.493 704V732L345.244 746L320.995 732V704L345.244 690Z" fill="#7F70FF"/>
<path d="M345.244 782L369.493 796V824L345.244 838L320.995 824V796L345.244 782Z" fill="#7F70FF"/>
<path d="M345.244 874L369.493 888V916L345.244 930L320.995 916V888L345.244 874Z" fill="#7F70FF"/>
<path d="M345.244 966L369.493 980V1008L345.244 1022L320.995 1008V980L345.244 966Z" fill="#7F70FF"/>
<path d="M426.244 0L450.493 14V42L426.244 56L401.995 42V14L426.244 0Z" fill="#7F70FF"/>
<path d="M426.244 92L450.493 106V134L426.244 148L401.995 134V106L426.244 92Z" fill="#7F70FF"/>
<path d="M426.244 184L450.493 198V226L426.244 240L401.995 226V198L426.244 184Z" fill="#7F70FF"/>
<path d="M426.244 276L450.493 290V318L426.244 332L401.995 318V290L426.244 276Z" fill="#7F70FF"/>
<path d="M426.244 368L450.493 382V410L426.244 424L401.995 410V382L426.244 368Z" fill="#7F70FF"/>
<path d="M426.244 460L450.493 474V502L426.244 516L401.995 502V474L426.244 460Z" fill="#7F70FF"/>
<path d="M426.244 552L450.493 566V594L426.244 608L401.995 594V566L426.244 552Z" fill="#7F70FF"/>
<path d="M426.244 644L450.493 658V686L426.244 700L401.995 686V658L426.244 644Z" fill="#7F70FF"/>
<path d="M426.244 736L450.493 750V778L426.244 792L401.995 778V750L426.244 736Z" fill="#7F70FF"/>
<path d="M426.244 828L450.493 842V870L426.244 884L401.995 870V842L426.244 828Z" fill="#7F70FF"/>
<path d="M426.244 920L450.493 934V962L426.244 976L401.995 962V934L426.244 920Z" fill="#7F70FF"/>
<path d="M453.493 46L477.741 60V88L453.493 102L429.244 88V60L453.493 46Z" fill="#7F70FF"/>
<path d="M453.493 138L477.741 152V180L453.493 194L429.244 180V152L453.493 138Z" fill="#7F70FF"/>
<path d="M453.493 230L477.741 244V272L453.493 286L429.244 272V244L453.493 230Z" fill="#7F70FF"/>
<path d="M453.493 322L477.741 336V364L453.493 378L429.244 364V336L453.493 322Z" fill="#7F70FF"/>
<path d="M453.493 414L477.741 428V456L453.493 470L429.244 456V428L453.493 414Z" fill="#7F70FF"/>
<path d="M453.493 506L477.741 520V548L453.493 562L429.244 548V520L453.493 506Z" fill="#7F70FF"/>
<path d="M453.493 598L477.741 612V640L453.493 654L429.244 640V612L453.493 598Z" fill="#7F70FF"/>
<path d="M453.493 690L477.741 704V732L453.493 746L429.244 732V704L453.493 690Z" fill="#7F70FF"/>
<path d="M453.493 782L477.741 796V824L453.493 838L429.244 824V796L453.493 782Z" fill="#7F70FF"/>
<path d="M453.493 874L477.741 888V916L453.493 930L429.244 916V888L453.493 874Z" fill="#7F70FF"/>
<path d="M453.493 966L477.741 980V1008L453.493 1022L429.244 1008V980L453.493 966Z" fill="#7F70FF"/>
<path d="M534.493 0L558.741 14V42L534.493 56L510.244 42V14L534.493 0Z" fill="#7F70FF"/>
<path d="M534.493 92L558.741 106V134L534.493 148L510.244 134V106L534.493 92Z" fill="#7F70FF"/>
<path d="M534.493 184L558.741 198V226L534.493 240L510.244 226V198L534.493 184Z" fill="#7F70FF"/>
<path d="M534.493 276L558.741 290V318L534.493 332L510.244 318V290L534.493 276Z" fill="#7F70FF"/>
<path d="M534.493 368L558.741 382V410L534.493 424L510.244 410V382L534.493 368Z" fill="#7F70FF"/>
<path d="M534.493 460L558.741 474V502L534.493 516L510.244 502V474L534.493 460Z" fill="#7F70FF"/>
<path d="M534.493 552L558.741 566V594L534.493 608L510.244 594V566L534.493 552Z" fill="#7F70FF"/>
<path d="M534.493 644L558.741 658V686L534.493 700L510.244 686V658L534.493 644Z" fill="#7F70FF"/>
<path d="M534.493 736L558.741 750V778L534.493 792L510.244 778V750L534.493 736Z" fill="#7F70FF"/>
<path d="M534.493 828L558.741 842V870L534.493 884L510.244 870V842L534.493 828Z" fill="#7F70FF"/>
<path d="M534.493 920L558.741 934V962L534.493 976L510.244 962V934L534.493 920Z" fill="#7F70FF"/>
<path d="M561.741 46L585.99 60V88L561.741 102L537.493 88V60L561.741 46Z" fill="#7F70FF"/>
<path d="M561.741 138L585.99 152V180L561.741 194L537.493 180V152L561.741 138Z" fill="#7F70FF"/>
<path d="M561.741 230L585.99 244V272L561.741 286L537.493 272V244L561.741 230Z" fill="#7F70FF"/>
<path d="M561.741 322L585.99 336V364L561.741 378L537.493 364V336L561.741 322Z" fill="#7F70FF"/>
<path d="M561.741 414L585.99 428V456L561.741 470L537.493 456V428L561.741 414Z" fill="#7F70FF"/>
<path d="M561.741 506L585.99 520V548L561.741 562L537.493 548V520L561.741 506Z" fill="#7F70FF"/>
<path d="M561.741 598L585.99 612V640L561.741 654L537.493 640V612L561.741 598Z" fill="#7F70FF"/>
<path d="M561.741 690L585.99 704V732L561.741 746L537.493 732V704L561.741 690Z" fill="#7F70FF"/>
<path d="M561.741 782L585.99 796V824L561.741 838L537.493 824V796L561.741 782Z" fill="#7F70FF"/>
<path d="M561.741 874L585.99 888V916L561.741 930L537.493 916V888L561.741 874Z" fill="#7F70FF"/>
<path d="M561.741 966L585.99 980V1008L561.741 1022L537.493 1008V980L561.741 966Z" fill="#7F70FF"/>
<path d="M642.741 0L666.99 14V42L642.741 56L618.493 42V14L642.741 0Z" fill="#7F70FF"/>
<path d="M642.741 92L666.99 106V134L642.741 148L618.493 134V106L642.741 92Z" fill="#7F70FF"/>
<path d="M642.741 184L666.99 198V226L642.741 240L618.493 226V198L642.741 184Z" fill="#7F70FF"/>
<path d="M642.741 276L666.99 290V318L642.741 332L618.493 318V290L642.741 276Z" fill="#7F70FF"/>
<path d="M642.741 368L666.99 382V410L642.741 424L618.493 410V382L642.741 368Z" fill="#7F70FF"/>
<path d="M642.741 460L666.99 474V502L642.741 516L618.493 502V474L642.741 460Z" fill="#7F70FF"/>
<path d="M642.741 552L666.99 566V594L642.741 608L618.493 594V566L642.741 552Z" fill="#7F70FF"/>
<path d="M642.741 644L666.99 658V686L642.741 700L618.493 686V658L642.741 644Z" fill="#7F70FF"/>
<path d="M642.741 736L666.99 750V778L642.741 792L618.493 778V750L642.741 736Z" fill="#7F70FF"/>
<path d="M642.741 828L666.99 842V870L642.741 884L618.493 870V842L642.741 828Z" fill="#7F70FF"/>
<path d="M642.741 920L666.99 934V962L642.741 976L618.493 962V934L642.741 920Z" fill="#7F70FF"/>
<path d="M669.99 46L694.239 60V88L669.99 102L645.741 88V60L669.99 46Z" fill="#7F70FF"/>
<path d="M669.99 138L694.239 152V180L669.99 194L645.741 180V152L669.99 138Z" fill="#7F70FF"/>
<path d="M669.99 230L694.239 244V272L669.99 286L645.741 272V244L669.99 230Z" fill="#7F70FF"/>
<path d="M669.99 322L694.239 336V364L669.99 378L645.741 364V336L669.99 322Z" fill="#7F70FF"/>
<path d="M669.99 414L694.239 428V456L669.99 470L645.741 456V428L669.99 414Z" fill="#7F70FF"/>
<path d="M669.99 506L694.239 520V548L669.99 562L645.741 548V520L669.99 506Z" fill="#7F70FF"/>
<path d="M669.99 598L694.239 612V640L669.99 654L645.741 640V612L669.99 598Z" fill="#7F70FF"/>
<path d="M669.99 690L694.239 704V732L669.99 746L645.741 732V704L669.99 690Z" fill="#7F70FF"/>
<path d="M669.99 782L694.239 796V824L669.99 838L645.741 824V796L669.99 782Z" fill="#7F70FF"/>
<path d="M669.99 874L694.239 888V916L669.99 930L645.741 916V888L669.99 874Z" fill="#7F70FF"/>
<path d="M669.99 966L694.239 980V1008L669.99 1022L645.741 1008V980L669.99 966Z" fill="#7F70FF"/>
<path d="M750.99 0L775.239 14V42L750.99 56L726.741 42V14L750.99 0Z" fill="#7F70FF"/>
<path d="M750.99 92L775.239 106V134L750.99 148L726.741 134V106L750.99 92Z" fill="#7F70FF"/>
<path d="M750.99 184L775.239 198V226L750.99 240L726.741 226V198L750.99 184Z" fill="#7F70FF"/>
<path d="M750.99 276L775.239 290V318L750.99 332L726.741 318V290L750.99 276Z" fill="#7F70FF"/>
<path d="M750.99 368L775.239 382V410L750.99 424L726.741 410V382L750.99 368Z" fill="#7F70FF"/>
<path d="M750.99 460L775.239 474V502L750.99 516L726.741 502V474L750.99 460Z" fill="#7F70FF"/>
<path d="M750.99 552L775.239 566V594L750.99 608L726.741 594V566L750.99 552Z" fill="#7F70FF"/>
<path d="M750.99 644L775.239 658V686L750.99 700L726.741 686V658L750.99 644Z" fill="#7F70FF"/>
<path d="M750.99 736L775.239 750V778L750.99 792L726.741 778V750L750.99 736Z" fill="#7F70FF"/>
<path d="M750.99 828L775.239 842V870L750.99 884L726.741 870V842L750.99 828Z" fill="#7F70FF"/>
<path d="M750.99 920L775.239 934V962L750.99 976L726.741 962V934L750.99 920Z" fill="#7F70FF"/>
<path d="M778.239 46L802.488 60V88L778.239 102L753.99 88V60L778.239 46Z" fill="#7F70FF"/>
<path d="M778.239 138L802.488 152V180L778.239 194L753.99 180V152L778.239 138Z" fill="#7F70FF"/>
<path d="M778.239 230L802.488 244V272L778.239 286L753.99 272V244L778.239 230Z" fill="#7F70FF"/>
<path d="M778.239 322L802.488 336V364L778.239 378L753.99 364V336L778.239 322Z" fill="#7F70FF"/>
<path d="M778.239 414L802.488 428V456L778.239 470L753.99 456V428L778.239 414Z" fill="#7F70FF"/>
<path d="M778.239 506L802.488 520V548L778.239 562L753.99 548V520L778.239 506Z" fill="#7F70FF"/>
<path d="M778.239 598L802.488 612V640L778.239 654L753.99 640V612L778.239 598Z" fill="#7F70FF"/>
<path d="M778.239 690L802.488 704V732L778.239 746L753.99 732V704L778.239 690Z" fill="#7F70FF"/>
<path d="M778.239 782L802.488 796V824L778.239 838L753.99 824V796L778.239 782Z" fill="#7F70FF"/>
<path d="M778.239 874L802.488 888V916L778.239 930L753.99 916V888L778.239 874Z" fill="#7F70FF"/>
<path d="M778.239 966L802.488 980V1008L778.239 1022L753.99 1008V980L778.239 966Z" fill="#7F70FF"/>
<path d="M859.239 0L883.488 14V42L859.239 56L834.99 42V14L859.239 0Z" fill="#7F70FF"/>
<path d="M859.239 92L883.488 106V134L859.239 148L834.99 134V106L859.239 92Z" fill="#7F70FF"/>
<path d="M859.239 184L883.488 198V226L859.239 240L834.99 226V198L859.239 184Z" fill="#7F70FF"/>
<path d="M859.239 276L883.488 290V318L859.239 332L834.99 318V290L859.239 276Z" fill="#7F70FF"/>
<path d="M859.239 368L883.488 382V410L859.239 424L834.99 410V382L859.239 368Z" fill="#7F70FF"/>
<path d="M859.239 460L883.488 474V502L859.239 516L834.99 502V474L859.239 460Z" fill="#7F70FF"/>
<path d="M859.239 552L883.488 566V594L859.239 608L834.99 594V566L859.239 552Z" fill="#7F70FF"/>
<path d="M859.239 644L883.488 658V686L859.239 700L834.99 686V658L859.239 644Z" fill="#7F70FF"/>
<path d="M859.239 736L883.488 750V778L859.239 792L834.99 778V750L859.239 736Z" fill="#7F70FF"/>
<path d="M859.239 828L883.488 842V870L859.239 884L834.99 870V842L859.239 828Z" fill="#7F70FF"/>
<path d="M859.239 920L883.488 934V962L859.239 976L834.99 962V934L859.239 920Z" fill="#7F70FF"/>
<path d="M886.488 46L910.736 60V88L886.488 102L862.239 88V60L886.488 46Z" fill="#7F70FF"/>
<path d="M886.488 138L910.736 152V180L886.488 194L862.239 180V152L886.488 138Z" fill="#7F70FF"/>
<path d="M886.488 230L910.736 244V272L886.488 286L862.239 272V244L886.488 230Z" fill="#7F70FF"/>
<path d="M886.488 322L910.736 336V364L886.488 378L862.239 364V336L886.488 322Z" fill="#7F70FF"/>
<path d="M886.488 414L910.736 428V456L886.488 470L862.239 456V428L886.488 414Z" fill="#7F70FF"/>
<path d="M886.488 506L910.736 520V548L886.488 562L862.239 548V520L886.488 506Z" fill="#7F70FF"/>
<path d="M886.488 598L910.736 612V640L886.488 654L862.239 640V612L886.488 598Z" fill="#7F70FF"/>
<path d="M886.488 690L910.736 704V732L886.488 746L862.239 732V704L886.488 690Z" fill="#7F70FF"/>
<path d="M886.488 782L910.736 796V824L886.488 838L862.239 824V796L886.488 782Z" fill="#7F70FF"/>
<path d="M886.488 874L910.736 888V916L886.488 930L862.239 916V888L886.488 874Z" fill="#7F70FF"/>
<path d="M886.488 966L910.736 980V1008L886.488 1022L862.239 1008V980L886.488 966Z" fill="#7F70FF"/>
<path d="M967.488 0L991.736 14V42L967.488 56L943.239 42V14L967.488 0Z" fill="#7F70FF"/>
<path d="M967.488 92L991.736 106V134L967.488 148L943.239 134V106L967.488 92Z" fill="#7F70FF"/>
<path d="M967.488 184L991.736 198V226L967.488 240L943.239 226V198L967.488 184Z" fill="#7F70FF"/>
<path d="M967.488 276L991.736 290V318L967.488 332L943.239 318V290L967.488 276Z" fill="#7F70FF"/>
<path d="M967.488 368L991.736 382V410L967.488 424L943.239 410V382L967.488 368Z" fill="#7F70FF"/>
<path d="M967.488 460L991.736 474V502L967.488 516L943.239 502V474L967.488 460Z" fill="#7F70FF"/>
<path d="M967.488 552L991.736 566V594L967.488 608L943.239 594V566L967.488 552Z" fill="#7F70FF"/>
<path d="M967.488 644L991.736 658V686L967.488 700L943.239 686V658L967.488 644Z" fill="#7F70FF"/>
<path d="M967.488 736L991.736 750V778L967.488 792L943.239 778V750L967.488 736Z" fill="#7F70FF"/>
<path d="M967.488 828L991.736 842V870L967.488 884L943.239 870V842L967.488 828Z" fill="#7F70FF"/>
<path d="M967.488 920L991.736 934V962L967.488 976L943.239 962V934L967.488 920Z" fill="#7F70FF"/>
<path d="M994.737 46L1018.99 60V88L994.737 102L970.488 88V60L994.737 46Z" fill="#7F70FF"/>
<path d="M994.737 138L1018.99 152V180L994.737 194L970.488 180V152L994.737 138Z" fill="#7F70FF"/>
<path d="M994.737 230L1018.99 244V272L994.737 286L970.488 272V244L994.737 230Z" fill="#7F70FF"/>
<path d="M994.737 322L1018.99 336V364L994.737 378L970.488 364V336L994.737 322Z" fill="#7F70FF"/>
<path d="M994.737 414L1018.99 428V456L994.737 470L970.488 456V428L994.737 414Z" fill="#7F70FF"/>
<path d="M994.737 506L1018.99 520V548L994.737 562L970.488 548V520L994.737 506Z" fill="#7F70FF"/>
<path d="M994.737 598L1018.99 612V640L994.737 654L970.488 640V612L994.737 598Z" fill="#7F70FF"/>
<path d="M994.737 690L1018.99 704V732L994.737 746L970.488 732V704L994.737 690Z" fill="#7F70FF"/>
<path d="M994.737 782L1018.99 796V824L994.737 838L970.488 824V796L994.737 782Z" fill="#7F70FF"/>
<path d="M994.737 874L1018.99 888V916L994.737 930L970.488 916V888L994.737 874Z" fill="#7F70FF"/>
<path d="M994.737 966L1018.99 980V1008L994.737 1022L970.488 1008V980L994.737 966Z" fill="#7F70FF"/>
<path d="M1075.74 0L1099.99 14V42L1075.74 56L1051.49 42V14L1075.74 0Z" fill="#7F70FF"/>
<path d="M1075.74 92L1099.99 106V134L1075.74 148L1051.49 134V106L1075.74 92Z" fill="#7F70FF"/>
<path d="M1075.74 184L1099.99 198V226L1075.74 240L1051.49 226V198L1075.74 184Z" fill="#7F70FF"/>
<path d="M1075.74 276L1099.99 290V318L1075.74 332L1051.49 318V290L1075.74 276Z" fill="#7F70FF"/>
<path d="M1075.74 368L1099.99 382V410L1075.74 424L1051.49 410V382L1075.74 368Z" fill="#7F70FF"/>
<path d="M1075.74 460L1099.99 474V502L1075.74 516L1051.49 502V474L1075.74 460Z" fill="#7F70FF"/>
<path d="M1075.74 552L1099.99 566V594L1075.74 608L1051.49 594V566L1075.74 552Z" fill="#7F70FF"/>
<path d="M1075.74 644L1099.99 658V686L1075.74 700L1051.49 686V658L1075.74 644Z" fill="#7F70FF"/>
<path d="M1075.74 736L1099.99 750V778L1075.74 792L1051.49 778V750L1075.74 736Z" fill="#7F70FF"/>
<path d="M1075.74 828L1099.99 842V870L1075.74 884L1051.49 870V842L1075.74 828Z" fill="#7F70FF"/>
<path d="M1075.74 920L1099.99 934V962L1075.74 976L1051.49 962V934L1075.74 920Z" fill="#7F70FF"/>
<path d="M1102.99 46L1127.23 60V88L1102.99 102L1078.74 88V60L1102.99 46Z" fill="#7F70FF"/>
<path d="M1102.99 138L1127.23 152V180L1102.99 194L1078.74 180V152L1102.99 138Z" fill="#7F70FF"/>
<path d="M1102.99 230L1127.23 244V272L1102.99 286L1078.74 272V244L1102.99 230Z" fill="#7F70FF"/>
<path d="M1102.99 322L1127.23 336V364L1102.99 378L1078.74 364V336L1102.99 322Z" fill="#7F70FF"/>
<path d="M1102.99 414L1127.23 428V456L1102.99 470L1078.74 456V428L1102.99 414Z" fill="#7F70FF"/>
<path d="M1102.99 506L1127.23 520V548L1102.99 562L1078.74 548V520L1102.99 506Z" fill="#7F70FF"/>
<path d="M1102.99 598L1127.23 612V640L1102.99 654L1078.74 640V612L1102.99 598Z" fill="#7F70FF"/>
<path d="M1102.99 690L1127.23 704V732L1102.99 746L1078.74 732V704L1102.99 690Z" fill="#7F70FF"/>
<path d="M1102.99 782L1127.23 796V824L1102.99 838L1078.74 824V796L1102.99 782Z" fill="#7F70FF"/>
<path d="M1102.99 874L1127.23 888V916L1102.99 930L1078.74 916V888L1102.99 874Z" fill="#7F70FF"/>
<path d="M1102.99 966L1127.23 980V1008L1102.99 1022L1078.74 1008V980L1102.99 966Z" fill="#7F70FF"/>
<path d="M1183.99 0L1208.23 14V42L1183.99 56L1159.74 42V14L1183.99 0Z" fill="#7F70FF"/>
<path d="M1183.99 92L1208.23 106V134L1183.99 148L1159.74 134V106L1183.99 92Z" fill="#7F70FF"/>
<path d="M1183.99 184L1208.23 198V226L1183.99 240L1159.74 226V198L1183.99 184Z" fill="#7F70FF"/>
<path d="M1183.99 276L1208.23 290V318L1183.99 332L1159.74 318V290L1183.99 276Z" fill="#7F70FF"/>
<path d="M1183.99 368L1208.23 382V410L1183.99 424L1159.74 410V382L1183.99 368Z" fill="#7F70FF"/>
<path d="M1183.99 460L1208.23 474V502L1183.99 516L1159.74 502V474L1183.99 460Z" fill="#7F70FF"/>
<path d="M1183.99 552L1208.23 566V594L1183.99 608L1159.74 594V566L1183.99 552Z" fill="#7F70FF"/>
<path d="M1183.99 644L1208.23 658V686L1183.99 700L1159.74 686V658L1183.99 644Z" fill="#7F70FF"/>
<path d="M1183.99 736L1208.23 750V778L1183.99 792L1159.74 778V750L1183.99 736Z" fill="#7F70FF"/>
<path d="M1183.99 828L1208.23 842V870L1183.99 884L1159.74 870V842L1183.99 828Z" fill="#7F70FF"/>
<path d="M1183.99 920L1208.23 934V962L1183.99 976L1159.74 962V934L1183.99 920Z" fill="#7F70FF"/>
<path d="M1211.23 46L1235.48 60V88L1211.23 102L1186.99 88V60L1211.23 46Z" fill="#7F70FF"/>
<path d="M1211.23 138L1235.48 152V180L1211.23 194L1186.99 180V152L1211.23 138Z" fill="#7F70FF"/>
<path d="M1211.23 230L1235.48 244V272L1211.23 286L1186.99 272V244L1211.23 230Z" fill="#7F70FF"/>
<path d="M1211.23 322L1235.48 336V364L1211.23 378L1186.99 364V336L1211.23 322Z" fill="#7F70FF"/>
<path d="M1211.23 414L1235.48 428V456L1211.23 470L1186.99 456V428L1211.23 414Z" fill="#7F70FF"/>
<path d="M1211.23 506L1235.48 520V548L1211.23 562L1186.99 548V520L1211.23 506Z" fill="#7F70FF"/>
<path d="M1211.23 598L1235.48 612V640L1211.23 654L1186.99 640V612L1211.23 598Z" fill="#7F70FF"/>
<path d="M1211.23 690L1235.48 704V732L1211.23 746L1186.99 732V704L1211.23 690Z" fill="#7F70FF"/>
<path d="M1211.23 782L1235.48 796V824L1211.23 838L1186.99 824V796L1211.23 782Z" fill="#7F70FF"/>
<path d="M1211.23 874L1235.48 888V916L1211.23 930L1186.99 916V888L1211.23 874Z" fill="#7F70FF"/>
<path d="M1211.23 966L1235.48 980V1008L1211.23 1022L1186.99 1008V980L1211.23 966Z" fill="#7F70FF"/>
<path d="M1292.23 0L1316.48 14V42L1292.23 56L1267.99 42V14L1292.23 0Z" fill="#7F70FF"/>
<path d="M1292.23 92L1316.48 106V134L1292.23 148L1267.99 134V106L1292.23 92Z" fill="#7F70FF"/>
<path d="M1292.23 184L1316.48 198V226L1292.23 240L1267.99 226V198L1292.23 184Z" fill="#7F70FF"/>
<path d="M1292.23 276L1316.48 290V318L1292.23 332L1267.99 318V290L1292.23 276Z" fill="#7F70FF"/>
<path d="M1292.23 368L1316.48 382V410L1292.23 424L1267.99 410V382L1292.23 368Z" fill="#7F70FF"/>
<path d="M1292.23 460L1316.48 474V502L1292.23 516L1267.99 502V474L1292.23 460Z" fill="#7F70FF"/>
<path d="M1292.23 552L1316.48 566V594L1292.23 608L1267.99 594V566L1292.23 552Z" fill="#7F70FF"/>
<path d="M1292.23 644L1316.48 658V686L1292.23 700L1267.99 686V658L1292.23 644Z" fill="#7F70FF"/>
<path d="M1292.23 736L1316.48 750V778L1292.23 792L1267.99 778V750L1292.23 736Z" fill="#7F70FF"/>
<path d="M1292.23 828L1316.48 842V870L1292.23 884L1267.99 870V842L1292.23 828Z" fill="#7F70FF"/>
<path d="M1292.23 920L1316.48 934V962L1292.23 976L1267.99 962V934L1292.23 920Z" fill="#7F70FF"/>
<path d="M1319.48 46L1343.73 60V88L1319.48 102L1295.23 88V60L1319.48 46Z" fill="#7F70FF"/>
<path d="M1319.48 138L1343.73 152V180L1319.48 194L1295.23 180V152L1319.48 138Z" fill="#7F70FF"/>
<path d="M1319.48 230L1343.73 244V272L1319.48 286L1295.23 272V244L1319.48 230Z" fill="#7F70FF"/>
<path d="M1319.48 322L1343.73 336V364L1319.48 378L1295.23 364V336L1319.48 322Z" fill="#7F70FF"/>
<path d="M1319.48 414L1343.73 428V456L1319.48 470L1295.23 456V428L1319.48 414Z" fill="#7F70FF"/>
<path d="M1319.48 506L1343.73 520V548L1319.48 562L1295.23 548V520L1319.48 506Z" fill="#7F70FF"/>
<path d="M1319.48 598L1343.73 612V640L1319.48 654L1295.23 640V612L1319.48 598Z" fill="#7F70FF"/>
<path d="M1319.48 690L1343.73 704V732L1319.48 746L1295.23 732V704L1319.48 690Z" fill="#7F70FF"/>
<path d="M1319.48 782L1343.73 796V824L1319.48 838L1295.23 824V796L1319.48 782Z" fill="#7F70FF"/>
<path d="M1319.48 874L1343.73 888V916L1319.48 930L1295.23 916V888L1319.48 874Z" fill="#7F70FF"/>
<path d="M1319.48 966L1343.73 980V1008L1319.48 1022L1295.23 1008V980L1319.48 966Z" fill="#7F70FF"/>
<path d="M1400.48 0L1424.73 14V42L1400.48 56L1376.23 42V14L1400.48 0Z" fill="#7F70FF"/>
<path d="M1400.48 92L1424.73 106V134L1400.48 148L1376.23 134V106L1400.48 92Z" fill="#7F70FF"/>
<path d="M1400.48 184L1424.73 198V226L1400.48 240L1376.23 226V198L1400.48 184Z" fill="#7F70FF"/>
<path d="M1400.48 276L1424.73 290V318L1400.48 332L1376.23 318V290L1400.48 276Z" fill="#7F70FF"/>
<path d="M1400.48 368L1424.73 382V410L1400.48 424L1376.23 410V382L1400.48 368Z" fill="#7F70FF"/>
<path d="M1400.48 460L1424.73 474V502L1400.48 516L1376.23 502V474L1400.48 460Z" fill="#7F70FF"/>
<path d="M1400.48 552L1424.73 566V594L1400.48 608L1376.23 594V566L1400.48 552Z" fill="#7F70FF"/>
<path d="M1400.48 644L1424.73 658V686L1400.48 700L1376.23 686V658L1400.48 644Z" fill="#7F70FF"/>
<path d="M1400.48 736L1424.73 750V778L1400.48 792L1376.23 778V750L1400.48 736Z" fill="#7F70FF"/>
<path d="M1400.48 828L1424.73 842V870L1400.48 884L1376.23 870V842L1400.48 828Z" fill="#7F70FF"/>
<path d="M1400.48 920L1424.73 934V962L1400.48 976L1376.23 962V934L1400.48 920Z" fill="#7F70FF"/>
<path d="M1427.73 46L1451.98 60V88L1427.73 102L1403.48 88V60L1427.73 46Z" fill="#7F70FF"/>
<path d="M1427.73 138L1451.98 152V180L1427.73 194L1403.48 180V152L1427.73 138Z" fill="#7F70FF"/>
<path d="M1427.73 230L1451.98 244V272L1427.73 286L1403.48 272V244L1427.73 230Z" fill="#7F70FF"/>
<path d="M1427.73 322L1451.98 336V364L1427.73 378L1403.48 364V336L1427.73 322Z" fill="#7F70FF"/>
<path d="M1427.73 414L1451.98 428V456L1427.73 470L1403.48 456V428L1427.73 414Z" fill="#7F70FF"/>
<path d="M1427.73 506L1451.98 520V548L1427.73 562L1403.48 548V520L1427.73 506Z" fill="#7F70FF"/>
<path d="M1427.73 598L1451.98 612V640L1427.73 654L1403.48 640V612L1427.73 598Z" fill="#7F70FF"/>
<path d="M1427.73 690L1451.98 704V732L1427.73 746L1403.48 732V704L1427.73 690Z" fill="#7F70FF"/>
<path d="M1427.73 782L1451.98 796V824L1427.73 838L1403.48 824V796L1427.73 782Z" fill="#7F70FF"/>
<path d="M1427.73 874L1451.98 888V916L1427.73 930L1403.48 916V888L1427.73 874Z" fill="#7F70FF"/>
<path d="M1427.73 966L1451.98 980V1008L1427.73 1022L1403.48 1008V980L1427.73 966Z" fill="#7F70FF"/>
</g>
<defs>
<filter id="filter0_d_14_2" x="0" y="0" width="1448" height="1022" filterUnits="userSpaceOnUse" color-interpolation-filters="sRGB">
<feFlood flood-opacity="0" result="BackgroundImageFix"/>
<feColorMatrix in="SourceAlpha" type="matrix" values="0 0 0 0 0 0 0 0 0 0 0 0 0 0 0 0 0 0 127 0" result="hardAlpha"/>
<feOffset dy="4"/>
<feGaussianBlur stdDeviation="2"/>
<feComposite in2="hardAlpha" operator="out"/>
<feColorMatrix type="matrix" values="0 0 0 0 0 0 0 0 0 0 0 0 0 0 0 0 0 0 0.25 0"/>
<feBlend mode="normal" in2="BackgroundImageFix" result="effect1_dropShadow_14_2"/>
<feBlend mode="normal" in="SourceGraphic" in2="effect1_dropShadow_14_2" result="shape"/>
</filter>
<clipPath id="clip0_14_2">
<rect width="1440" height="1014" fill="white" transform="translate(4)"/>
</clipPath>
</defs>
</svg>
