<svg width="493" height="394" viewBox="0 0 493 394" fill="none" xmlns="http://www.w3.org/2000/svg">
<g filter="url(#filter0_iii_3_4098)">
<path d="M228.842 9.88883C239.441 3.76958 252.499 3.76958 263.098 9.88883L369.863 71.5294C380.462 77.6486 386.991 88.9575 386.991 101.196V224.477C386.991 236.716 380.462 248.024 369.863 254.144L263.098 315.784C252.499 321.903 239.441 321.903 228.842 315.784L122.078 254.144C111.479 248.024 104.95 236.716 104.95 224.477V101.196C104.95 88.9575 111.479 77.6486 122.078 71.5294L228.842 9.88883Z" fill="url(#paint0_linear_3_4098)"/>
</g>
<g filter="url(#filter1_i_3_4098)">
<path fill-rule="evenodd" clip-rule="evenodd" d="M268.825 10.2965L366.454 66.7188C380.576 74.8803 389.275 89.9534 389.275 106.264V219.168C389.275 235.479 380.576 250.552 366.454 258.713L268.825 315.136C254.684 323.308 237.256 323.308 223.116 315.136L125.486 258.713C111.364 250.552 102.666 235.479 102.666 219.168V106.264C102.666 89.9535 111.364 74.8804 125.486 66.7188L223.116 10.2965C237.256 2.12444 254.684 2.12443 268.825 10.2965ZM263.111 20.1829C252.506 14.0539 239.435 14.0539 228.83 20.1829L131.2 76.6052C120.608 82.7264 114.085 94.0312 114.085 106.264V219.168C114.085 231.401 120.608 242.706 131.2 248.827L228.83 305.249C239.435 311.378 252.506 311.378 263.111 305.249L360.741 248.827C371.332 242.706 377.856 231.401 377.856 219.168V106.264C377.856 94.0312 371.332 82.7264 360.741 76.6052L263.111 20.1829Z" fill="#FBD0FC"/>
</g>
<g opacity="0.4">
<mask id="mask0_3_4098" style="mask-type:alpha" maskUnits="userSpaceOnUse" x="107" y="5" width="283" height="316">
<path d="M231.641 9.88883C242.24 3.76958 255.298 3.76958 265.897 9.88883L372.662 71.5294C383.26 77.6486 389.79 88.9575 389.79 101.196V224.477C389.79 236.716 383.26 248.024 372.662 254.144L265.897 315.784C255.298 321.903 242.24 321.903 231.641 315.784L124.877 254.144C114.278 248.024 107.749 236.716 107.749 224.477V101.196C107.749 88.9575 114.278 77.6486 124.877 71.5294L231.641 9.88883Z" fill="url(#paint1_linear_3_4098)"/>
</mask>
<g mask="url(#mask0_3_4098)">
<path fill-rule="evenodd" clip-rule="evenodd" d="M117.001 47.0403L233.239 159.702L181.208 7.19696C181.988 6.92825 182.771 6.66503 183.557 6.40735L221.038 -1.34743C225.093 -1.71936 229.188 -1.94954 233.32 -2.03298L240.192 154.309L309.609 14.1699C319.546 18.8578 328.957 24.4759 337.731 30.9119L258.404 154.309L388.494 90.1319C396.842 106.215 402.707 123.795 405.581 142.362L258.404 166.892L404.738 199.991C402.535 211.884 399.1 223.345 394.569 234.236L258.404 175.879L348.554 297.847C336.72 308.092 323.464 316.738 309.121 323.449L251.214 183.069L228.143 339.241C221.587 338.913 215.128 338.214 208.787 337.166L202.682 335.858L240.429 183.069L124.464 297.278C108.645 283.442 95.4014 266.734 85.5478 247.967L233.239 175.879H66.2206C66.122 173.497 66.0722 171.102 66.0722 168.695C66.0722 159.717 66.7651 150.901 68.1003 142.297L233.239 166.892L91.0177 79.7811C98.3275 67.8187 107.068 56.8258 117.001 47.0403Z" fill="url(#paint2_radial_3_4098)" fill-opacity="0.5"/>
</g>
</g>
<g filter="url(#filter2_di_3_4098)">
<path d="M235.217 153.542C225.707 164.71 237.117 177.523 251.786 177.523H253.621C260.221 177.523 266.119 171.906 270.334 166.826C281.007 153.961 305.918 140.475 305.918 110.952C305.918 78.1706 277.172 60.5192 248.425 60.5192C226.484 60.5192 206.712 69.5064 193.847 85.9016C187.614 93.8447 191.488 104.9 200.25 109.916V109.916C210.59 115.835 223.092 109.938 233.203 103.634C237.033 101.246 241.56 99.8565 246.912 99.8565C259.773 99.8565 265.572 105.656 265.572 114.482C265.572 129.47 247.166 139.512 235.217 153.542ZM245.399 244.093C258.512 244.093 269.355 233.25 269.355 220.138C269.355 207.026 258.512 196.183 245.399 196.183C232.287 196.183 221.444 207.026 221.444 220.138C221.444 233.25 232.287 244.093 245.399 244.093Z" fill="#F8FDEE"/>
</g>
<g filter="url(#filter3_iii_3_4098)">
<path d="M4.88175 295.188C14.9482 289.322 29.0167 281.301 35.2132 278.344C37.0094 277.486 38.8008 278.253 39.791 279.979L81.5586 352.805C83.2094 355.684 81.8797 359.356 78.7686 360.509L76.8155 361.234C72.6321 362.785 72.8061 368.761 77.0727 370.066C81.4725 371.412 81.4716 377.641 77.0715 378.986L35.6477 391.648C32.0777 392.739 28.469 390.068 28.469 386.335V345.969C28.469 344.942 28.1847 343.936 27.6475 343.062L2.96145 302.868C1.33481 300.22 2.19628 296.752 4.88175 295.188Z" fill="url(#paint3_linear_3_4098)"/>
</g>
<g filter="url(#filter4_iii_3_4098)">
<path d="M488.118 292.41C478.052 286.545 463.983 278.523 457.787 275.566C455.991 274.709 454.199 275.475 453.209 277.202L411.441 350.028C409.791 352.906 411.12 356.578 414.231 357.732L416.184 358.456C420.368 360.008 420.194 365.983 415.927 367.289C411.528 368.635 411.528 374.864 415.929 376.209L457.352 388.87C460.922 389.961 464.531 387.291 464.531 383.558V343.191C464.531 342.165 464.815 341.159 465.352 340.284L490.039 300.091C491.665 297.443 490.804 293.975 488.118 292.41Z" fill="url(#paint4_linear_3_4098)"/>
</g>
<g filter="url(#filter5_ii_3_4098)">
<path d="M454.67 253.564C267.951 183.888 101.809 223.263 38.1459 253.27C36.0382 254.263 34.8814 256.468 35.1568 258.782C40.525 303.885 53.5252 343.025 61.0975 361.254C62.2291 363.978 65.361 365.21 68.1182 364.162C221.472 305.869 367.315 338.706 425.721 364.226C428.14 365.283 430.951 364.555 432.398 362.346C451.963 332.489 457.7 283.527 458.238 258.735C458.289 256.429 456.831 254.371 454.67 253.564Z" fill="url(#paint5_linear_3_4098)"/>
</g>
<g filter="url(#filter6_d_3_4098)">
<path d="M90.0212 321.062C89.2826 321.269 88.5162 320.838 88.3092 320.099L72.5884 263.996C72.3815 263.257 72.8124 262.491 73.551 262.284L114.916 250.693C115.655 250.486 116.421 250.917 116.628 251.655L120.427 265.211C120.634 265.949 120.203 266.716 119.464 266.923L98.4518 272.81C97.7132 273.017 97.2823 273.784 97.4892 274.522L98.141 276.848C98.348 277.587 99.1144 278.018 99.853 277.811L115.602 273.398C116.34 273.191 117.107 273.622 117.313 274.361L121.063 287.741C121.27 288.479 120.839 289.246 120.1 289.452L104.352 293.865C103.613 294.072 103.182 294.839 103.389 295.577L104.115 298.167C104.321 298.905 105.088 299.336 105.826 299.129L126.839 293.241C127.577 293.034 128.344 293.465 128.551 294.204L132.349 307.759C132.556 308.498 132.125 309.264 131.387 309.471L90.0212 321.062Z" fill="white"/>
<path d="M162.514 289.181C162.284 288.571 161.66 288.204 161.015 288.298L158.355 288.686C157.596 288.796 157.071 289.501 157.181 290.26L159.056 303.109C159.166 303.867 158.641 304.572 157.882 304.683L139.715 307.333C138.956 307.444 138.251 306.919 138.14 306.16L129.729 248.505C129.619 247.746 130.144 247.041 130.903 246.931L154.952 243.422C164.268 242.063 171.167 242.653 175.65 245.191C180.124 247.668 182.975 253.114 184.202 261.529C185.356 269.439 184.206 275.512 180.752 279.747C180.399 280.179 180.298 280.773 180.529 281.281L188.332 298.447C188.715 299.289 188.184 300.263 187.269 300.396L168.926 303.072C168.281 303.166 167.657 302.799 167.426 302.188L162.514 289.181ZM159.623 271.652C162.568 271.222 163.755 269.054 163.185 265.147C162.607 261.18 160.665 259.438 157.359 259.92L154.135 260.391C153.376 260.501 152.851 261.206 152.962 261.965L154.284 271.027C154.394 271.786 155.099 272.311 155.858 272.201L159.623 271.652Z" fill="white"/>
<path d="M222.642 283.563C222.48 282.931 221.9 282.498 221.248 282.521L218.562 282.616C217.796 282.644 217.196 283.287 217.223 284.053L217.684 297.029C217.711 297.796 217.112 298.439 216.345 298.467L197.997 299.118C197.231 299.145 196.587 298.546 196.56 297.779L194.494 239.551C194.466 238.785 195.066 238.141 195.832 238.114L220.121 237.252C229.529 236.918 236.323 238.257 240.502 241.269C244.679 244.221 246.918 249.945 247.219 258.443C247.503 266.432 245.697 272.343 241.801 276.176C241.403 276.567 241.238 277.146 241.412 277.677L247.294 295.592C247.583 296.471 246.948 297.38 246.024 297.413L227.499 298.071C226.847 298.094 226.267 297.66 226.105 297.029L222.642 283.563ZM221.682 265.822C224.656 265.717 226.073 263.691 225.933 259.746C225.791 255.74 224.051 253.796 220.712 253.914L217.456 254.03C216.69 254.057 216.09 254.7 216.118 255.467L216.442 264.619C216.47 265.385 217.113 265.985 217.88 265.957L221.682 265.822Z" fill="white"/>
<path d="M255.402 296.996C254.517 296.935 253.915 296.069 254.166 295.218L271.042 237.985C271.226 237.36 271.82 236.947 272.47 236.992L302.152 239.053C302.799 239.098 303.33 239.586 303.428 240.228L312.492 299.262C312.627 300.142 311.911 300.92 311.023 300.858L292.572 299.577C291.935 299.533 291.41 299.06 291.3 298.43L290.433 293.455C290.323 292.826 289.798 292.352 289.161 292.308L277.467 291.496C276.811 291.451 276.212 291.872 276.034 292.505L274.706 297.228C274.528 297.861 273.929 298.283 273.273 298.237L255.402 296.996ZM286.246 254.57C285.594 254.525 285.005 254.959 284.856 255.596L280.557 273.93C280.361 274.764 280.959 275.574 281.813 275.633L287.567 276.033C288.416 276.091 289.118 275.38 289.047 274.532L287.482 255.789C287.427 255.133 286.902 254.616 286.246 254.57V254.57Z" fill="white"/>
<path d="M324.716 258.383C323.961 258.248 323.458 257.526 323.594 256.771L326.141 242.556C326.277 241.801 326.998 241.299 327.753 241.434L369.859 248.98C370.614 249.115 371.116 249.837 370.981 250.592L368.433 264.807C368.298 265.562 367.576 266.065 366.821 265.929L357.897 264.33C357.142 264.195 356.42 264.697 356.285 265.452L349.044 305.853C348.909 306.608 348.187 307.111 347.432 306.975L329.361 303.737C328.606 303.601 328.104 302.88 328.239 302.125L335.479 261.723C335.615 260.968 335.112 260.247 334.357 260.111L324.716 258.383Z" fill="white"/>
<path d="M364.4 309.263C363.557 308.987 363.185 308.001 363.637 307.237L393.992 255.866C394.323 255.305 395 255.05 395.619 255.252L423.896 264.507C424.513 264.709 424.908 265.311 424.847 265.958L419.203 325.417C419.119 326.303 418.235 326.882 417.389 326.605L399.811 320.853C399.204 320.654 398.811 320.067 398.859 319.429L399.234 314.393C399.281 313.756 398.888 313.169 398.281 312.97L387.14 309.324C386.515 309.119 385.832 309.382 385.504 309.952L383.062 314.207C382.734 314.777 382.051 315.04 381.425 314.835L364.4 309.263ZM404.68 275.665C404.058 275.461 403.381 275.738 403.081 276.319L394.43 293.047C394.037 293.807 394.418 294.738 395.232 295.004L400.714 296.799C401.523 297.063 402.378 296.545 402.516 295.705L405.58 277.149C405.687 276.5 405.305 275.869 404.68 275.665V275.665Z" fill="white"/>
</g>
<defs>
<filter id="filter0_iii_3_4098" x="88.6857" y="-7.91502" width="306.437" height="340.849" filterUnits="userSpaceOnUse" color-interpolation-filters="sRGB">
<feFlood flood-opacity="0" result="BackgroundImageFix"/>
<feBlend mode="normal" in="SourceGraphic" in2="BackgroundImageFix" result="shape"/>
<feColorMatrix in="SourceAlpha" type="matrix" values="0 0 0 0 0 0 0 0 0 0 0 0 0 0 0 0 0 0 127 0" result="hardAlpha"/>
<feOffset dx="8.13196" dy="12.5605"/>
<feGaussianBlur stdDeviation="6.8512"/>
<feComposite in2="hardAlpha" operator="arithmetic" k2="-1" k3="1"/>
<feColorMatrix type="matrix" values="0 0 0 0 0.937255 0 0 0 0 0.329412 0 0 0 0 0.984314 0 0 0 0.35 0"/>
<feBlend mode="normal" in2="shape" result="effect1_innerShadow_3_4098"/>
<feColorMatrix in="SourceAlpha" type="matrix" values="0 0 0 0 0 0 0 0 0 0 0 0 0 0 0 0 0 0 127 0" result="hardAlpha"/>
<feOffset dy="-13.2144"/>
<feGaussianBlur stdDeviation="15.2474"/>
<feComposite in2="hardAlpha" operator="arithmetic" k2="-1" k3="1"/>
<feColorMatrix type="matrix" values="0 0 0 0 0.89307 0 0 0 0 0.493233 0 0 0 0 0.929167 0 0 0 1 0"/>
<feBlend mode="normal" in2="effect1_innerShadow_3_4098" result="effect2_innerShadow_3_4098"/>
<feColorMatrix in="SourceAlpha" type="matrix" values="0 0 0 0 0 0 0 0 0 0 0 0 0 0 0 0 0 0 127 0" result="hardAlpha"/>
<feOffset dx="-16.2639" dy="4.06598"/>
<feGaussianBlur stdDeviation="9.14845"/>
<feComposite in2="hardAlpha" operator="arithmetic" k2="-1" k3="1"/>
<feColorMatrix type="matrix" values="0 0 0 0 0.958134 0 0 0 0 0.376667 0 0 0 0 1 0 0 0 1 0"/>
<feBlend mode="normal" in2="effect2_innerShadow_3_4098" result="effect3_innerShadow_3_4098"/>
</filter>
<filter id="filter1_i_3_4098" x="102.666" y="4.16745" width="286.609" height="321.665" filterUnits="userSpaceOnUse" color-interpolation-filters="sRGB">
<feFlood flood-opacity="0" result="BackgroundImageFix"/>
<feBlend mode="normal" in="SourceGraphic" in2="BackgroundImageFix" result="shape"/>
<feColorMatrix in="SourceAlpha" type="matrix" values="0 0 0 0 0 0 0 0 0 0 0 0 0 0 0 0 0 0 127 0" result="hardAlpha"/>
<feOffset dy="4.56747"/>
<feGaussianBlur stdDeviation="2.28373"/>
<feComposite in2="hardAlpha" operator="arithmetic" k2="-1" k3="1"/>
<feColorMatrix type="matrix" values="0 0 0 0 0.992157 0 0 0 0 0.92549 0 0 0 0 0.992157 0 0 0 1 0"/>
<feBlend mode="normal" in2="shape" result="effect1_innerShadow_3_4098"/>
</filter>
<filter id="filter2_di_3_4098" x="188.133" y="55.6288" width="125.753" height="199.088" filterUnits="userSpaceOnUse" color-interpolation-filters="sRGB">
<feFlood flood-opacity="0" result="BackgroundImageFix"/>
<feColorMatrix in="SourceAlpha" type="matrix" values="0 0 0 0 0 0 0 0 0 0 0 0 0 0 0 0 0 0 127 0" result="hardAlpha"/>
<feOffset dx="2.65591" dy="5.31183"/>
<feGaussianBlur stdDeviation="2.65591"/>
<feComposite in2="hardAlpha" operator="out"/>
<feColorMatrix type="matrix" values="0 0 0 0 0.90598 0 0 0 0 0.342924 0 0 0 0 0.941667 0 0 0 1 0"/>
<feBlend mode="normal" in2="BackgroundImageFix" result="effect1_dropShadow_3_4098"/>
<feBlend mode="normal" in="SourceGraphic" in2="effect1_dropShadow_3_4098" result="shape"/>
<feColorMatrix in="SourceAlpha" type="matrix" values="0 0 0 0 0 0 0 0 0 0 0 0 0 0 0 0 0 0 127 0" result="hardAlpha"/>
<feOffset dy="-6.11303"/>
<feGaussianBlur stdDeviation="2.44521"/>
<feComposite in2="hardAlpha" operator="arithmetic" k2="-1" k3="1"/>
<feColorMatrix type="matrix" values="0 0 0 0 0.980392 0 0 0 0 0.74902 0 0 0 0 0.988235 0 0 0 1 0"/>
<feBlend mode="normal" in2="shape" result="effect2_innerShadow_3_4098"/>
</filter>
<filter id="filter3_iii_3_4098" x="-13.137" y="272.436" width="95.4092" height="125.013" filterUnits="userSpaceOnUse" color-interpolation-filters="sRGB">
<feFlood flood-opacity="0" result="BackgroundImageFix"/>
<feBlend mode="normal" in="SourceGraphic" in2="BackgroundImageFix" result="shape"/>
<feColorMatrix in="SourceAlpha" type="matrix" values="0 0 0 0 0 0 0 0 0 0 0 0 0 0 0 0 0 0 127 0" result="hardAlpha"/>
<feOffset dy="5.55493"/>
<feGaussianBlur stdDeviation="2.77746"/>
<feComposite in2="hardAlpha" operator="arithmetic" k2="-1" k3="1"/>
<feColorMatrix type="matrix" values="0 0 0 0 0.593333 0 0 0 0 0.89657 0 0 0 0 1 0 0 0 1 0"/>
<feBlend mode="normal" in2="shape" result="effect1_innerShadow_3_4098"/>
<feColorMatrix in="SourceAlpha" type="matrix" values="0 0 0 0 0 0 0 0 0 0 0 0 0 0 0 0 0 0 127 0" result="hardAlpha"/>
<feOffset dy="-8.33239"/>
<feGaussianBlur stdDeviation="2.77746"/>
<feComposite in2="hardAlpha" operator="arithmetic" k2="-1" k3="1"/>
<feColorMatrix type="matrix" values="0 0 0 0 0.0992855 0 0 0 0 0.683179 0 0 0 0 0.912969 0 0 0 1 0"/>
<feBlend mode="normal" in2="effect1_innerShadow_3_4098" result="effect2_innerShadow_3_4098"/>
<feColorMatrix in="SourceAlpha" type="matrix" values="0 0 0 0 0 0 0 0 0 0 0 0 0 0 0 0 0 0 127 0" result="hardAlpha"/>
<feOffset dx="-18.0535"/>
<feGaussianBlur stdDeviation="7.63803"/>
<feComposite in2="hardAlpha" operator="arithmetic" k2="-1" k3="1"/>
<feColorMatrix type="matrix" values="0 0 0 0 0.103226 0 0 0 0 0.679748 0 0 0 0 0.904167 0 0 0 1 0"/>
<feBlend mode="normal" in2="effect2_innerShadow_3_4098" result="effect3_innerShadow_3_4098"/>
</filter>
<filter id="filter4_iii_3_4098" x="410.728" y="269.658" width="95.4092" height="125.013" filterUnits="userSpaceOnUse" color-interpolation-filters="sRGB">
<feFlood flood-opacity="0" result="BackgroundImageFix"/>
<feBlend mode="normal" in="SourceGraphic" in2="BackgroundImageFix" result="shape"/>
<feColorMatrix in="SourceAlpha" type="matrix" values="0 0 0 0 0 0 0 0 0 0 0 0 0 0 0 0 0 0 127 0" result="hardAlpha"/>
<feOffset dy="5.55493"/>
<feGaussianBlur stdDeviation="2.77746"/>
<feComposite in2="hardAlpha" operator="arithmetic" k2="-1" k3="1"/>
<feColorMatrix type="matrix" values="0 0 0 0 0.593333 0 0 0 0 0.89657 0 0 0 0 1 0 0 0 1 0"/>
<feBlend mode="normal" in2="shape" result="effect1_innerShadow_3_4098"/>
<feColorMatrix in="SourceAlpha" type="matrix" values="0 0 0 0 0 0 0 0 0 0 0 0 0 0 0 0 0 0 127 0" result="hardAlpha"/>
<feOffset dy="-8.33239"/>
<feGaussianBlur stdDeviation="2.77746"/>
<feComposite in2="hardAlpha" operator="arithmetic" k2="-1" k3="1"/>
<feColorMatrix type="matrix" values="0 0 0 0 0.0992855 0 0 0 0 0.683179 0 0 0 0 0.912969 0 0 0 1 0"/>
<feBlend mode="normal" in2="effect1_innerShadow_3_4098" result="effect2_innerShadow_3_4098"/>
<feColorMatrix in="SourceAlpha" type="matrix" values="0 0 0 0 0 0 0 0 0 0 0 0 0 0 0 0 0 0 127 0" result="hardAlpha"/>
<feOffset dx="18.0535"/>
<feGaussianBlur stdDeviation="7.63803"/>
<feComposite in2="hardAlpha" operator="arithmetic" k2="-1" k3="1"/>
<feColorMatrix type="matrix" values="0 0 0 0 0.103226 0 0 0 0 0.679748 0 0 0 0 0.904167 0 0 0 1 0"/>
<feBlend mode="normal" in2="effect2_innerShadow_3_4098" result="effect3_innerShadow_3_4098"/>
</filter>
<filter id="filter5_ii_3_4098" x="35.1166" y="209.14" width="423.123" height="161.118" filterUnits="userSpaceOnUse" color-interpolation-filters="sRGB">
<feFlood flood-opacity="0" result="BackgroundImageFix"/>
<feBlend mode="normal" in="SourceGraphic" in2="BackgroundImageFix" result="shape"/>
<feColorMatrix in="SourceAlpha" type="matrix" values="0 0 0 0 0 0 0 0 0 0 0 0 0 0 0 0 0 0 127 0" result="hardAlpha"/>
<feOffset dy="5.55493"/>
<feGaussianBlur stdDeviation="2.77746"/>
<feComposite in2="hardAlpha" operator="arithmetic" k2="-1" k3="1"/>
<feColorMatrix type="matrix" values="0 0 0 0 0.593333 0 0 0 0 0.89657 0 0 0 0 1 0 0 0 1 0"/>
<feBlend mode="normal" in2="shape" result="effect1_innerShadow_3_4098"/>
<feColorMatrix in="SourceAlpha" type="matrix" values="0 0 0 0 0 0 0 0 0 0 0 0 0 0 0 0 0 0 127 0" result="hardAlpha"/>
<feOffset dy="-8.33239"/>
<feGaussianBlur stdDeviation="2.77746"/>
<feComposite in2="hardAlpha" operator="arithmetic" k2="-1" k3="1"/>
<feColorMatrix type="matrix" values="0 0 0 0 0.0992855 0 0 0 0 0.683179 0 0 0 0 0.912969 0 0 0 1 0"/>
<feBlend mode="normal" in2="effect1_innerShadow_3_4098" result="effect2_innerShadow_3_4098"/>
</filter>
<filter id="filter6_d_3_4098" x="66.9817" y="236.989" width="363.426" height="100.796" filterUnits="userSpaceOnUse" color-interpolation-filters="sRGB">
<feFlood flood-opacity="0" result="BackgroundImageFix"/>
<feColorMatrix in="SourceAlpha" type="matrix" values="0 0 0 0 0 0 0 0 0 0 0 0 0 0 0 0 0 0 127 0" result="hardAlpha"/>
<feOffset dy="5.55493"/>
<feGaussianBlur stdDeviation="2.77746"/>
<feComposite in2="hardAlpha" operator="out"/>
<feColorMatrix type="matrix" values="0 0 0 0 0.109804 0 0 0 0 0.709804 0 0 0 0 0.937255 0 0 0 1 0"/>
<feBlend mode="normal" in2="BackgroundImageFix" result="effect1_dropShadow_3_4098"/>
<feBlend mode="normal" in="SourceGraphic" in2="effect1_dropShadow_3_4098" result="shape"/>
</filter>
<linearGradient id="paint0_linear_3_4098" x1="245.97" y1="-3.05176e-05" x2="245.97" y2="325.673" gradientUnits="userSpaceOnUse">
<stop stop-color="#F779FC"/>
<stop offset="1" stop-color="#F64CFD"/>
</linearGradient>
<linearGradient id="paint1_linear_3_4098" x1="248.769" y1="-3.05176e-05" x2="248.769" y2="325.673" gradientUnits="userSpaceOnUse">
<stop stop-color="#45E30B"/>
<stop offset="1" stop-color="#3DDA07"/>
</linearGradient>
<radialGradient id="paint2_radial_3_4098" cx="0" cy="0" r="1" gradientUnits="userSpaceOnUse" gradientTransform="translate(235.827 168.604) rotate(90) scale(170.637 169.755)">
<stop offset="0.53125" stop-color="#F9F9F9"/>
<stop offset="1" stop-color="white" stop-opacity="0"/>
</radialGradient>
<linearGradient id="paint3_linear_3_4098" x1="45.8282" y1="277.188" x2="45.8282" y2="393.842" gradientUnits="userSpaceOnUse">
<stop stop-color="#61D5FC"/>
<stop offset="1" stop-color="#18BFFC"/>
</linearGradient>
<linearGradient id="paint4_linear_3_4098" x1="447.172" y1="274.411" x2="447.172" y2="391.064" gradientUnits="userSpaceOnUse">
<stop stop-color="#61D5FC"/>
<stop offset="1" stop-color="#18BFFC"/>
</linearGradient>
<linearGradient id="paint5_linear_3_4098" x1="246.5" y1="214.695" x2="246.5" y2="366.067" gradientUnits="userSpaceOnUse">
<stop stop-color="#61D5FC"/>
<stop offset="1" stop-color="#18BFFC"/>
</linearGradient>
</defs>
</svg>
