<svg xmlns="http://www.w3.org/2000/svg" width="118" height="58" fill="none" viewBox="0 0 118 58"><g filter="url(#filter0_d_176_7)" opacity=".7"><path fill="#FDF3E7" fill-rule="evenodd" d="M80.4234 51C80.495 50.9539 80.5742 50.91 80.6622 50.8696C81.7022 50.3913 82.3955 49.9131 82.5688 48.9566C82.7075 48.1913 82.8577 46.7247 82.9155 46.087C82.9155 47.0435 83.0542 49.1479 83.6088 49.9131C83.9441 50.3756 84.5074 50.745 85.0153 51H107.183L107.183 50.9998C107.356 50.9998 107.738 50.7128 107.876 49.565C108.015 48.4171 108.05 44.6229 108.05 42.8693C108.107 44.7824 108.223 48.9911 108.223 50.5215C108.362 50.9041 108.743 50.6809 108.916 50.5215V50.8419C110.127 50.4355 111 49.2913 111 47.9433V10.0567C111 8.36854 109.631 7 107.943 7H94.3839L94.1161 8.91324L93.5817 7H14.3413L14.7963 10.3477C14.4905 9.59772 13.9689 8.27429 13.5065 7H10.0567C8.36853 7 7 8.36854 7 10.0567V47.9433C7 49.0363 7.5737 49.9953 8.4364 50.5357C8.54594 50.2976 8.79498 50.2223 8.90305 50.5205C9.04172 50.9031 9.30749 47.4915 9.42305 45.7379V50.0422C9.52121 50.0422 9.60317 50.1171 9.61202 50.2149L9.68109 50.9772C9.80419 50.9922 9.92954 51 10.0567 51H26.2008L26.7555 47.1732L26.9278 50.5001L27.017 51H80.4234Z" clip-rule="evenodd"/></g><path fill="#1C1A24" fill-rule="evenodd" d="M79.9725 49.7237C80.0424 49.6804 80.1198 49.6392 80.2056 49.6013C81.2236 49.1507 81.9022 48.7002 82.0719 47.7991C82.2076 47.0783 82.3547 45.6966 82.4112 45.0959C82.4112 45.997 82.547 47.9793 83.0899 48.7002C83.4179 49.1357 83.9688 49.4835 84.4658 49.7237H106.17C106.342 49.7184 106.709 49.4429 106.844 48.3722C106.979 47.2909 107.013 43.7166 107.013 42.0647C107.07 43.8668 107.183 47.8315 107.183 49.2732C107.319 49.6337 107.692 49.4234 107.862 49.2732V49.5493C109.048 49.1293 109.898 47.9974 109.898 46.667V11.3311C109.898 9.64296 108.53 8.27442 106.841 8.27442H93.6351L93.3729 10.0772L92.8497 8.27442H15.2874L15.7329 11.4288C15.4335 10.7221 14.9228 9.47504 14.4701 8.27442H11.156C9.46778 8.27442 8.09924 9.64296 8.09924 11.3311V46.667C8.09924 47.7573 8.67014 48.7144 9.52933 49.2554C9.64409 49.0563 9.8647 49.0042 9.96572 49.2725C10.1015 49.6329 10.3616 46.4191 10.4747 44.7671V48.822C10.5709 48.822 10.6513 48.8951 10.6603 48.9909L10.7265 49.6938C10.8668 49.7135 11.0102 49.7237 11.156 49.7237H26.8978L27.4409 46.1185L27.6095 49.2525L27.6969 49.7237H79.9725Z" clip-rule="evenodd"/><defs><filter id="filter0_d_176_7" width="117.755" height="57.755" x=".122" y=".122" color-interpolation-filters="sRGB" filterUnits="userSpaceOnUse"><feFlood flood-opacity="0" result="BackgroundImageFix"/><feColorMatrix in="SourceAlpha" result="hardAlpha" type="matrix" values="0 0 0 0 0 0 0 0 0 0 0 0 0 0 0 0 0 0 127 0"/><feOffset/><feGaussianBlur stdDeviation="3.439"/><feComposite in2="hardAlpha" operator="out"/><feColorMatrix type="matrix" values="0 0 0 0 0 0 0 0 0 0 0 0 0 0 0 0 0 0 1 0"/><feBlend in2="BackgroundImageFix" mode="normal" result="effect1_dropShadow_176_7"/><feBlend in="SourceGraphic" in2="effect1_dropShadow_176_7" mode="normal" result="shape"/></filter></defs></svg>