<svg width="76" height="62" viewBox="0 0 76 62" fill="none" xmlns="http://www.w3.org/2000/svg">
<g filter="url(#filter0_iii_21_660)">
<path d="M35.278 1.91544C36.9118 0.972107 38.9249 0.972108 40.5588 1.91544L57.0174 11.4178C58.6513 12.3612 59.6578 14.1045 59.6578 15.9912V34.996C59.6578 36.8826 58.6513 38.626 57.0174 39.5693L40.5588 49.0717C38.9249 50.015 36.9118 50.015 35.2779 49.0717L18.8193 39.5693C17.1854 38.626 16.1789 36.8826 16.1789 34.996V15.9912C16.1789 14.1045 17.1854 12.3612 18.8193 11.4178L35.278 1.91544Z" fill="url(#paint0_linear_21_660)"/>
</g>
<g filter="url(#filter1_i_21_660)">
<path fill-rule="evenodd" clip-rule="evenodd" d="M41.4415 1.97841L56.4919 10.6764C58.669 11.9345 60.0098 14.2582 60.0098 16.7727V34.1776C60.0098 36.6921 58.669 39.0157 56.4919 40.2739L41.4415 48.9719C39.2616 50.2317 36.575 50.2317 34.3951 48.9719L19.3447 40.2739C17.1677 39.0158 15.8268 36.6921 15.8268 34.1776V16.7727C15.8268 14.2582 17.1677 11.9345 19.3447 10.6764L34.3951 1.97841C36.575 0.718623 39.2616 0.718622 41.4415 1.97841ZM40.5607 3.50248C38.9258 2.55764 36.9108 2.55764 35.2759 3.50248L20.2255 12.2004C18.5927 13.1441 17.5871 14.8868 17.5871 16.7727V34.1776C17.5871 36.0635 18.5927 37.8062 20.2255 38.7499L35.2759 47.4478C36.9108 48.3927 38.9258 48.3927 40.5607 47.4478L55.6111 38.7498C57.2439 37.8062 58.2496 36.0635 58.2496 34.1776V16.7727C58.2496 14.8868 57.2439 13.1441 55.6111 12.2004L40.5607 3.50248Z" fill="#FBD0FC"/>
</g>
<g opacity="0.4">
<mask id="mask0_21_660" style="mask-type:alpha" maskUnits="userSpaceOnUse" x="16" y="1" width="45" height="49">
<path d="M35.7093 1.91544C37.3432 0.972107 39.3563 0.972108 40.9902 1.91544L57.4488 11.4178C59.0827 12.3612 60.0892 14.1045 60.0892 15.9912V34.996C60.0892 36.8826 59.0827 38.626 57.4488 39.5693L40.9902 49.0717C39.3563 50.015 37.3432 50.015 35.7093 49.0717L19.2507 39.5693C17.6168 38.626 16.6103 36.8826 16.6103 34.996V15.9912C16.6103 14.1045 17.6168 12.3612 19.2507 11.4178L35.7093 1.91544Z" fill="url(#paint1_linear_21_660)"/>
</mask>
<g mask="url(#mask0_21_660)">
<path fill-rule="evenodd" clip-rule="evenodd" d="M18.0367 7.64262L35.9557 25.0103L27.9348 1.50049C28.0553 1.45896 28.1763 1.41829 28.2977 1.37848L34.0738 0.183411C34.6992 0.126022 35.3309 0.0905062 35.9682 0.0776367L37.0276 24.179L47.7287 2.57544C49.2605 3.2981 50.7114 4.16417 52.064 5.15633L39.8352 24.179L59.8894 14.2855C61.1764 16.7649 62.0806 19.4749 62.5237 22.3372L39.8352 26.1187L62.3937 31.2212C62.0541 33.0546 61.5245 34.8214 60.8261 36.5003L39.8352 27.5042L53.7325 46.3065C51.9082 47.8859 49.8647 49.2188 47.6536 50.2534L38.7268 28.6126L35.1702 52.6879C34.1603 52.6372 33.1655 52.5297 32.1887 52.3684L31.245 52.1662L37.0641 28.6126L19.187 46.2188C16.7484 44.0859 14.7068 41.5101 13.1878 38.6171L35.9557 27.5042H10.2084C10.1932 27.1369 10.1855 26.7677 10.1855 26.3968C10.1855 25.0127 10.2924 23.6535 10.4982 22.3271L35.9557 26.1187L14.0312 12.6899C15.158 10.8458 16.5055 9.15112 18.0367 7.64262Z" fill="url(#paint2_radial_21_660)" fill-opacity="0.5"/>
</g>
</g>
<g filter="url(#filter2_di_21_660)">
<path d="M36.2607 24.0609C34.7947 25.7825 36.5536 27.7576 38.8148 27.7576H39.0977C40.1153 27.7576 41.0245 26.8918 41.6742 26.1087C43.3196 24.1255 47.1598 22.0464 47.1598 17.4952C47.1598 12.4417 42.7283 9.72058 38.2968 9.72058C34.9144 9.72058 31.8664 11.106 29.8831 13.6335C28.9222 14.858 29.5194 16.5622 30.8702 17.3355C32.4642 18.248 34.3915 17.3389 35.9501 16.3672C36.5406 15.999 37.2384 15.7848 38.0636 15.7848C40.0461 15.7848 40.9402 16.6788 40.9402 18.0394C40.9402 20.3499 38.1026 21.8979 36.2607 24.0609ZM37.8303 38.02C39.8517 38.02 41.5233 36.3485 41.5233 34.3271C41.5233 32.3057 39.8517 30.6342 37.8303 30.6342C35.809 30.6342 34.1374 32.3057 34.1374 34.3271C34.1374 36.3485 35.809 38.02 37.8303 38.02Z" fill="#F8FDEE"/>
</g>
<g filter="url(#filter3_iii_21_660)">
<path d="M0.752561 45.8964C2.30439 44.9922 4.47316 43.7556 5.4284 43.2998C5.70531 43.1676 5.98147 43.2858 6.13411 43.5519L12.5729 54.7787C12.8274 55.2224 12.6224 55.7884 12.1428 55.9663L11.8417 56.0779C11.1968 56.3171 11.2237 57.2383 11.8814 57.4396C12.5597 57.6471 12.5595 58.6073 11.8812 58.8146L5.49538 60.7665C4.94503 60.9347 4.38873 60.523 4.38873 59.9476V53.7247C4.38873 53.5665 4.3449 53.4114 4.26209 53.2766L0.456531 47.0805C0.205772 46.6722 0.338575 46.1376 0.752561 45.8964Z" fill="url(#paint3_linear_21_660)"/>
</g>
<g filter="url(#filter4_iii_21_660)">
<path d="M75.2474 45.4684C73.6956 44.5642 71.5268 43.3276 70.5716 42.8718C70.2947 42.7396 70.0185 42.8578 69.8659 43.124L63.4271 54.3507C63.1726 54.7944 63.3776 55.3604 63.8572 55.5383L64.1583 55.65C64.8032 55.8891 64.7763 56.8103 64.1186 57.0116C63.4403 57.2191 63.4405 58.1793 64.1188 58.3867L70.5046 60.3385C71.055 60.5067 71.6113 60.0951 71.6113 59.5196V53.2968C71.6113 53.1385 71.6551 52.9834 71.7379 52.8486L75.5435 46.6525C75.7942 46.2442 75.6614 45.7096 75.2474 45.4684Z" fill="url(#paint4_linear_21_660)"/>
</g>
<g filter="url(#filter5_ii_21_660)">
<path d="M70.0911 39.4801C41.3068 28.7389 15.6947 34.8089 5.88052 39.4347C5.55561 39.5878 5.37728 39.9277 5.41973 40.2844C6.24729 47.2375 8.25137 53.2712 9.41871 56.0813C9.59315 56.5013 10.076 56.6912 10.501 56.5296C34.1418 47.5433 56.6246 52.6054 65.6284 56.5394C66.0013 56.7024 66.4346 56.5902 66.6577 56.2498C69.6738 51.647 70.5583 44.0991 70.6413 40.2771C70.649 39.9217 70.4242 39.6044 70.0911 39.4801Z" fill="url(#paint5_linear_21_660)"/>
</g>
<g filter="url(#filter6_d_21_660)">
<path d="M13.8775 49.8852C13.7637 49.9171 13.6455 49.8507 13.6136 49.7369L11.1901 41.088C11.1582 40.9742 11.2247 40.856 11.3385 40.8241L17.7153 39.0373C17.8292 39.0054 17.9473 39.0718 17.9792 39.1856L18.5648 41.2753C18.5967 41.3892 18.5303 41.5073 18.4164 41.5392L15.1772 42.4469C15.0633 42.4788 14.9969 42.5969 15.0288 42.7108L15.1293 43.0694C15.1612 43.1832 15.2793 43.2497 15.3932 43.2177L17.821 42.5375C17.9348 42.5056 18.053 42.572 18.0849 42.6858L18.6628 44.7485C18.6947 44.8623 18.6283 44.9805 18.5145 45.0124L16.0867 45.6927C15.9728 45.7246 15.9064 45.8427 15.9383 45.9566L16.0502 46.3557C16.0821 46.4696 16.2002 46.536 16.3141 46.5041L19.5533 45.5964C19.6671 45.5645 19.7853 45.631 19.8172 45.7448L20.4027 47.8345C20.4346 47.9483 20.3682 48.0665 20.2544 48.0984L13.8775 49.8852Z" fill="white"/>
<path d="M25.0529 44.9706C25.0174 44.8765 24.9212 44.8198 24.8218 44.8344L24.4118 44.8942C24.2948 44.9112 24.2138 45.0199 24.2308 45.1369L24.5198 47.1176C24.5369 47.2346 24.4558 47.3432 24.3388 47.3603L21.5382 47.7689C21.4212 47.7859 21.3125 47.7049 21.2955 47.5879L19.9989 38.7C19.9818 38.583 20.0628 38.4743 20.1798 38.4573L23.8872 37.9164C25.3233 37.7069 26.3869 37.7978 27.078 38.189C27.7677 38.571 28.2071 39.4106 28.3964 40.7077C28.5743 41.9271 28.3969 42.8633 27.8644 43.5162C27.81 43.5828 27.7945 43.6743 27.8301 43.7527L29.033 46.399C29.092 46.5288 29.0101 46.6789 28.869 46.6994L26.0414 47.1119C25.9419 47.1265 25.8457 47.0698 25.8102 46.9757L25.0529 44.9706ZM24.6072 42.2682C25.0612 42.202 25.2443 41.8678 25.1564 41.2655C25.0672 40.654 24.7678 40.3854 24.2582 40.4598L23.7613 40.5323C23.6443 40.5493 23.5633 40.658 23.5803 40.775L23.7841 42.1719C23.8012 42.2889 23.9099 42.3699 24.0269 42.3529L24.6072 42.2682Z" fill="white"/>
<path d="M34.3222 44.1045C34.2971 44.0071 34.2077 43.9403 34.1072 43.9438L33.6932 43.9585C33.575 43.9627 33.4826 44.0619 33.4868 44.1801L33.5578 46.1804C33.562 46.2986 33.4696 46.3978 33.3515 46.402L30.523 46.5024C30.4048 46.5066 30.3056 46.4142 30.3014 46.296L29.9828 37.3197C29.9786 37.2015 30.071 37.1023 30.1892 37.0981L33.9334 36.9652C35.3839 36.9138 36.4312 37.1202 37.0754 37.5845C37.7193 38.0395 38.0645 38.922 38.111 40.2321C38.1547 41.4636 37.8762 42.3748 37.2756 42.9657C37.2142 43.026 37.1889 43.1153 37.2157 43.197L38.1225 45.9589C38.167 46.0943 38.0692 46.2345 37.9267 46.2396L35.0709 46.3409C34.9704 46.3445 34.881 46.2777 34.856 46.1803L34.3222 44.1045ZM34.1741 41.3696C34.6326 41.3533 34.8511 41.0411 34.8295 40.4328C34.8076 39.8153 34.5393 39.5156 34.0246 39.5339L33.5227 39.5517C33.4046 39.5559 33.3122 39.6551 33.3164 39.7732L33.3664 41.1841C33.3706 41.3022 33.4698 41.3946 33.588 41.3904L34.1741 41.3696Z" fill="white"/>
<path d="M39.3724 46.1753C39.2359 46.1658 39.1432 46.0324 39.1819 45.9012L41.7834 37.0782C41.8118 36.9819 41.9034 36.9182 42.0036 36.9252L46.5792 37.2429C46.6791 37.2498 46.7608 37.3251 46.776 37.424L48.1732 46.5246C48.194 46.6603 48.0837 46.7802 47.9468 46.7707L45.1025 46.5732C45.0042 46.5664 44.9233 46.4934 44.9064 46.3964L44.7727 45.6294C44.7558 45.5324 44.6749 45.4594 44.5766 45.4526L42.7739 45.3274C42.6727 45.3204 42.5805 45.3854 42.553 45.483L42.3482 46.211C42.3208 46.3086 42.2285 46.3736 42.1273 46.3666L39.3724 46.1753ZM44.1272 39.635C44.0267 39.628 43.9359 39.695 43.9129 39.7931L43.2502 42.6195C43.22 42.748 43.3121 42.8728 43.4438 42.882L44.3309 42.9436C44.4618 42.9527 44.57 42.8429 44.5591 42.7122L44.3178 39.8229C44.3093 39.7218 44.2284 39.642 44.1272 39.635Z" fill="white"/>
<path d="M50.0576 40.2228C49.9412 40.2019 49.8638 40.0907 49.8847 39.9743L50.2774 37.7829C50.2983 37.6665 50.4095 37.5891 50.5259 37.6099L57.0168 38.7732C57.1332 38.7941 57.2106 38.9053 57.1898 39.0217L56.797 41.2131C56.7762 41.3295 56.6649 41.4069 56.5485 41.3861L55.1728 41.1395C55.0564 41.1187 54.9452 41.1961 54.9243 41.3125L53.8081 47.5407C53.7872 47.6571 53.676 47.7345 53.5596 47.7137L50.7737 47.2144C50.6573 47.1936 50.5799 47.0823 50.6008 46.9659L51.717 40.7377C51.7378 40.6213 51.6604 40.51 51.544 40.4892L50.0576 40.2228Z" fill="white"/>
<path d="M56.1753 48.0663C56.0453 48.0238 55.988 47.8718 56.0576 47.754L60.7371 39.8347C60.7882 39.7482 60.8925 39.7089 60.988 39.7401L65.3471 41.1668C65.4422 41.1979 65.5031 41.2908 65.4936 41.3905L64.6237 50.5566C64.6107 50.6932 64.4744 50.7825 64.344 50.7398L61.6343 49.853C61.5407 49.8223 61.48 49.7318 61.4874 49.6336L61.5452 48.8572C61.5525 48.759 61.4919 48.6684 61.3983 48.6378L59.6809 48.0757C59.5845 48.0442 59.4792 48.0846 59.4287 48.1726L59.0521 48.8284C59.0016 48.9164 58.8963 48.9569 58.7999 48.9253L56.1753 48.0663ZM62.3847 42.8869C62.289 42.8555 62.1846 42.8983 62.1383 42.9878L60.8047 45.5664C60.7441 45.6836 60.8029 45.8272 60.9283 45.8683L61.7734 46.1449C61.8981 46.1857 62.0298 46.1057 62.0512 45.9763L62.5236 43.1157C62.5401 43.0156 62.4811 42.9184 62.3847 42.8869Z" fill="white"/>
</g>
<defs>
<filter id="filter0_iii_21_660" x="13.6717" y="-0.829167" width="47.2398" height="52.5447" filterUnits="userSpaceOnUse" color-interpolation-filters="sRGB">
<feFlood flood-opacity="0" result="BackgroundImageFix"/>
<feBlend mode="normal" in="SourceGraphic" in2="BackgroundImageFix" result="shape"/>
<feColorMatrix in="SourceAlpha" type="matrix" values="0 0 0 0 0 0 0 0 0 0 0 0 0 0 0 0 0 0 127 0" result="hardAlpha"/>
<feOffset dx="1.25361" dy="1.93631"/>
<feGaussianBlur stdDeviation="1.05617"/>
<feComposite in2="hardAlpha" operator="arithmetic" k2="-1" k3="1"/>
<feColorMatrix type="matrix" values="0 0 0 0 0.937255 0 0 0 0 0.329412 0 0 0 0 0.984314 0 0 0 0.35 0"/>
<feBlend mode="normal" in2="shape" result="effect1_innerShadow_21_660"/>
<feColorMatrix in="SourceAlpha" type="matrix" values="0 0 0 0 0 0 0 0 0 0 0 0 0 0 0 0 0 0 127 0" result="hardAlpha"/>
<feOffset dy="-2.03711"/>
<feGaussianBlur stdDeviation="2.35052"/>
<feComposite in2="hardAlpha" operator="arithmetic" k2="-1" k3="1"/>
<feColorMatrix type="matrix" values="0 0 0 0 0.89307 0 0 0 0 0.493233 0 0 0 0 0.929167 0 0 0 1 0"/>
<feBlend mode="normal" in2="effect1_innerShadow_21_660" result="effect2_innerShadow_21_660"/>
<feColorMatrix in="SourceAlpha" type="matrix" values="0 0 0 0 0 0 0 0 0 0 0 0 0 0 0 0 0 0 127 0" result="hardAlpha"/>
<feOffset dx="-2.50722" dy="0.626804"/>
<feGaussianBlur stdDeviation="1.41031"/>
<feComposite in2="hardAlpha" operator="arithmetic" k2="-1" k3="1"/>
<feColorMatrix type="matrix" values="0 0 0 0 0.958134 0 0 0 0 0.376667 0 0 0 0 1 0 0 0 1 0"/>
<feBlend mode="normal" in2="effect2_innerShadow_21_660" result="effect3_innerShadow_21_660"/>
</filter>
<filter id="filter1_i_21_660" x="15.8268" y="1.03357" width="44.1831" height="49.5873" filterUnits="userSpaceOnUse" color-interpolation-filters="sRGB">
<feFlood flood-opacity="0" result="BackgroundImageFix"/>
<feBlend mode="normal" in="SourceGraphic" in2="BackgroundImageFix" result="shape"/>
<feColorMatrix in="SourceAlpha" type="matrix" values="0 0 0 0 0 0 0 0 0 0 0 0 0 0 0 0 0 0 127 0" result="hardAlpha"/>
<feOffset dy="0.704113"/>
<feGaussianBlur stdDeviation="0.352056"/>
<feComposite in2="hardAlpha" operator="arithmetic" k2="-1" k3="1"/>
<feColorMatrix type="matrix" values="0 0 0 0 0.992157 0 0 0 0 0.92549 0 0 0 0 0.992157 0 0 0 1 0"/>
<feBlend mode="normal" in2="shape" result="effect1_innerShadow_21_660"/>
</filter>
<filter id="filter2_di_21_660" x="29.0023" y="8.96668" width="19.3858" height="30.6911" filterUnits="userSpaceOnUse" color-interpolation-filters="sRGB">
<feFlood flood-opacity="0" result="BackgroundImageFix"/>
<feColorMatrix in="SourceAlpha" type="matrix" values="0 0 0 0 0 0 0 0 0 0 0 0 0 0 0 0 0 0 127 0" result="hardAlpha"/>
<feOffset dx="0.409431" dy="0.818862"/>
<feGaussianBlur stdDeviation="0.409431"/>
<feComposite in2="hardAlpha" operator="out"/>
<feColorMatrix type="matrix" values="0 0 0 0 0.90598 0 0 0 0 0.342924 0 0 0 0 0.941667 0 0 0 1 0"/>
<feBlend mode="normal" in2="BackgroundImageFix" result="effect1_dropShadow_21_660"/>
<feBlend mode="normal" in="SourceGraphic" in2="effect1_dropShadow_21_660" result="shape"/>
<feColorMatrix in="SourceAlpha" type="matrix" values="0 0 0 0 0 0 0 0 0 0 0 0 0 0 0 0 0 0 127 0" result="hardAlpha"/>
<feOffset dy="-0.942373"/>
<feGaussianBlur stdDeviation="0.376949"/>
<feComposite in2="hardAlpha" operator="arithmetic" k2="-1" k3="1"/>
<feColorMatrix type="matrix" values="0 0 0 0 0.980392 0 0 0 0 0.74902 0 0 0 0 0.988235 0 0 0 1 0"/>
<feBlend mode="normal" in2="shape" result="effect2_innerShadow_21_660"/>
</filter>
<filter id="filter3_iii_21_660" x="-2.02516" y="42.3891" width="14.7081" height="19.2717" filterUnits="userSpaceOnUse" color-interpolation-filters="sRGB">
<feFlood flood-opacity="0" result="BackgroundImageFix"/>
<feBlend mode="normal" in="SourceGraphic" in2="BackgroundImageFix" result="shape"/>
<feColorMatrix in="SourceAlpha" type="matrix" values="0 0 0 0 0 0 0 0 0 0 0 0 0 0 0 0 0 0 127 0" result="hardAlpha"/>
<feOffset dy="0.856338"/>
<feGaussianBlur stdDeviation="0.428169"/>
<feComposite in2="hardAlpha" operator="arithmetic" k2="-1" k3="1"/>
<feColorMatrix type="matrix" values="0 0 0 0 0.593333 0 0 0 0 0.89657 0 0 0 0 1 0 0 0 1 0"/>
<feBlend mode="normal" in2="shape" result="effect1_innerShadow_21_660"/>
<feColorMatrix in="SourceAlpha" type="matrix" values="0 0 0 0 0 0 0 0 0 0 0 0 0 0 0 0 0 0 127 0" result="hardAlpha"/>
<feOffset dy="-1.28451"/>
<feGaussianBlur stdDeviation="0.428169"/>
<feComposite in2="hardAlpha" operator="arithmetic" k2="-1" k3="1"/>
<feColorMatrix type="matrix" values="0 0 0 0 0.0992855 0 0 0 0 0.683179 0 0 0 0 0.912969 0 0 0 1 0"/>
<feBlend mode="normal" in2="effect1_innerShadow_21_660" result="effect2_innerShadow_21_660"/>
<feColorMatrix in="SourceAlpha" type="matrix" values="0 0 0 0 0 0 0 0 0 0 0 0 0 0 0 0 0 0 127 0" result="hardAlpha"/>
<feOffset dx="-2.7831"/>
<feGaussianBlur stdDeviation="1.17746"/>
<feComposite in2="hardAlpha" operator="arithmetic" k2="-1" k3="1"/>
<feColorMatrix type="matrix" values="0 0 0 0 0.103226 0 0 0 0 0.679748 0 0 0 0 0.904167 0 0 0 1 0"/>
<feBlend mode="normal" in2="effect2_innerShadow_21_660" result="effect3_innerShadow_21_660"/>
</filter>
<filter id="filter4_iii_21_660" x="63.317" y="41.9611" width="14.7082" height="19.2717" filterUnits="userSpaceOnUse" color-interpolation-filters="sRGB">
<feFlood flood-opacity="0" result="BackgroundImageFix"/>
<feBlend mode="normal" in="SourceGraphic" in2="BackgroundImageFix" result="shape"/>
<feColorMatrix in="SourceAlpha" type="matrix" values="0 0 0 0 0 0 0 0 0 0 0 0 0 0 0 0 0 0 127 0" result="hardAlpha"/>
<feOffset dy="0.856338"/>
<feGaussianBlur stdDeviation="0.428169"/>
<feComposite in2="hardAlpha" operator="arithmetic" k2="-1" k3="1"/>
<feColorMatrix type="matrix" values="0 0 0 0 0.593333 0 0 0 0 0.89657 0 0 0 0 1 0 0 0 1 0"/>
<feBlend mode="normal" in2="shape" result="effect1_innerShadow_21_660"/>
<feColorMatrix in="SourceAlpha" type="matrix" values="0 0 0 0 0 0 0 0 0 0 0 0 0 0 0 0 0 0 127 0" result="hardAlpha"/>
<feOffset dy="-1.28451"/>
<feGaussianBlur stdDeviation="0.428169"/>
<feComposite in2="hardAlpha" operator="arithmetic" k2="-1" k3="1"/>
<feColorMatrix type="matrix" values="0 0 0 0 0.0992855 0 0 0 0 0.683179 0 0 0 0 0.912969 0 0 0 1 0"/>
<feBlend mode="normal" in2="effect1_innerShadow_21_660" result="effect2_innerShadow_21_660"/>
<feColorMatrix in="SourceAlpha" type="matrix" values="0 0 0 0 0 0 0 0 0 0 0 0 0 0 0 0 0 0 127 0" result="hardAlpha"/>
<feOffset dx="2.7831"/>
<feGaussianBlur stdDeviation="1.17746"/>
<feComposite in2="hardAlpha" operator="arithmetic" k2="-1" k3="1"/>
<feColorMatrix type="matrix" values="0 0 0 0 0.103226 0 0 0 0 0.679748 0 0 0 0 0.904167 0 0 0 1 0"/>
<feBlend mode="normal" in2="effect2_innerShadow_21_660" result="effect3_innerShadow_21_660"/>
</filter>
<filter id="filter5_ii_21_660" x="5.41351" y="32.6318" width="65.228" height="24.8377" filterUnits="userSpaceOnUse" color-interpolation-filters="sRGB">
<feFlood flood-opacity="0" result="BackgroundImageFix"/>
<feBlend mode="normal" in="SourceGraphic" in2="BackgroundImageFix" result="shape"/>
<feColorMatrix in="SourceAlpha" type="matrix" values="0 0 0 0 0 0 0 0 0 0 0 0 0 0 0 0 0 0 127 0" result="hardAlpha"/>
<feOffset dy="0.856338"/>
<feGaussianBlur stdDeviation="0.428169"/>
<feComposite in2="hardAlpha" operator="arithmetic" k2="-1" k3="1"/>
<feColorMatrix type="matrix" values="0 0 0 0 0.593333 0 0 0 0 0.89657 0 0 0 0 1 0 0 0 1 0"/>
<feBlend mode="normal" in2="shape" result="effect1_innerShadow_21_660"/>
<feColorMatrix in="SourceAlpha" type="matrix" values="0 0 0 0 0 0 0 0 0 0 0 0 0 0 0 0 0 0 127 0" result="hardAlpha"/>
<feOffset dy="-1.28451"/>
<feGaussianBlur stdDeviation="0.428169"/>
<feComposite in2="hardAlpha" operator="arithmetic" k2="-1" k3="1"/>
<feColorMatrix type="matrix" values="0 0 0 0 0.0992855 0 0 0 0 0.683179 0 0 0 0 0.912969 0 0 0 1 0"/>
<feBlend mode="normal" in2="effect1_innerShadow_21_660" result="effect2_innerShadow_21_660"/>
</filter>
<filter id="filter6_d_21_660" x="10.3258" y="36.9247" width="56.0252" height="15.5385" filterUnits="userSpaceOnUse" color-interpolation-filters="sRGB">
<feFlood flood-opacity="0" result="BackgroundImageFix"/>
<feColorMatrix in="SourceAlpha" type="matrix" values="0 0 0 0 0 0 0 0 0 0 0 0 0 0 0 0 0 0 127 0" result="hardAlpha"/>
<feOffset dy="0.856338"/>
<feGaussianBlur stdDeviation="0.428169"/>
<feComposite in2="hardAlpha" operator="out"/>
<feColorMatrix type="matrix" values="0 0 0 0 0.109804 0 0 0 0 0.709804 0 0 0 0 0.937255 0 0 0 1 0"/>
<feBlend mode="normal" in2="BackgroundImageFix" result="effect1_dropShadow_21_660"/>
<feBlend mode="normal" in="SourceGraphic" in2="effect1_dropShadow_21_660" result="shape"/>
</filter>
<linearGradient id="paint0_linear_21_660" x1="37.9184" y1="0.390991" x2="37.9184" y2="50.5962" gradientUnits="userSpaceOnUse">
<stop stop-color="#F779FC"/>
<stop offset="1" stop-color="#F64CFD"/>
</linearGradient>
<linearGradient id="paint1_linear_21_660" x1="38.3498" y1="0.390991" x2="38.3498" y2="50.5962" gradientUnits="userSpaceOnUse">
<stop stop-color="#45E30B"/>
<stop offset="1" stop-color="#3DDA07"/>
</linearGradient>
<radialGradient id="paint2_radial_21_660" cx="0" cy="0" r="1" gradientUnits="userSpaceOnUse" gradientTransform="translate(36.3546 26.3828) rotate(90) scale(26.3051 26.1691)">
<stop offset="0.53125" stop-color="#F9F9F9"/>
<stop offset="1" stop-color="white" stop-opacity="0"/>
</radialGradient>
<linearGradient id="paint3_linear_21_660" x1="7.06479" y1="43.1216" x2="7.06479" y2="61.1047" gradientUnits="userSpaceOnUse">
<stop stop-color="#61D5FC"/>
<stop offset="1" stop-color="#18BFFC"/>
</linearGradient>
<linearGradient id="paint4_linear_21_660" x1="68.9352" y1="42.6937" x2="68.9352" y2="60.6768" gradientUnits="userSpaceOnUse">
<stop stop-color="#61D5FC"/>
<stop offset="1" stop-color="#18BFFC"/>
</linearGradient>
<linearGradient id="paint5_linear_21_660" x1="38" y1="33.4881" x2="38" y2="56.8233" gradientUnits="userSpaceOnUse">
<stop stop-color="#61D5FC"/>
<stop offset="1" stop-color="#18BFFC"/>
</linearGradient>
</defs>
</svg>
