<svg xmlns="http://www.w3.org/2000/svg" width="88" height="88" fill="none" viewBox="0 0 88 88"><mask id="mask0_32_3749" width="88" height="88" x="0" y="0" maskUnits="userSpaceOnUse" style="mask-type:alpha"><path fill="#FDF3E7" fill-rule="evenodd" d="M44.1895 87.9996C68.4028 87.8975 88 68.2373 88 44C88 33.682 84.4485 24.1934 78.5012 16.6902L78.0176 18.3525L74.9495 13.067L75.6854 13.4707C67.682 5.16611 56.4443 0 44 0C30.3185 0 18.0954 6.24443 10.0254 16.0387L11.267 20.4346C10.6769 19.7382 9.78835 18.6602 8.8739 17.4976C3.3036 24.8689 0 34.0487 0 44C0 53.3394 2.90978 61.9992 7.87221 69.1222C8.93349 68.1795 10.448 66.6285 11.3929 65.6249L8.38601 69.8441C16.1955 80.5872 28.7473 87.6603 42.9663 87.9881L43.8667 84.9997L44.1895 87.9996Z" clip-rule="evenodd"/></mask><g mask="url(#mask0_32_3749)"><path fill="#FDF2E4" fill-rule="evenodd" d="M44.1895 87.9996C68.4028 87.8975 88 68.2373 88 44C88 33.682 84.4485 24.1934 78.5012 16.6902L78.0176 18.3525L74.9495 13.067L75.6854 13.4707C67.682 5.16611 56.4443 0 44 0C30.3185 0 18.0954 6.24443 10.0254 16.0387L11.267 20.4346C10.6769 19.7382 9.78835 18.6602 8.8739 17.4976C3.3036 24.8689 0 34.0487 0 44C0 53.3394 2.90978 61.9992 7.87221 69.1222C8.93349 68.1795 10.448 66.6285 11.3929 65.6249L8.38601 69.8441C16.1955 80.5872 28.7473 87.6603 42.9663 87.9881L43.8667 84.9997L44.1895 87.9996Z" clip-rule="evenodd"/><path fill="#4D3423" fill-opacity=".15" d="M27.998 21.9502L35.0983 23.3471C35.0983 23.3471 36.3155 39.0154 35.7829 39.644C35.2504 40.2726 35.3265 57.4541 34.9715 57.9198C34.6418 58.3854 28.3277 58.9209 29.8492 53.0773C29.8999 52.8677 24.8536 46.7913 24.6 46.2559C24.3464 45.7204 27.998 21.9502 27.998 21.9502Z"/><path fill="#4D3423" fill-opacity=".15" d="M53.686 21.9502L60.7863 23.3471C60.7863 23.3471 62.0035 39.0154 61.4709 39.644C60.9384 40.2726 60.8116 59.9685 60.4566 60.4342C60.127 60.8998 53.0774 60.4574 55.5371 53.054C55.6132 52.8445 50.5416 46.768 50.288 46.2326C50.0344 45.6971 53.686 21.9502 53.686 21.9502Z"/><path fill="#4D3423" fill-opacity=".15" d="M85.9419 62.6441C84.0654 60.1297 77.0665 58.9191 77.0665 58.9191L55.5882 57.2195V43.8095L44.0249 50.2119L32.4617 43.8095V56.4978L10.9833 58.9191C10.9833 58.9191 3.95915 60.1297 2.10801 62.6441C0.231512 65.1584 -2 79.5928 -2 79.5928H43.9235H44.0757H89.9992C90.0499 79.5928 87.793 65.1584 85.9419 62.6441Z"/><g filter="url(#filter0_d_32_3749)"><path fill="#4D3423" fill-opacity=".15" d="M53.61 13.4981C44.5825 12.0081 44.0753 15.3141 44.0753 15.3141C44.05 15.3374 44.05 15.6633 44.05 16.1988C44.05 15.6633 44.0246 15.3374 44.0246 15.3141C44.0246 15.3141 43.5175 12.0081 34.49 13.4981C25.4625 14.9881 27.9476 27.3971 27.9476 27.3971C27.9476 27.3971 29.1901 38.9446 32.6896 44.9279C36.189 50.9112 44.0246 51.3535 44.0246 51.3535H44.1007C44.1007 51.3535 51.9363 50.9344 55.4358 44.9279C58.9352 38.9446 60.1777 27.3971 60.1777 27.3971C60.1777 27.3971 62.6375 14.9881 53.61 13.4981Z" shape-rendering="crispEdges"/></g><path fill="#4D3423" fill-opacity=".15" d="M53.61 13.4981C44.5825 12.0081 44.0753 15.3141 44.0753 15.3141C44.05 15.3374 44.05 15.6633 44.05 16.1988C44.05 15.6633 44.0246 15.3374 44.0246 15.3141C44.0246 15.3141 43.5175 12.0081 34.49 13.4981C25.4625 14.9881 27.9476 27.3971 27.9476 27.3971C27.9476 27.3971 28.4294 31.9602 29.6719 36.826C30.027 32.7052 30.6102 29.9114 30.6102 29.9114H34.0589L35.4536 21.4371V29.9114H44.0246H52.5957V21.4371L53.9903 29.9114H57.4391C57.4391 29.9114 58.0476 32.9147 58.4027 37.2683C59.7213 32.2396 60.2284 27.3971 60.2284 27.3971C60.2284 27.3971 62.6375 14.9881 53.61 13.4981Z" opacity=".6"/><path fill="#4D3423" fill-opacity=".15" d="M43.9481 28.4441H35.0982V19.6671L33.6528 28.4208H30.1026C30.1026 28.4208 24.5746 55.0313 37.0254 65.7174C37.0254 65.7174 19.1986 61.8993 18.8436 48.2332C18.4886 34.5671 21.3794 12.4266 30.2548 7.58408C39.1301 2.76486 43.9481 6.16392 43.9481 6.16392V28.4441Z"/><path fill="#4D3423" fill-opacity=".15" d="M43.9482 28.4441H52.7982V19.6671L54.2436 28.4208H57.7938C57.7938 28.4208 63.3218 55.0313 50.871 65.7174C50.871 65.7174 67.9877 61.3638 68.3174 47.6744C68.647 34.0083 66.5169 12.4033 57.6416 7.58408C48.7663 2.76486 43.9482 6.16392 43.9482 6.16392V28.4441Z"/><path fill="#000" d="M29.336 24.7935L35.795 26.1776C35.795 26.1776 36.9023 41.7023 36.4179 42.3252C35.9334 42.948 36.0026 59.9722 35.6797 60.4335C35.3798 60.8949 29.6359 61.4255 31.02 55.6354C31.0661 55.4278 26.4756 49.407 26.2449 48.8765C26.0142 48.3459 29.336 24.7935 29.336 24.7935Z"/><path fill="#000" d="M52.7037 24.7935L59.1627 26.1776C59.1627 26.1776 60.27 41.7023 59.7855 42.3252C59.3011 42.948 59.1858 62.4635 58.8628 62.9249C58.5629 63.3862 52.15 62.948 54.3876 55.6123C54.4568 55.4047 49.8432 49.384 49.6126 48.8534C49.3819 48.3228 52.7037 24.7935 52.7037 24.7935Z"/><path fill="#D99B7C" d="M82.0467 65.1159C80.3397 62.6245 73.9729 61.425 73.9729 61.425L54.4343 59.741V46.4538L43.9153 52.7975L33.3963 46.4538V59.0259L13.8577 61.425C13.8577 61.425 7.46785 62.6245 5.78389 65.1159C4.07686 67.6072 2.04688 81.9094 2.04688 81.9094H43.823H43.9614H85.7376C85.7837 81.9094 83.7307 67.6072 82.0467 65.1159Z"/><path fill="#FD8D41" d="M24.594 60C24.594 60 30.4071 78.5467 43.0945 79.8615V88.2583H9C9 88.2583 15.9665 74.256 13.9596 61.3379C13.9596 61.3379 21.2952 60 24.594 60Z"/><path fill="#FD8D41" d="M61.5953 60C61.5953 60 55.7821 78.5467 43.0947 79.8615V88.2583H77.1892C77.1892 88.2583 70.2227 74.256 72.2296 61.3379C72.2296 61.3379 64.9171 60 61.5953 60Z"/><g filter="url(#filter1_d_32_3749)"><path fill="#E3AA8D" d="M52.6347 16.4199C44.4225 14.9436 43.9611 18.2192 43.9611 18.2192C43.9381 18.2423 43.9381 18.5652 43.9381 19.0958C43.9381 18.5652 43.915 18.2423 43.915 18.2192C43.915 18.2192 43.4536 14.9436 35.2414 16.4199C27.0292 17.8963 29.2899 30.1915 29.2899 30.1915C29.2899 30.1915 30.4202 41.6332 33.6036 47.5617C36.787 53.4902 43.915 53.9285 43.915 53.9285H43.9842C43.9842 53.9285 51.1122 53.5133 54.2956 47.5617C57.479 41.6332 58.6093 30.1915 58.6093 30.1915C58.6093 30.1915 60.8469 17.8963 52.6347 16.4199Z"/></g><ellipse cx="49.5" cy="36.5" fill="#000" rx="2.5" ry="1.5"/><ellipse cx="38.5" cy="36.5" fill="#000" rx="2.5" ry="1.5"/><path fill="#E3AA8D" d="M52.6347 16.4199C44.4225 14.9436 43.9611 18.2192 43.9611 18.2192C43.9381 18.2423 43.9381 18.5652 43.9381 19.0958C43.9381 18.5652 43.915 18.2423 43.915 18.2192C43.915 18.2192 43.4536 14.9436 35.2414 16.4199C27.0292 17.8963 29.2899 30.1915 29.2899 30.1915C29.2899 30.1915 29.7282 34.7128 30.8585 39.5341C31.1815 35.451 31.712 32.6829 31.712 32.6829H34.8493L36.118 24.2861V32.6829H43.915H51.712V24.2861L52.9807 32.6829H56.118C56.118 32.6829 56.6716 35.6586 56.9946 39.9723C58.1941 34.9897 58.6555 30.1915 58.6555 30.1915C58.6555 30.1915 60.8469 17.8963 52.6347 16.4199Z" opacity=".6"/><path fill="#000" d="M43.8634 31.2293H35.8127V22.5327L34.4978 31.2063H31.2683C31.2683 31.2063 26.2395 57.573 37.5659 68.1612C37.5659 68.1612 21.3491 64.378 21.0261 50.8371C20.7031 37.2962 23.3329 15.3585 31.4067 10.5604C39.4805 5.78533 43.8634 9.15325 43.8634 9.15325V31.2293Z"/><path fill="#000" d="M43.8633 31.2293H51.914V22.5327L53.2289 31.2063H56.4584C56.4584 31.2063 61.4872 57.573 50.1608 68.1612C50.1608 68.1612 65.7317 63.8475 66.0316 50.2835C66.3315 36.7426 64.3938 15.3355 56.32 10.5604C48.2462 5.78533 43.8633 9.15325 43.8633 9.15325V31.2293Z"/><path fill="#FD8D41" d="M37.9589 21.2296C37.8987 21.2375 37.8384 21.2454 37.7782 21.2534C37.152 21.152 36.5257 21.0505 35.8916 20.8889C35.5745 20.8081 35.3462 20.4704 35.427 20.1533C35.5078 19.8362 35.8455 19.6079 36.1626 19.6888C36.7286 19.7981 37.3548 19.8995 37.981 20.0009C38.2981 20.0817 38.5185 20.3592 38.4979 20.6683C38.4773 20.9775 38.2601 21.1899 37.9589 21.2296ZM34.3062 20.4848C34.2459 20.4927 34.1255 20.5086 34.0573 20.4562C33.4231 20.2946 32.8492 20.125 32.2071 19.9031C31.89 19.8223 31.722 19.4767 31.8028 19.1596C31.8836 18.8425 32.2292 18.6745 32.5463 18.7553C33.1202 18.9249 33.6941 19.0945 34.3283 19.2561C34.6454 19.3369 34.8737 19.6746 34.7326 19.9996C34.7643 20.2406 34.5472 20.453 34.3062 20.4848ZM30.7184 19.3024C30.5979 19.3183 30.5377 19.3262 30.4093 19.2818C29.8274 19.052 29.2456 18.8221 28.6558 18.5321C28.3308 18.391 28.2229 18.0375 28.364 17.7125C28.5051 17.3875 28.8586 17.2796 29.1836 17.4207C29.7655 17.6505 30.2871 17.8883 30.8689 18.1181C31.1939 18.2592 31.362 18.6048 31.2209 18.9298C31.1243 19.1264 30.9594 19.2707 30.7184 19.3024ZM27.332 17.7871C27.2115 17.8029 27.083 17.7586 26.9546 17.7142C26.3649 17.4241 27.2739 17.917 26.7364 17.5588C26.4717 17.4098 26.3559 16.996 26.5049 16.7312C26.6539 16.4665 27.0677 16.3507 27.3324 16.4997C27.862 16.7977 26.9529 16.3048 27.4825 16.6028C27.8075 16.7439 27.9153 17.0974 27.714 17.4303C27.6775 17.619 27.5127 17.7633 27.332 17.7871Z"/><path fill="#FD8D41" d="M49.9844 21.2193C50.0447 21.2273 50.1049 21.2352 50.1652 21.2431C50.7914 21.1417 51.4176 21.0403 52.0518 20.8787C52.3689 20.7978 52.5972 20.4602 52.5163 20.1431C52.4355 19.826 52.0979 19.5977 51.7808 19.6785C51.2148 19.7879 50.5886 19.8893 49.9623 19.9907C49.6453 20.0715 49.4249 20.3489 49.4455 20.6581C49.466 20.9672 49.6832 21.1797 49.9844 21.2193ZM53.6372 20.4745C53.6974 20.4825 53.8179 20.4983 53.8861 20.446C54.5202 20.2844 55.0942 20.1148 55.7362 19.8929C56.0533 19.8121 56.2214 19.4665 56.1406 19.1494C56.0597 18.8323 55.7142 18.6642 55.3971 18.745C54.8232 18.9146 54.2492 19.0842 53.6151 19.2459C53.298 19.3267 53.0697 19.6644 53.2107 19.9894C53.179 20.2303 53.3962 20.4428 53.6372 20.4745ZM57.2249 19.2922C57.3454 19.308 57.4057 19.3159 57.5341 19.2716C58.1159 19.0417 58.6978 18.8119 59.2876 18.5218C59.6126 18.3808 59.7204 18.0272 59.5793 17.7022C59.4383 17.3772 59.0847 17.2694 58.7597 17.4105C58.1779 17.6403 57.6563 17.878 57.0744 18.1079C56.7494 18.2489 56.5813 18.5945 56.7224 18.9196C56.8191 19.1161 56.984 19.2604 57.2249 19.2922ZM60.6114 17.7768C60.7319 17.7927 60.8603 17.7483 60.9887 17.7039C61.5785 17.4139 60.6695 17.9068 61.2069 17.5485C61.4717 17.3995 61.5875 16.9858 61.4385 16.721C61.2895 16.4562 60.8757 16.3405 60.6109 16.4895C60.0814 16.7875 60.9904 16.2946 60.4609 16.5926C60.1359 16.7336 60.0281 17.0872 60.2294 17.4201C60.2658 17.6088 60.4307 17.753 60.6114 17.7768Z"/><path fill="#FD8D41" d="M44.1697 31.3682C44.1466 31.3682 44.1236 31.3682 44.1005 31.3682C42.3243 31.1145 40.8018 30.1226 40.0636 28.6923C39.4408 27.4928 39.4638 26.1318 40.0636 24.9553C41.3323 22.5332 41.5169 20.78 41.1017 20.111C40.9863 19.9265 40.8248 19.8342 40.5942 19.8342C39.4638 19.8342 39.0025 20.6647 38.9794 20.7108C38.841 20.9876 38.495 21.103 38.2182 20.9646C37.9413 20.8261 37.826 20.4801 37.9644 20.2033C37.9875 20.1341 38.7257 18.6808 40.5942 18.6808C41.2401 18.6808 41.7476 18.9807 42.0705 19.5113C42.7856 20.7108 42.4165 22.8792 41.0555 25.4859C40.6172 26.3394 40.6172 27.2852 41.0555 28.1618C41.6092 29.269 42.8087 30.0303 44.2158 30.2379C44.5388 30.284 44.7464 30.5839 44.7003 30.8838C44.7003 31.1606 44.4465 31.3682 44.1697 31.3682Z"/><path fill="#FD8D41" d="M44.1697 31.3682C44.1466 31.3682 44.1236 31.3682 44.1005 31.3682C42.3243 31.1145 40.8018 30.1226 40.0636 28.6923C39.4408 27.4928 39.4638 26.1318 40.0636 24.9553C41.3323 22.5332 41.5169 20.78 41.1017 20.111C40.9863 19.9265 40.8248 19.8342 40.5942 19.8342C39.4638 19.8342 39.0025 20.6647 38.9794 20.7108C38.841 20.9876 38.495 21.103 38.2182 20.9646C37.9413 20.8261 37.826 20.4801 37.9644 20.2033C37.9875 20.1341 38.7257 18.6808 40.5942 18.6808C41.2401 18.6808 41.7476 18.9807 42.0705 19.5113C42.7856 20.7108 42.4165 22.8792 41.0555 25.4859C40.6172 26.3394 40.6172 27.2852 41.0555 28.1618C41.6092 29.269 42.8087 30.0303 44.2158 30.2379C44.5388 30.284 44.7464 30.5839 44.7003 30.8838C44.7003 31.1606 44.4465 31.3682 44.1697 31.3682Z"/><path fill="#FDF3E7" d="M40.8245 20.8018C40.8245 21.6553 40.1325 22.3474 39.279 22.3474C38.4254 22.3474 37.7334 21.6553 37.7334 20.8018C37.7334 19.9483 38.4254 19.2563 39.279 19.2563C40.1325 19.2563 40.8245 19.9483 40.8245 20.8018Z"/><path fill="#FDF3E7" d="M39.279 21.4943C38.5869 21.4943 37.9871 21.033 37.8026 20.3871C37.7565 20.5255 37.7334 20.6639 37.7334 20.8254C37.7334 21.6789 38.4254 22.3709 39.279 22.3709C40.1325 22.3709 40.8245 21.6789 40.8245 20.8254C40.8245 20.687 40.8014 20.5255 40.7553 20.3871C40.5708 21.0099 39.971 21.4943 39.279 21.4943Z"/><path stroke="#FD8D41" stroke-linecap="round" stroke-miterlimit="10" stroke-width="1.153" d="M49.2207 20.4558C49.2207 20.4558 48.644 19.2562 47.0985 19.2562C45.5529 19.2562 45.2531 21.6092 47.1216 25.2078C48.3672 27.5607 46.6141 30.352 43.5229 30.7902"/><path fill="#FDF3E7" d="M46.8906 20.8018C46.8906 21.6553 47.5827 22.3474 48.4362 22.3474C49.2897 22.3474 49.9817 21.6553 49.9817 20.8018C49.9817 19.9483 49.2897 19.2562 48.4362 19.2562C47.5827 19.2562 46.8906 19.9483 46.8906 20.8018Z"/><path fill="#FDF3E7" d="M48.4362 21.4943C49.1282 21.4943 49.728 21.033 49.9125 20.3871C49.9587 20.5255 49.9817 20.6639 49.9817 20.8254C49.9817 21.6789 49.2897 22.3709 48.4362 22.3709C47.5827 22.3709 46.8906 21.6789 46.8906 20.8254C46.8906 20.6869 46.9137 20.5255 46.9598 20.3871C47.1444 21.0099 47.7211 21.4943 48.4362 21.4943Z"/><path fill="#FDF3E7" d="M43.1998 30.5607C43.1998 30.5607 41.6081 27.6772 43.8457 24.563C43.8457 24.563 45.8295 27.0313 44.4916 30.5607C44.5146 30.5607 43.7765 31.0913 43.1998 30.5607Z"/><path fill="#FDF3E7" d="M43.1998 30.5607C43.4074 30.7453 43.6381 30.7914 43.8457 30.7914V24.563C41.6081 27.6772 43.1998 30.5607 43.1998 30.5607Z"/></g><defs><filter id="filter0_d_32_3749" width="41.553" height="46.944" x="23.283" y="13.112" color-interpolation-filters="sRGB" filterUnits="userSpaceOnUse"><feFlood flood-opacity="0" result="BackgroundImageFix"/><feColorMatrix in="SourceAlpha" result="hardAlpha" type="matrix" values="0 0 0 0 0 0 0 0 0 0 0 0 0 0 0 0 0 0 127 0"/><feOffset dy="4.352"/><feGaussianBlur stdDeviation="2.176"/><feComposite in2="hardAlpha" operator="out"/><feColorMatrix type="matrix" values="0 0 0 0 0.1375 0 0 0 0 0.0574057 0 0 0 0 0.0119792 0 0 0 0.16 0"/><feBlend in2="BackgroundImageFix" mode="normal" result="effect1_dropShadow_32_3749"/><feBlend in="SourceGraphic" in2="effect1_dropShadow_32_3749" mode="normal" result="shape"/></filter><filter id="filter1_d_32_3749" width="38.506" height="46.514" x="24.693" y="16.038" color-interpolation-filters="sRGB" filterUnits="userSpaceOnUse"><feFlood flood-opacity="0" result="BackgroundImageFix"/><feColorMatrix in="SourceAlpha" result="hardAlpha" type="matrix" values="0 0 0 0 0 0 0 0 0 0 0 0 0 0 0 0 0 0 127 0"/><feOffset dy="4.312"/><feGaussianBlur stdDeviation="2.156"/><feComposite in2="hardAlpha" operator="out"/><feColorMatrix type="matrix" values="0 0 0 0 0.1375 0 0 0 0 0.0574057 0 0 0 0 0.0119792 0 0 0 0.16 0"/><feBlend in2="BackgroundImageFix" mode="normal" result="effect1_dropShadow_32_3749"/><feBlend in="SourceGraphic" in2="effect1_dropShadow_32_3749" mode="normal" result="shape"/></filter></defs></svg>