<svg xmlns="http://www.w3.org/2000/svg" width="88" height="88" fill="none" viewBox="0 0 88 88"><mask id="mask0_35_4822" width="88" height="88" x="0" y="0" maskUnits="userSpaceOnUse" style="mask-type:alpha"><path fill="#FDF3E7" fill-rule="evenodd" d="M44.1895 87.9996C68.4028 87.8975 88 68.2373 88 44C88 33.682 84.4485 24.1934 78.5012 16.6902L78.0176 18.3525L74.9495 13.067L75.6854 13.4707C67.682 5.16611 56.4443 0 44 0C30.3185 0 18.0954 6.24443 10.0254 16.0387L11.267 20.4346C10.6769 19.7382 9.78835 18.6602 8.8739 17.4976C3.3036 24.8689 0 34.0487 0 44C0 53.3394 2.90978 61.9992 7.87221 69.1222C8.93349 68.1795 10.448 66.6285 11.3929 65.6249L8.38601 69.8441C16.1955 80.5872 28.7473 87.6603 42.9663 87.9881L43.8667 84.9997L44.1895 87.9996Z" clip-rule="evenodd"/></mask><g mask="url(#mask0_35_4822)"><path fill="#FDF2E4" fill-rule="evenodd" d="M44.1895 87.9996C68.4028 87.8975 88 68.2373 88 44C88 33.682 84.4485 24.1934 78.5012 16.6902L78.0176 18.3525L74.9495 13.067L75.6854 13.4707C67.682 5.16611 56.4443 0 44 0C30.3185 0 18.0954 6.24443 10.0254 16.0387L11.267 20.4346C10.6769 19.7382 9.78835 18.6602 8.8739 17.4976C3.3036 24.8689 0 34.0487 0 44C0 53.3394 2.90978 61.9992 7.87221 69.1222C8.93349 68.1795 10.448 66.6285 11.3929 65.6249L8.38601 69.8441C16.1955 80.5872 28.7473 87.6603 42.9663 87.9881L43.8667 84.9997L44.1895 87.9996Z" clip-rule="evenodd"/><path fill="#7D3A0D" fill-opacity=".2" fill-rule="evenodd" d="M42.6474 5C49.7004 5.00045 55.5375 7.47593 60.1585 10.1577C63.5639 12.2208 66.2395 14.2838 67.4557 15.5217C69.0804 16.8997 69.8703 20.4565 70.1224 24.3169L70.3766 26.042C70.3766 26.042 70.317 26.0926 70.2033 26.1883C70.2056 26.2894 70.2075 26.3904 70.2091 26.4915C70.3149 26.4604 70.3742 26.4412 70.3849 26.4354L70.3809 26.473C70.4477 26.4528 70.4859 26.4401 70.4942 26.4356L70.1605 29.5952C70.0741 31.4376 69.8905 33.1474 69.6448 34.5019L69.6378 34.5575L69.6302 34.6153L69.5114 35.7402L69.4364 35.7528C69.255 36.6509 68.9912 37.6708 68.6627 38.7464V40.6001C68.3392 40.9718 68.0022 41.3322 67.6528 41.6819C66.4613 44.7995 64.8909 47.8975 63.3206 49.5623L63.2453 49.6352C63.3528 49.6119 63.4597 49.5876 63.5661 49.5624L62.1067 50.8003C62.1067 50.8003 62.0704 50.8077 61.9983 50.82C58.8324 53.7818 55.2938 56.7831 55.2938 56.7831V56.7836L55.2952 56.7834V57.8149L55.2938 57.8154V59.2588C55.2938 62.3534 64.2936 65.2417 74.5095 67.3048C77.3274 67.8877 79.8928 68.9483 82.1235 70.226L82.2949 70.1936L84.4841 71.4314C84.4841 71.4314 84.455 71.4349 84.3977 71.4414L84.2695 71.4557L85.4829 72.4849C86.0775 72.9499 86.6323 73.4226 87.1446 73.8942L88.1318 74.7315L88.033 74.7532C89.992 76.7448 91.1463 78.6188 91.2798 79.6909L91.2943 79.6841V80.5121L91.2948 80.5115C91.2956 80.5104 91.2959 80.5094 91.2959 80.5087V94.9502L91.2929 94.9516V102.996C91.2929 109.804 93.7252 128.372 93.7252 128.372C92.7523 134.355 85.6984 145.701 83.7525 147.971C81.3202 150.859 80.104 157.667 80.104 163.238C80.104 165.78 79.8307 174.165 79.5431 182.985L79.5431 182.986C79.2242 192.77 78.8878 203.09 78.8878 206.562C78.8878 213.164 78.4013 249.887 75.9689 258.758C74.3474 264.672 72.7258 273.612 71.0321 282.949C70.1853 287.618 69.3205 292.386 68.4286 296.925C65.753 310.541 68.1854 338.805 68.1854 338.805C64.78 343.963 51.402 347.057 45.0779 348.295C42.8887 348.708 41.4293 348.914 41.4293 348.914L42.3081 100.396L42.2316 100.364L41.188 348.914C41.1439 348.905 41.067 348.889 40.9599 348.868L40.9595 348.868C38.6978 348.42 22.99 345.305 18.8102 338.805C18.8102 338.805 21.2425 310.541 18.5669 296.925C17.6751 292.386 16.8102 287.618 15.9634 282.949C14.2697 273.612 12.6482 264.672 11.0266 258.758C8.59422 249.887 8.10775 213.164 8.10775 206.562C8.10775 203.09 7.77134 192.77 7.45239 182.985C7.16489 174.165 6.89156 165.78 6.89156 163.238C6.89156 157.874 5.67537 151.272 3.24301 147.971C1.54035 145.701 -4.0541 137.656 -6 129.197C-6 129.197 -4.0541 109.804 -4.0541 102.583V79.6832C-4.0541 77.8366 0.294027 72.0289 7.41785 68.8175L7.37891 68.7491L7.39776 68.7778L7.42256 68.8153C8.97959 68.1138 10.6692 67.5363 12.4748 67.1513L12.2427 67.099C12.2427 67.099 12.3309 67.1151 12.5019 67.1455L12.5435 67.1367L12.6341 67.1179L12.7292 67.0985C22.702 65.0354 31.945 62.1471 31.945 59.0525V58.1025C31.6289 58.0516 31.458 58.0212 31.458 58.0212V56.7834C31.6173 56.8366 31.7797 56.8877 31.945 56.9368V56.5768C31.945 56.5768 29.6019 54.6889 27.111 52.4301L26.1626 51.8555C26.2694 51.8555 26.376 51.8552 26.4824 51.8548C25.5897 51.0299 24.7017 50.174 23.9181 49.356C21.5584 47.021 19.1986 41.3148 18.1241 37.0342C17.8675 36.8795 17.6098 36.7232 17.3511 36.5651L17.1375 34.7537C16.9565 34.7244 16.8628 34.7085 16.8628 34.7085V31.2589C16.5096 24.7745 17.209 21.3239 17.757 19.6816C18.1707 17.7198 18.8184 16.1336 19.7831 15.3154C20.0246 15.1106 20.2986 14.8706 20.6048 14.6025L20.6048 14.6025C23.075 12.4394 27.6419 8.44046 34.1341 6.23784C36.3228 5.61904 39.241 5.00023 42.6455 5H42.6474ZM42.4318 51.9914L42.4044 57.9643L42.4582 57.9633L42.4793 51.9846C42.4635 51.9869 42.4476 51.9891 42.4318 51.9914ZM42.4864 49.9724C42.4713 49.9759 42.4562 49.9794 42.441 49.9829L42.4488 48.2804L42.4924 48.2938L42.4864 49.9724ZM70.4944 26.4337L70.4942 26.4356C70.4965 26.4343 70.4966 26.4337 70.4944 26.4337ZM70.3851 26.4336L70.3849 26.4354C70.3871 26.4342 70.3872 26.4336 70.3851 26.4336ZM17.6683 34.8378L17.6417 34.8337L17.6704 34.8513L17.6683 34.8378ZM42.4099 71.6216L42.3523 71.617L42.3523 71.6094L42.4099 71.6141L42.4099 71.6216ZM42.3289 77.1889L42.3902 77.1916L42.3479 89.1373L42.2787 89.1367L42.3289 77.1889ZM42.4975 46.838L42.4555 46.8233L42.4824 40.9638L42.5183 40.9562L42.4975 46.838ZM42.6265 10.379L42.6039 16.7587L42.5935 16.7576L42.6227 10.3784L42.6265 10.379ZM42.63 9.37715L42.6391 6.818L42.6273 9.37698L42.63 9.37715ZM42.4042 59.1145V59.2588L42.3551 70.9393L42.4123 70.944L42.4541 59.1162L42.4042 59.1145Z" clip-rule="evenodd"/><path fill="#FDF3E7" d="M42.8193 6.9001L42.6106 60.5398V61.7921L41.567 354.828C40.7322 354.619 26.1221 351.488 22.3652 344.601C22.3652 344.601 24.4523 316.007 22.1565 302.232C19.8606 288.457 17.7734 272.594 15.6863 263.619C13.5991 254.645 13.1817 217.493 13.1817 210.815C13.1817 204.136 12.1381 172.411 12.1381 166.984C12.1381 161.558 11.0945 154.879 9.00737 151.54C7.54636 149.244 2.7459 141.104 1.07617 132.546C1.07617 132.546 2.7459 112.927 2.7459 105.622V82.4549C2.7459 80.159 8.38123 71.8104 17.1473 69.7233C25.7046 67.6361 33.6358 64.7141 33.6358 61.5834C33.6358 59.0788 33.6358 59.0788 33.6358 59.0788C33.6358 59.0788 29.4615 55.1132 26.7482 51.7738C24.2436 48.8518 21.739 40.7119 21.3216 36.5376C20.6955 31.111 20.4867 20.0491 23.2 17.3358C25.0785 15.4574 29.2528 10.657 35.5143 8.15239C37.3927 7.52625 39.8973 6.9001 42.8193 6.9001Z"/><path fill="#FEF2E5" d="M86.6493 131.712C85.8144 137.764 79.7617 149.244 78.0919 151.54C76.0048 154.462 74.9612 161.349 74.9612 166.984C74.9612 172.411 73.9176 204.136 73.9176 210.815C73.9176 217.493 73.5002 254.645 71.413 263.619C69.3259 272.594 67.2387 288.457 64.9428 302.232C62.647 316.007 64.7341 344.601 64.7341 344.601C61.8121 349.819 50.3327 352.949 44.9061 354.202C43.0277 354.619 41.7754 354.828 41.7754 354.828L42.819 6.9001C48.8717 6.9001 53.8809 9.40468 57.8465 12.118C60.7685 14.2051 63.0644 16.2923 64.108 17.5446C66.8213 20.2579 66.8213 31.3197 65.9864 36.7463C65.569 40.7119 63.0644 48.8518 60.5598 51.9825C57.6378 55.322 53.6722 59.2875 53.6722 59.2875C53.6722 59.2875 53.6722 59.2875 53.6722 61.7921C53.6722 64.9229 61.3947 67.8449 70.1607 69.932C78.7181 72.0192 84.5621 80.159 84.5621 82.6636V106.04C84.5621 112.927 86.6493 131.712 86.6493 131.712Z"/><path fill="#FEEAD3" d="M12.5562 71.3934C12.5562 71.3934 28.2098 99.7786 52.8383 104.997L49.9163 106.249C49.9163 106.249 26.9575 101.24 12.5562 71.3934Z"/><path fill="#FFD1AB" d="M28.627 91.8477C28.627 91.8477 41.3586 104.162 52.838 104.788C52.838 104.788 78.3013 101.449 84.5628 97.9005V83.2904C84.5628 83.4991 62.2302 95.8133 28.627 91.8477Z"/><path fill="#FFB897" d="M78.7186 74.107C78.7186 74.107 48.8722 78.2813 16.73 69.724C16.73 69.724 54.5075 77.8639 76.8401 72.8547L78.7186 74.107Z"/><path fill="url(#paint0_linear_35_4822)" d="M21.9476 20.4656C21.9476 20.4656 19.8604 23.805 20.904 36.7453L33.8444 45.0939C33.8444 45.0939 51.3765 42.3806 56.5944 37.5802C61.8123 32.9885 66.6128 28.188 66.6128 28.188L66.1954 24.8486C66.1954 24.8486 57.2206 30.0664 43.2366 27.3532C29.2527 25.0573 21.9476 20.4656 21.9476 20.4656Z"/><path fill="#EED0AB" d="M20.9048 36.7466C20.9048 36.7466 46.5768 55.9484 60.7695 51.9828L59.5172 53.2351C59.5172 53.2351 45.742 56.5746 21.1135 38.8338L20.9048 36.7466Z"/><path fill="#E6DBCF" d="M21.9482 20.4656C21.9482 20.4656 39.6891 31.7362 66.196 24.8486C66.196 25.0573 48.8726 35.9105 21.9482 20.4656Z"/><path fill="#BA8663" d="M32.1748 9.82281C32.1748 9.82281 48.2459 15.0407 57.6381 12.3274L56.3858 11.4925C56.5946 11.2838 44.6978 12.5361 32.1748 9.82281Z"/><path fill="#FFB897" d="M84.5619 82.4552C84.5619 82.4552 59.516 96.4391 27.5825 90.5951L28.6261 92.0561C28.6261 92.0561 63.4816 96.2304 84.5619 83.4988V82.4552Z"/><path fill="#FEE9D1" d="M21.5304 70.7672L20.4868 77.8635C20.4868 77.8635 58.4731 83.4988 81.8493 77.4461L78.5098 74.1067C78.7185 74.1067 49.9157 77.8635 21.5304 70.7672Z"/><path fill="#FFE9C9" d="M25.2871 22.1355L31.3399 16.9177C31.3399 16.9177 51.1679 21.092 60.1427 19.0048L62.2298 25.6837C62.0211 25.8924 45.3238 30.9016 25.2871 22.1355Z"/><g filter="url(#filter0_i_35_4822)"><path fill="#000" d="M20.6948 32.034V36.9559C20.6948 36.9559 45.7407 41.965 65.7774 37.9995L66.621 28.5843C66.8297 28.5843 42.61 36.6258 20.6948 32.034Z"/></g><mask id="mask1_35_4822" width="47" height="12" x="20" y="28" maskUnits="userSpaceOnUse" style="mask-type:alpha"><path fill="#F9BE98" d="M20.7891 32.0342V36.956C20.7891 36.956 45.835 41.9652 65.8717 37.9996L66.7152 28.5845C66.924 28.5845 42.7042 36.6259 20.7891 32.0342Z"/></mask><g mask="url(#mask1_35_4822)"><path fill="#F1843C" d="M47.4009 35.3024C54.3583 30.5419 56.7644 32.8319 57.2572 35.3024C56.7644 36.7746 51.5753 37.9686 47.4009 35.3024Z"/><path fill="#F1843C" d="M39.5156 35.3024C32.5582 30.5419 30.1521 32.8319 29.6593 35.3024C30.1521 36.7746 35.3412 37.9686 39.5156 35.3024Z"/></g><path fill="#EED0AB" d="M65.1427 40.4117C65.1427 40.4117 50.5895 54.3029 28.6743 54.3029L30.1353 55.3465C30.1353 55.3465 55.1243 56.4827 65.1427 42.9162V40.4117Z"/><path fill="#C5C5C5" d="M33.8875 64.4247C33.4597 64.8408 16.1335 77.7408 16.1335 77.7408L18.9143 82.9424L12.0694 79.8215L4.79668 89.8086L7.36352 101.252L15.064 103.957H8.43303V129.965L19.1282 131.005L12.2833 132.046L13.9945 139.536L17.2031 142.033L9.93036 139.328L13.5667 153.06L47.5773 166.792L24.2619 183.646L21.4811 181.565L17.417 208.613V233.997L21.695 239.407L18.4865 237.534L22.1228 265.415L27.0426 297.041H34.3153L28.5399 298.705L27.0426 323.465L25.3314 340.734C25.3314 340.734 30.6789 350.721 41.588 353.842C40.7324 353.634 25.7592 350.513 21.9089 343.647C21.9089 343.647 24.0479 315.142 21.695 301.41C19.3421 287.678 17.2031 271.865 15.064 262.918C12.925 253.971 12.4972 216.936 12.4972 210.278C12.4972 203.62 11.4277 171.994 11.4277 166.584C11.4277 161.175 10.3582 154.517 8.21913 151.188C6.72181 148.899 1.80204 140.784 0.0908203 132.254C0.0908203 132.254 1.80204 112.696 1.80204 105.413V82.5263C1.80204 80.2376 7.57742 71.915 16.5613 69.8344C25.3314 67.7537 33.4597 64.8408 33.4597 61.7198C33.4597 59.2231 33.4597 59.2231 33.4597 59.2231C33.4597 59.2231 29.1816 55.2699 26.4009 51.9408C23.834 49.0279 21.2672 40.9134 20.8394 36.7521C19.9838 31.7586 19.7699 20.7311 22.5506 18.0263C24.4758 16.1537 28.7538 11.3682 35.1709 8.87148C35.1709 8.87148 28.1121 17.1941 25.1175 22.6037L33.6736 26.3489L26.8287 25.1005C26.8287 25.1005 27.4704 44.8666 27.4704 46.115C27.4704 47.3634 35.1709 59.8473 36.8821 60.6795C37.5238 61.0957 40.0907 61.0957 42.6575 60.8876C46.0799 60.6795 49.9302 60.2634 50.358 60.2634C49.9302 60.2634 46.2938 61.0957 42.6575 62.136C38.5933 62.9682 34.1014 64.2166 33.8875 64.4247Z" opacity=".2"/><path fill="#C5C5C5" d="M86.8257 131.397C85.9978 137.448 79.9953 148.925 78.3394 151.221C76.2696 154.142 75.2347 161.028 75.2347 166.662C75.2347 172.088 74.1998 203.806 74.1998 210.484C74.1998 217.161 73.7858 254.305 71.716 263.278C69.6462 272.251 67.5763 288.11 65.2995 301.882C63.0227 315.655 65.0925 344.243 65.0925 344.243C62.1948 349.46 50.8107 352.59 45.4292 353.842L60.5389 346.538L59.504 315.863L55.5713 318.576L59.918 312.733V268.912L66.3344 247.419L64.0576 245.332L70.8881 223.421L67.9903 224.256L69.0252 220.709L65.0925 209.44L67.1624 206.102L65.2995 194.625L68.6112 170.419L65.5065 171.671L68.1973 168.123L54.9504 165.202L65.5065 156.229L75.4417 149.969L75.6486 136.614L78.5464 134.11L76.0626 120.963L72.5439 103.226L70.6811 103.017L73.1649 101.557L74.1998 88.2017L70.4741 89.0364L80.4092 84.2369L74.8207 74.4293L62.4018 74.638L64.6786 74.0119L52.0526 62.1176L47.499 61.0743L51.4317 59.4049L54.7434 52.936L57.0202 52.1013C57.0202 52.1013 61.1599 46.8845 61.1599 45.8412C61.1599 44.7978 63.6437 34.1555 63.6437 34.1555L60.125 36.8683L61.7808 32.6948L62.6087 26.4346L60.9529 27.0607L63.8506 25.3913C63.8506 25.3913 63.2297 22.4699 62.1948 19.7571C60.9529 17.2531 58.4691 12.0362 58.2621 11.8276C61.1599 13.9143 63.4367 16.001 64.4716 17.2531C67.1624 19.9658 67.1624 31.0254 66.3344 36.4509C65.9205 40.4157 63.4367 48.5539 60.9529 51.684C58.0551 55.0228 54.1225 58.9875 54.1225 58.9875C54.1225 58.9875 54.1225 58.9875 54.1225 61.4916C54.1225 64.6217 61.7808 67.5431 70.4741 69.6298C78.9604 71.7165 84.7559 79.8548 84.7559 82.3588V105.73C84.7559 112.616 86.8257 131.397 86.8257 131.397Z" opacity=".2"/></g><defs><filter id="filter0_i_35_4822" width="45.928" height="10.943" x="20.695" y="28.584" color-interpolation-filters="sRGB" filterUnits="userSpaceOnUse"><feFlood flood-opacity="0" result="BackgroundImageFix"/><feBlend in="SourceGraphic" in2="BackgroundImageFix" mode="normal" result="shape"/><feColorMatrix in="SourceAlpha" result="hardAlpha" type="matrix" values="0 0 0 0 0 0 0 0 0 0 0 0 0 0 0 0 0 0 127 0"/><feOffset/><feGaussianBlur stdDeviation=".986"/><feComposite in2="hardAlpha" k2="-1" k3="1" operator="arithmetic"/><feColorMatrix type="matrix" values="0 0 0 0 0.545098 0 0 0 0 0.227451 0 0 0 0 0.0470588 0 0 0 0.16 0"/><feBlend in2="shape" mode="normal" result="effect1_innerShadow_35_4822"/></filter><linearGradient id="paint0_linear_35_4822" x1="20.789" x2="66.128" y1="27.105" y2="35.483" gradientUnits="userSpaceOnUse"><stop stop-color="#FDF3E7"/><stop offset="0" stop-color="#FDEAD4"/><stop offset="1" stop-color="#FFE7CB"/></linearGradient></defs></svg>