<svg xmlns="http://www.w3.org/2000/svg" width="116" height="116" fill="none" viewBox="0 0 116 116"><g filter="url(#filter0_d_28_2463)"><path fill="#1D1A25" fill-rule="evenodd" d="M9.99994 58.2069C10.1114 84.6214 31.5588 106 57.9995 106C69.2554 106 79.6063 102.126 87.7916 95.6379L85.9781 95.1104L91.7441 91.7634L91.3035 92.5666C100.363 83.8355 106 71.576 106 58C106 43.0747 99.1875 29.7405 88.5028 20.9368L83.7068 22.2915C84.4665 21.6477 85.6427 20.6783 86.9111 19.6806C78.8697 13.6039 68.8555 10 57.9995 10C47.8109 10 38.3637 13.1744 30.593 18.5882C31.6214 19.7459 33.3134 21.3981 34.4083 22.4289L29.8055 19.1487C18.0859 27.6682 10.37 41.3611 10.0125 56.8727L13.2721 57.8548L9.99994 58.2069Z" clip-rule="evenodd"/></g><defs><filter id="filter0_d_28_2463" width="116" height="116" x="0" y="0" color-interpolation-filters="sRGB" filterUnits="userSpaceOnUse"><feFlood flood-opacity="0" result="BackgroundImageFix"/><feColorMatrix in="SourceAlpha" result="hardAlpha" type="matrix" values="0 0 0 0 0 0 0 0 0 0 0 0 0 0 0 0 0 0 127 0"/><feOffset/><feGaussianBlur stdDeviation="5"/><feComposite in2="hardAlpha" operator="out"/><feColorMatrix type="matrix" values="0 0 0 0 0 0 0 0 0 0 0 0 0 0 0 0 0 0 0.5 0"/><feBlend in2="BackgroundImageFix" mode="normal" result="effect1_dropShadow_28_2463"/><feBlend in="SourceGraphic" in2="effect1_dropShadow_28_2463" mode="normal" result="shape"/></filter></defs></svg>