<svg width="88" height="88" viewBox="0 0 88 88" fill="none" xmlns="http://www.w3.org/2000/svg">
<mask id="mask0_32_3884" style="mask-type:alpha" maskUnits="userSpaceOnUse" x="0" y="0" width="88" height="88">
<path fill-rule="evenodd" clip-rule="evenodd" d="M44.1895 87.9996C68.4028 87.8975 88 68.2373 88 44C88 33.682 84.4485 24.1934 78.5012 16.6902L78.0176 18.3525L74.9495 13.067L75.6854 13.4707C67.682 5.16611 56.4443 0 44 0C30.3185 0 18.0954 6.24443 10.0254 16.0387L11.267 20.4346C10.6769 19.7382 9.78835 18.6602 8.8739 17.4976C3.3036 24.8689 0 34.0487 0 44C0 53.3394 2.90978 61.9992 7.87221 69.1222C8.93349 68.1795 10.448 66.6285 11.3929 65.6249L8.38601 69.8441C16.1955 80.5872 28.7473 87.6603 42.9663 87.9881L43.8667 84.9997L44.1895 87.9996Z" fill="#FDF3E7"/>
</mask>
<g mask="url(#mask0_32_3884)">
<path fill-rule="evenodd" clip-rule="evenodd" d="M44.1895 87.9996C68.4028 87.8975 88 68.2373 88 44C88 33.682 84.4485 24.1934 78.5012 16.6902L78.0176 18.3525L74.9495 13.067L75.6854 13.4707C67.682 5.16611 56.4443 0 44 0C30.3185 0 18.0954 6.24443 10.0254 16.0387L11.267 20.4346C10.6769 19.7382 9.78835 18.6602 8.8739 17.4976C3.3036 24.8689 0 34.0487 0 44C0 53.3394 2.90978 61.9992 7.87221 69.1222C8.93349 68.1795 10.448 66.6285 11.3929 65.6249L8.38601 69.8441C16.1955 80.5872 28.7473 87.6603 42.9663 87.9881L43.8667 84.9997L44.1895 87.9996Z" fill="#FDF2E4"/>
<path fill-rule="evenodd" clip-rule="evenodd" d="M46.4669 5.07913V5.05016C44.8401 4.95987 43.6674 5.01405 43.2635 5.03933C42.8596 5.01405 41.6868 4.95987 40.06 5.05016V5.07901C38.6312 5.16878 36.8447 5.38156 34.9063 5.8462L34.9056 5.84082C33.7259 6.11777 32.467 6.50045 31.2196 7.01357C29.329 7.77233 27.4165 8.8132 25.6441 10.2376L25.6387 10.2197C24.5038 11.1451 23.4399 12.206 22.4469 13.4699L22.4498 13.4784C21.773 14.3468 21.1443 15.3035 20.5777 16.3573C18.5339 20.1587 16.7106 25.3641 15.2175 30.8733L15.2113 30.8711C14.7621 32.5188 14.3602 34.189 13.9582 35.8592L13.9582 35.8593L13.971 35.8616C13.5807 37.559 13.2238 39.254 12.9034 40.916L12.8939 40.915C12.6529 42.1417 12.4461 43.3521 12.2444 44.5324L12.2441 44.5341C12.2084 44.7431 12.1729 44.9513 12.1373 45.1584L12.152 45.159C11.9514 46.405 11.7751 47.6138 11.6247 48.7705H11.6172C11.4753 49.8765 11.3571 50.9373 11.2625 51.9304H11.2653C11.1673 52.9552 11.0956 53.9157 11.0516 54.7979H11.0492L11.0401 55.041C11.012 55.6674 10.9984 56.2521 10.9999 56.7899C10.9988 57.2083 11.0063 57.5981 11.0256 57.9578H11.031C11.0999 59.2162 11.2837 60.0943 11.5934 60.4833C12.409 61.5078 14.1132 62.3389 15.9304 63.2251C16.6587 63.5803 17.4052 63.9443 18.1199 64.3332L12.9758 64.9369C12.8482 64.6289 12.7924 64.457 12.7924 64.457C8.77872 64.457 5.9122 66.5704 5.49256 66.8798L5.49246 66.8799L5.4923 66.88C5.45727 66.9058 5.43937 66.919 5.43937 66.9173C5.5051 67.0914 5.57198 67.264 5.63997 67.4352C5.11181 67.7817 4.66908 68.1654 4.3706 68.587C2.64466 71.0246 -0.121582 88.0656 -0.121582 88.0656H18.9565L18.9105 88.2809L18.9105 88.281L18.9104 88.2817L18.9102 88.2825C18.8553 88.5391 18.8033 88.7822 18.7569 89.0145H18.7601C18.4966 90.2463 18.3317 90.9991 18.3317 90.9991L35.8039 90.9765C35.8039 90.9765 35.8275 90.8411 35.8512 90.5703C35.9127 90.1002 36.0225 89.2399 36.157 88.0656H50.351C50.3936 88.4102 50.4327 88.7303 50.4625 89.0145H50.4794C50.5628 89.7103 50.6305 90.2378 50.674 90.5703C50.6976 90.8411 50.7213 90.9765 50.7213 90.9765L68.1935 90.9991C68.1935 90.9991 67.9415 89.8489 67.5628 88.0656H85.6791C85.6791 88.0656 84.2369 71.0246 82.511 68.587C81.9923 67.8643 81.0539 67.2528 79.9902 66.7499C79.2121 66.1958 76.5286 64.457 72.8682 64.457C72.8682 64.457 72.8227 64.5971 72.72 64.8509L68.1486 64.4748C68.9397 64.0322 69.7782 63.6233 70.5939 63.2255L70.594 63.2255L70.594 63.2255L70.5941 63.2254L70.5941 63.2254L70.5942 63.2254L70.5942 63.2254L70.5942 63.2254L70.5943 63.2253L70.5943 63.2253L70.5944 63.2253L70.5944 63.2253L70.5945 63.2252L70.5945 63.2252L70.5946 63.2252L70.5946 63.2252L70.5947 63.2252L70.5947 63.2251L70.5947 63.2251L70.5948 63.2251C72.412 62.3389 74.1162 61.5078 74.9318 60.4833C75.443 59.8412 75.6113 57.8664 75.4854 55.0485L75.4816 54.9395L75.4763 54.7979H75.4736C74.9922 45.1512 71.1976 26.1223 65.9474 16.3573C64.7235 14.0808 63.2095 12.2575 61.548 10.7981C61.323 10.5994 61.0956 10.4068 60.8662 10.2197L60.8647 10.2245C59.1182 8.82388 57.2362 7.79503 55.3737 7.04102C54.1046 6.51407 52.8219 6.12269 51.6212 5.84082L51.6205 5.84659C49.6823 5.38187 47.8958 5.16898 46.4669 5.07913Z" fill="#4D3423" fill-opacity="0.2"/>
<path d="M80.1812 69.3684C78.5693 67.0158 72.557 65.883 72.557 65.883L54.1064 64.2928V51.7455L44.1731 57.736L34.2398 51.7455V63.6175L15.8109 65.883C15.8109 65.883 9.77692 67.0158 8.18672 69.3684C6.59652 71.721 4.04785 88.1675 4.04785 88.1675H83.1002C83.1002 88.1675 81.7714 71.721 80.1812 69.3684Z" fill="#F6B38D"/>
<path d="M15.9461 65.3827C15.9461 65.3827 20.7384 80.849 43.6111 80.6312V87.798C43.6111 87.798 17.1877 89.9981 9.17139 67.7571C9.17139 67.7789 11.9379 65.3827 15.9461 65.3827Z" fill="#FD8D41"/>
<path d="M71.2964 65.3827C71.2964 65.3827 66.504 80.849 43.6313 80.6312V87.798C43.6313 87.798 70.0548 89.9981 78.0711 67.7571C78.0711 67.7789 75.3264 65.3827 71.2964 65.3827Z" fill="#FD8D41"/>
<path opacity="0.5" d="M43.9115 60.3718C43.9115 60.3718 50.6426 59.9797 53.6488 54.3595C53.6705 54.316 53.6923 54.2506 53.7359 54.2071V51.7455L43.8026 57.736L33.8911 51.7673V53.9674C33.9565 54.0981 34.0218 54.2506 34.1089 54.3813C37.1151 59.9797 43.8462 60.3936 43.8462 60.3936H43.9115V60.3718Z" fill="#F6B38D"/>
<g filter="url(#filter0_d_32_3884)">
<path d="M52.1239 23.3842C44.3472 21.99 43.9115 25.0833 43.9115 25.0833C43.8898 25.1051 43.8898 25.41 43.8898 25.911C43.8898 25.41 43.868 25.1051 43.868 25.0833C43.868 25.0833 43.4323 21.99 35.6774 23.3842C27.9224 24.7783 30.0572 36.3889 30.0572 36.3889C30.0572 36.3889 31.1246 47.1935 34.1307 52.7919C37.1369 58.3903 43.868 58.8041 43.868 58.8041H43.9333C43.9333 58.8041 50.6644 58.412 53.6706 52.7919C56.6767 47.1935 57.7441 36.3889 57.7441 36.3889C57.7441 36.3889 59.8789 24.7783 52.1239 23.3842Z" fill="#F9BE98"/>
</g>
<path d="M40.9204 64.1955C41.6181 61.6173 42.1409 58.2976 41.375 56H44.125V67H42.9541C41.5391 67 40.5509 65.5613 40.9204 64.1955Z" fill="black"/>
<path d="M47.3296 64.1955C46.6319 61.6173 46.1091 58.2976 46.875 56H44.125V67H45.2959C46.7109 67 47.6991 65.5613 47.3296 64.1955Z" fill="black"/>
<path d="M46.0601 38.485C48.1094 41.0472 51.1835 42.5839 53.7452 38.4847C52.7206 37.4601 49.6465 37.4603 46.0601 38.485Z" fill="black"/>
<path d="M41.4492 38.485C39.3998 41.0472 36.3258 42.5839 33.764 38.4847C34.7887 37.4601 37.8628 37.4603 41.4492 38.485Z" fill="black"/>
<path d="M44.1947 31.052C56.7638 31.0955 57.1995 35.278 57.1995 35.278C56.5024 46.6489 54.1062 52.2255 52.1893 54.9049C52.7339 54.295 53.2567 53.6197 53.6706 52.8137C56.6767 47.2153 57.7441 36.4107 57.7441 36.4107C57.7441 36.4107 59.8789 24.8001 52.1239 23.4059C44.3472 21.99 43.9115 25.0833 43.9115 25.0833C43.8898 25.1051 43.8898 25.41 43.8898 25.911C43.8898 25.41 43.868 25.1051 43.868 25.0833C43.868 25.0833 43.4323 21.99 35.6774 23.3842C27.9224 24.7783 30.0572 36.3889 30.0572 36.3889C30.0572 36.3889 31.1246 47.1935 34.1307 52.7919C35.3288 55.0138 37.1151 56.4297 38.836 57.3011V57.2793C38.836 57.2793 32.4316 55.1663 31.2118 35.2562C31.1682 35.278 31.6039 31.0955 44.1947 31.052Z" fill="#FBBF99"/>
<path d="M37.1476 90.9776C37.1476 90.9776 37.1694 90.8469 37.1912 90.5855C37.5397 87.7972 39.5656 70.7843 38.2586 56.6468C38.2586 56.6468 31.3968 54.3813 30.0898 33.077C30.0898 33.077 30.5472 28.5678 44.1401 28.5461V8.06955C44.1401 8.06955 29.4363 6.65363 23.119 18.9613C16.8018 31.269 12.7719 58.8251 14.8413 61.5481C16.9107 64.271 25.1885 65.578 24.7528 70.4793C24.3171 75.3806 21.0496 90.9994 21.0496 90.9994" fill="#F1843C"/>
<path d="M44.1616 8.04841C44.1616 8.04841 42.9417 7.93949 41.0684 8.04841V28.612C42.0268 28.5467 43.0507 28.5249 44.1616 28.5249V8.04841Z" fill="black"/>
<path d="M36.3203 8.81155C34.9915 9.1383 33.5538 9.61754 32.1597 10.2928L34.8608 29.6148C35.9064 29.3098 37.2134 29.0266 38.7819 28.8524L36.3203 8.81155Z" fill="black"/>
<path d="M24.8403 16.1742L30.2426 32.599C30.4823 32.0762 31.1358 31.1831 32.8131 30.3553L27.7811 13.0374C26.7355 13.9305 25.7552 14.9543 24.8403 16.1742Z" fill="black"/>
<path d="M21.3553 22.9481C20.8107 24.364 20.2662 25.8889 19.7651 27.4791L23.4248 29.6138L30.9401 40.9413C30.6787 39.3511 30.4608 37.5866 30.2866 35.6697L24.8407 25.3007L21.3553 22.9481Z" fill="black"/>
<path d="M18.175 32.9688C17.7611 34.559 17.3908 36.171 17.0205 37.783L23.8387 39.1118L32.1165 46.5618C31.8986 45.7993 31.7026 44.9498 31.5065 44.0784L24.819 35.4304L18.175 32.9688Z" fill="black"/>
<path d="M16.0394 42.6624C15.778 44.0565 15.5601 45.4289 15.3423 46.7577L22.9447 47.128L33.0087 49.3064C32.7909 48.7182 32.573 48.0865 32.3552 47.3894L23.1626 43.4466L16.0394 42.6624Z" fill="black"/>
<path d="M14.8634 50.2435C14.7327 51.3109 14.6238 52.3347 14.5366 53.2932H34.9478C34.4468 52.4872 33.9239 51.4852 33.4011 50.2435H14.8634Z" fill="black"/>
<path d="M14.3182 59.1101H38.4543C38.4107 58.2824 38.3454 57.4546 38.2583 56.6268C38.2583 56.6268 37.8879 56.4961 37.3216 56.0604H14.34C14.2964 57.2367 14.2746 58.2606 14.3182 59.1101Z" fill="black"/>
<path d="M38.607 61.8964H15.168C16.2789 63.0073 18.3701 63.8787 20.3089 64.9461H38.6724C38.6724 63.9222 38.6288 62.9202 38.607 61.8964Z" fill="black"/>
<path d="M38.6945 67.9955H24.1431C24.448 68.4529 24.6441 68.954 24.7312 69.5203H38.6727C38.6727 69.0193 38.6945 68.4965 38.6945 67.9955Z" fill="black"/>
<path d="M38.6063 72.3092C38.6281 71.8082 38.6281 71.3072 38.6499 70.7844H24.7302C24.6867 71.22 24.6213 71.7428 24.5342 72.3092H38.6063Z" fill="black"/>
<path d="M38.498 75.1201C38.5198 74.6191 38.5416 74.1181 38.5634 73.5953H24.3387C24.2734 74.0745 24.1863 74.5973 24.0991 75.1201H38.498Z" fill="black"/>
<path d="M38.3463 77.908C38.368 77.407 38.4116 76.906 38.4334 76.3831H23.882C23.7949 76.8842 23.7077 77.3852 23.6206 77.908H38.3463Z" fill="black"/>
<path d="M38.1486 80.6969C38.1922 80.1959 38.2139 79.6948 38.2575 79.172H23.3794C23.2922 79.673 23.1833 80.1959 23.0962 80.6969H38.1486Z" fill="black"/>
<path d="M37.9324 83.4838C37.976 82.9827 38.0195 82.4817 38.0631 81.9589H22.8582C22.7493 82.4817 22.6621 82.9827 22.5532 83.4838H37.9324Z" fill="black"/>
<path d="M37.6711 86.2726C37.7147 85.7934 37.7583 85.2924 37.8236 84.7478H22.3138C22.2048 85.2706 22.1177 85.7934 22.0088 86.2726H37.6711Z" fill="black"/>
<path d="M37.3652 89.0835C37.4087 88.6479 37.4741 88.1251 37.5394 87.5587H21.7464C21.6375 88.1251 21.5285 88.6261 21.4414 89.0835H37.3652Z" fill="black"/>
<path d="M50.8919 90.9776C50.8919 90.9776 50.8701 90.8469 50.8484 90.5855C50.4998 87.7972 48.474 70.7843 49.781 56.6468C49.781 56.6468 56.6428 54.3813 57.9498 33.077C57.9498 33.077 57.4923 28.5678 43.8994 28.5461V8.06955C43.8994 8.06955 58.6033 6.65363 64.9205 18.9613C71.2377 31.269 75.2677 58.8251 73.1982 61.5481C71.1288 64.271 62.8511 65.578 63.2867 70.4793C63.7224 75.3806 66.9899 90.9994 66.9899 90.9994" fill="#F1843C"/>
<path d="M43.8784 8.04841C43.8784 8.04841 45.0983 7.93949 46.9717 8.04841V28.612C46.0132 28.5467 44.9894 28.5249 43.8784 28.5249V8.04841Z" fill="black"/>
<path d="M51.7208 8.81155C53.0496 9.1383 54.4873 9.61754 55.8815 10.2928L53.1803 29.6148C52.1347 29.3098 50.8277 29.0266 49.2593 28.8524L51.7208 8.81155Z" fill="black"/>
<path d="M63.1788 16.1742L57.7765 32.599C57.5369 32.0762 56.8834 31.1831 55.2061 30.3553L60.238 13.0374C61.2837 13.9305 62.2857 14.9543 63.1788 16.1742Z" fill="black"/>
<path d="M66.6848 22.9481C67.2294 24.364 67.774 25.8889 68.275 27.4791L64.6154 29.6138L57.1001 40.9413C57.3615 39.3511 57.5793 37.5866 57.7536 35.6697L63.1995 25.3007L66.6848 22.9481Z" fill="black"/>
<path d="M69.8438 32.9688C70.2577 34.559 70.628 36.171 70.9983 37.783L64.1801 39.1118L55.9023 46.5618C56.1202 45.7993 56.3162 44.9498 56.5123 44.0784L63.1998 35.4304L69.8438 32.9688Z" fill="black"/>
<path d="M71.9791 42.6624C72.2405 44.0565 72.4584 45.4289 72.6762 46.7577L65.0737 47.128L55.0098 49.3064C55.2276 48.7182 55.4454 48.0865 55.6633 47.3894L64.8559 43.4466L71.9791 42.6624Z" fill="black"/>
<path d="M73.1552 50.2435C73.2859 51.3109 73.3948 52.3347 73.482 53.2932H53.0708C53.5718 52.4872 54.0946 51.4852 54.6174 50.2435H73.1552Z" fill="black"/>
<path d="M73.6998 59.1101H49.5854C49.629 58.2824 49.6944 57.4546 49.7815 56.6268C49.7815 56.6268 50.1518 56.4961 50.7182 56.0604H73.6998C73.7434 57.2367 73.7434 58.2606 73.6998 59.1101Z" fill="black"/>
<path d="M49.4335 61.8964H72.8726C71.7616 63.0073 69.6704 63.8787 67.7317 64.9461H49.3682C49.3682 63.9222 49.3899 62.9202 49.4335 61.8964Z" fill="black"/>
<path d="M49.3462 67.9955H63.8976C63.5926 68.4529 63.3966 68.954 63.3094 69.5203H49.368C49.3462 69.0193 49.3462 68.4965 49.3462 67.9955Z" fill="black"/>
<path d="M49.4327 72.3092C49.4109 71.8082 49.4109 71.3072 49.3892 70.7844H63.3088C63.3524 71.22 63.4177 71.7428 63.5049 72.3092H49.4327Z" fill="black"/>
<path d="M49.5414 75.1201C49.5196 74.6191 49.4979 74.1181 49.4761 73.5953H63.6789C63.7443 74.0745 63.8314 74.5973 63.9185 75.1201H49.5414Z" fill="black"/>
<path d="M49.6946 77.908C49.6728 77.407 49.6292 76.906 49.6074 76.3831H64.137C64.2242 76.8842 64.3113 77.3852 64.3984 77.908H49.6946Z" fill="black"/>
<path d="M49.8682 80.6969C49.8246 80.1959 49.8028 79.6948 49.7593 79.172H64.6374C64.7245 79.673 64.8335 80.1959 64.9206 80.6969H49.8682Z" fill="black"/>
<path d="M50.1082 83.4838C50.0647 82.9827 50.0211 82.4817 49.9775 81.9589H65.1824C65.2913 82.4817 65.3785 82.9827 65.4874 83.4838H50.1082Z" fill="black"/>
<path d="M50.3703 86.2726C50.3267 85.7934 50.2831 85.2924 50.2178 84.7478H65.7276C65.8365 85.2706 65.9237 85.7934 66.0326 86.2726H50.3703Z" fill="black"/>
<path d="M50.6533 89.0835C50.6097 88.6479 50.5444 88.1251 50.479 87.5587H66.272C66.381 88.1251 66.4899 88.6261 66.577 89.0835H50.6533Z" fill="black"/>
<path d="M30.7765 38.4792C30.7765 38.4792 29.8398 36.7147 28.4456 37.7167C27.0733 38.7406 29.6219 47.6283 32.5845 47.9332L30.7765 38.4792Z" fill="#FBBF99"/>
<path d="M57.3085 38.284C57.3085 38.284 58.2452 36.5196 59.6394 37.5216C61.0117 38.5454 58.463 47.4331 55.5005 47.7381L57.3085 38.284Z" fill="#FBBF99"/>
</g>
<defs>
<filter id="filter0_d_32_3884" x="25.3699" y="23.0231" width="37.0614" height="44.6173" filterUnits="userSpaceOnUse" color-interpolation-filters="sRGB">
<feFlood flood-opacity="0" result="BackgroundImageFix"/>
<feColorMatrix in="SourceAlpha" type="matrix" values="0 0 0 0 0 0 0 0 0 0 0 0 0 0 0 0 0 0 127 0" result="hardAlpha"/>
<feOffset dy="4.41815"/>
<feGaussianBlur stdDeviation="2.20908"/>
<feComposite in2="hardAlpha" operator="out"/>
<feColorMatrix type="matrix" values="0 0 0 0 0.545833 0 0 0 0 0.226564 0 0 0 0 0.0454861 0 0 0 0.16 0"/>
<feBlend mode="normal" in2="BackgroundImageFix" result="effect1_dropShadow_32_3884"/>
<feBlend mode="normal" in="SourceGraphic" in2="effect1_dropShadow_32_3884" result="shape"/>
</filter>
</defs>
</svg>
