<svg width="88" height="88" viewBox="0 0 88 88" fill="none" xmlns="http://www.w3.org/2000/svg">
<path fill-rule="evenodd" clip-rule="evenodd" d="M44.1895 87.9998C68.4028 87.8977 88 68.2376 88 44.0002C88 33.6822 84.4485 24.1936 78.5012 16.6904L78.0176 18.3528L74.9495 13.0672L75.6854 13.4709C67.682 5.16633 56.4443 0.000213623 44 0.000213623C30.3185 0.000213623 18.0954 6.24464 10.0254 16.0389L11.267 20.4348C10.6769 19.7384 9.78835 18.6605 8.8739 17.4978C3.3036 24.8691 0 34.0489 0 44.0002C0 53.3396 2.90978 61.9994 7.87221 69.1224C8.93349 68.1797 10.448 66.6287 11.3929 65.6251L8.38601 69.8443C16.1955 80.5874 28.7473 87.6605 42.9663 87.9883L43.8667 84.9999L44.1895 87.9998Z" fill="#FDF3E7"/>
<mask id="mask0_28_2470" style="mask-type:alpha" maskUnits="userSpaceOnUse" x="0" y="0" width="88" height="88">
<path fill-rule="evenodd" clip-rule="evenodd" d="M44.1895 87.9998C68.4028 87.8977 88 68.2376 88 44.0002C88 33.6822 84.4485 24.1936 78.5012 16.6904L78.0176 18.3528L74.9495 13.0672L75.6854 13.4709C67.682 5.16633 56.4443 0.000213623 44 0.000213623C30.3185 0.000213623 18.0954 6.24464 10.0254 16.0389L11.267 20.4348C10.6769 19.7384 9.78835 18.6605 8.8739 17.4978C3.3036 24.8691 0 34.0489 0 44.0002C0 53.3396 2.90978 61.9994 7.87221 69.1224C8.93349 68.1797 10.448 66.6287 11.3929 65.6251L8.38601 69.8443C16.1955 80.5874 28.7473 87.6605 42.9663 87.9883L43.8667 84.9999L44.1895 87.9998Z" fill="#FD8D41"/>
</mask>
<g mask="url(#mask0_28_2470)">
<path fill-rule="evenodd" clip-rule="evenodd" d="M38.1582 5.18371C37.5144 5.40338 36.9356 5.98885 36.477 6.80478C28.4597 8.7741 25.6462 14.7656 25.6462 14.7656L25.0422 16.455C24.9249 16.7358 24.818 17.0402 24.7212 17.3532L7.5498 65.3884C8.00332 66.0663 8.55098 66.6983 9.17348 67.2873C9.03615 67.3152 8.9047 67.3422 8.77968 67.3682C7.74269 67.3235 7.12631 67.3529 7.28707 67.7407L7.28757 67.7415L7.28711 67.742L7.28839 67.743L7.41605 67.9674C5.3476 68.5855 2.9102 69.5606 1.9295 70.9066C0.0844836 73.4389 -2.13965 87.9997 -2.13965 87.9997H43.632H43.7836H89.5552C89.5805 87.9997 87.3311 73.4389 85.4861 70.9066C84.5366 69.6209 82.2711 68.6737 80.2706 68.0527L80.3804 67.8813C80.3391 67.8522 80.2956 67.8253 80.2499 67.8006L80.3298 67.742C80.2699 67.6753 79.4647 67.4924 78.2517 67.2486C78.8565 66.6712 79.3894 66.0528 79.8325 65.3904L63.9062 20.776C64.2879 20.8765 64.6681 20.982 65.0451 21.0929C65.0451 21.0929 64.8934 19.8033 64.5396 18.4199C64.4016 18.3823 64.2435 18.3399 64.0667 18.2938C63.8728 17.5027 63.6182 16.6721 63.296 16.0393C63.296 16.0393 62.9493 15.7525 61.9774 15.3727L61.7614 14.7677C61.7142 14.6648 61.6838 14.4661 61.6424 14.1957C61.3829 12.5006 60.6917 7.98548 52.7367 6.56111C52.3036 5.87259 51.7782 5.38085 51.2004 5.18371C49.9943 4.77215 48.8947 5.12953 47.7389 5.50517C46.7875 5.81437 45.798 6.13595 44.6797 6.05126V6.19377L44.6789 6.19381V6.05126C43.5606 6.13595 42.5711 5.81437 41.6197 5.50517C40.4639 5.12953 39.3643 4.77215 38.1582 5.18371Z" fill="#4D3423" fill-opacity="0.2"/>
<g filter="url(#filter0_d_28_2470)">
<path d="M81.0436 71.4585C79.3792 69.0293 73.1712 67.8597 73.1712 67.8597L54.1199 68.1521V53.2844L43.8632 59.4699L33.6066 53.2844V68.1521L14.5553 67.8597C14.5553 67.8597 8.32481 69.0293 6.68284 71.4585C5.04088 73.8877 3.06152 87.8556 3.06152 87.8556H43.7958H43.9307H84.665C84.6875 87.8556 82.6856 73.8877 81.0436 71.4585Z" fill="#F6B38D"/>
<path opacity="0.6" d="M43.9522 87.4721V83.086C28.5222 83.0635 19.8626 71.3224 17.8157 67.9485C14.6218 68.5783 11.1129 67.5436 11.4503 68.4208L12.305 70.0403C12.305 70.0628 20.3349 88.8891 43.9522 87.4721Z" fill="#FD8D41"/>
<path opacity="0.5" d="M43.9531 87.4721V83.086C59.1132 83.3784 68.0428 71.3224 70.0896 67.9485C73.2836 68.5783 75.5553 67.836 76.5 68.5558L75.5778 70.1078C75.5778 70.1302 67.5704 88.8891 43.9531 87.4721Z" fill="#FA9C5F"/>
<path d="M43.9531 86.5503V82.1642C28.5231 82.1417 19.8634 70.4005 17.8166 67.0266C14.6226 67.6564 11.5636 68.2862 11.4512 68.4212L12.3059 69.0959C12.3059 69.1184 20.3358 87.9448 43.9531 86.5503Z" fill="#FD8D41"/>
<path opacity="0.6" d="M43.9531 86.5503V82.1642C28.5231 82.1417 19.8634 70.4005 17.8166 67.0266C14.6226 67.6564 11.5636 68.2862 11.4512 68.4212L12.3059 69.0959C12.3059 69.1184 20.3358 87.9448 43.9531 86.5503Z" fill="#FD8D41"/>
<path d="M43.9531 86.5503V82.1642C59.1132 82.4566 68.0428 70.4005 70.0896 67.0266C73.2836 67.6564 76.3426 68.2862 76.455 68.4212L75.6003 69.0959C75.6003 69.1184 67.5704 87.9448 43.9531 86.5503Z" fill="#FD8D41"/>
<path d="M34.3723 53.5311C34.3048 53.7785 33.0452 69.8833 35.9243 75.7538C35.9243 75.7538 29.8063 75.1915 28.7266 68.9835C27.647 62.7756 31.2008 45.5012 31.2008 45.5012L34.7547 50.9219L34.3723 53.5311Z" fill="black"/>
<path d="M53.5344 53.5306C53.6019 53.7781 54.8615 69.8828 51.9824 75.7534C51.9824 75.7534 58.1004 75.1911 59.1801 68.9831C60.2597 62.7751 57.3582 44.4211 57.3582 44.4211L53.1295 50.9215L53.5344 53.5306Z" fill="black"/>
<g filter="url(#filter1_d_28_2470)">
<path d="M52.4331 23.9755C44.4257 22.536 43.9758 25.73 43.9758 25.73C43.9533 25.7524 43.9533 26.0673 43.9533 26.5847C43.9533 26.0673 43.9308 25.7524 43.9308 25.73C43.9308 25.73 43.481 22.536 35.4736 23.9755C27.4662 25.4151 29.6705 37.4036 29.6705 37.4036C29.6705 37.4036 30.7726 48.56 33.8766 54.3406C36.9806 60.1213 43.9308 60.5486 43.9308 60.5486H43.9983C43.9983 60.5486 50.9486 60.1437 54.0525 54.3406C57.1565 48.56 58.2587 37.4036 58.2587 37.4036C58.2587 37.4036 60.4405 25.4151 52.4331 23.9755Z" fill="#F9BE98"/>
</g>
<path d="M46 39.9998C48 37.4994 51 35.9996 53.5 40.0001C52.5 41 49.5 40.9998 46 39.9998Z" fill="black"/>
<path d="M41.5 39.9998C39.5 37.4994 36.5 35.9996 34 40.0001C35 41 38 40.9998 41.5 39.9998Z" fill="black"/>
<path d="M52.4331 23.9755C44.4257 22.536 43.9758 25.73 43.9758 25.73C43.9533 25.7524 43.9533 26.0673 43.9533 26.5847C43.9533 26.0673 43.9308 25.7524 43.9308 25.73C43.9308 25.73 43.481 22.536 35.4736 23.9755C27.4662 25.4151 29.6705 37.4036 29.6705 37.4036C29.6705 37.4036 30.4127 44.9837 32.4146 50.8768C32.8644 40.1927 34.214 30.161 34.214 30.161H44.3807H44.4032H54.5699C54.5699 30.161 55.717 38.7532 56.2343 48.515C57.6964 43.1393 58.2587 37.4261 58.2587 37.4261C58.2587 37.4261 60.4405 25.4151 52.4331 23.9755Z" fill="#FBBF99"/>
<path d="M43.8716 28.6468H32.7602C32.7602 28.6468 28.0143 64.4101 32.7602 75.3641C32.7602 75.3641 16.4305 73.812 11.6846 66.1645L27.7893 17.6029C27.7893 17.6029 31.748 8.51581 43.8941 9.43801V28.6468H43.8716Z" fill="black"/>
<path d="M27.4215 18.8237C27.4215 18.8237 29.2884 17.1592 36.711 16.5969L38.1505 21.2979C38.1505 21.2979 31.8301 21.6802 26.2969 23.4122C26.3194 23.4122 26.6568 20.4432 27.4215 18.8237Z" fill="#FD8D41"/>
<path d="M37.9543 19.3547C33.0508 19.5122 28.7547 20.6593 27.2252 21.1091C26.9103 22.4362 26.7754 23.6733 26.7754 23.6733C32.3086 21.9189 38.629 21.559 38.629 21.559L37.9543 19.3547Z" fill="#FD8D41"/>
<path d="M18.5089 56.5225C18.5089 56.5225 18.9587 56.1626 19.656 56.5225C20.3533 56.8823 20.2858 57.2647 20.2858 57.2647L19.2061 60.5711L18.2839 61.6058C18.2839 61.6058 18.7113 61.8082 18.5763 62.3031C18.4414 62.7979 18.194 62.7529 18.194 62.7529L17.924 63.3602C17.924 63.3602 18.5089 65.5645 18.2165 66.1493C17.9016 66.7341 16.3945 67.8813 16.3945 67.8813C16.3945 67.8813 15.2474 65.497 15.6298 64.8673C16.0122 64.2375 17.2718 63.0229 17.2718 63.0229L17.4067 62.438C17.4067 62.438 16.9119 62.1906 17.0918 61.7858C17.2718 61.3809 17.6091 61.3134 17.6091 61.3134L17.4967 59.7389L18.5089 56.5225Z" fill="#FD8D41"/>
<g opacity="0.6">
<path opacity="0.6" d="M18.2161 66.1275C18.4185 65.7226 18.2161 64.5305 18.0587 63.8332C17.6538 64.2381 17.114 64.8229 16.889 65.2053C16.6866 65.5652 16.9565 66.4649 17.2264 67.1846C17.6088 66.8472 18.0587 66.4199 18.2161 66.1275Z" fill="#FD8D41"/>
<path opacity="0.6" d="M18.3501 62.1451C18.2601 62.3476 18.3276 62.505 18.4176 62.6175C18.4626 62.55 18.5076 62.46 18.5525 62.3026C18.5975 62.1226 18.575 61.9877 18.53 61.8752C18.4626 61.9427 18.3951 62.0102 18.3501 62.1451Z" fill="#FD8D41"/>
<path opacity="0.6" d="M20.2844 57.2646C20.2844 57.2646 20.3294 57.0397 20.037 56.7697C19.857 56.8147 19.7671 56.8822 19.7671 56.8822L18.7549 60.0987L18.8224 61.0209L19.2272 60.571L20.2844 57.2646Z" fill="#FD8D41"/>
</g>
<path d="M19.9469 56.3653C19.9469 56.3653 20.4192 55.8704 21.2964 56.2078C22.1736 56.5452 22.1287 57.0176 22.1287 57.0176L21.2739 61.0437L20.3067 62.3933C20.3067 62.3933 20.8466 62.5732 20.7341 63.1581C20.6216 63.7654 20.3517 63.7204 20.3517 63.7204L20.1043 64.4626C20.1043 64.4626 21.094 67.0043 20.8016 67.7241C20.5092 68.4438 18.8897 69.9958 18.8897 69.9958C18.8897 69.9958 17.2252 67.3417 17.5851 66.532C17.945 65.7447 19.2946 64.1477 19.2946 64.1477L19.3621 63.4505C19.3621 63.4505 18.7548 63.2255 18.9122 62.7307C19.0696 62.2359 19.452 62.1234 19.452 62.1234L19.1146 60.279L19.9469 56.3653Z" fill="#FD8D41"/>
<g opacity="0.6">
<path opacity="0.6" d="M20.3287 63.7872L20.3512 63.7197C20.3512 63.7197 20.6211 63.7647 20.7336 63.1574C20.801 62.7975 20.6211 62.5726 20.4861 62.4826C20.4187 62.5051 20.0588 62.6626 19.9238 63.1349C19.8114 63.4948 20.1487 63.7197 20.3287 63.7872Z" fill="#FD8D41"/>
<path opacity="0.6" d="M22.1289 56.9944C22.1289 56.9944 22.1739 56.5671 21.4092 56.2522C20.9818 56.3196 20.7569 56.5446 20.7569 56.5446L20.0371 60.5933L20.4195 62.2127L21.2517 61.0431L22.1289 56.9944Z" fill="#FD8D41"/>
<path opacity="0.6" d="M20.8241 67.7242C21.049 67.1619 20.4867 65.4524 20.2393 64.7776C19.8569 65.25 18.9122 66.4196 18.6198 67.0719C18.4174 67.5442 18.9572 68.6239 19.4521 69.4336C19.9469 68.9163 20.6442 68.174 20.8241 67.7242Z" fill="#FD8D41"/>
</g>
<path d="M24.2891 53.4634L24.6939 50.6519C24.6939 50.6519 24.9189 50.1795 25.7511 50.3595C26.5833 50.5394 26.5158 51.0567 26.5158 51.0567L26.0885 53.9133C26.0885 53.9133 25.7286 53.5084 24.2891 53.4634Z" fill="#FD8D41"/>
<path d="M20.8477 52.8336L21.185 50.022C21.185 50.022 21.365 49.5496 22.0398 49.7296C22.7145 49.9095 22.6696 50.4268 22.6696 50.4268L22.2872 53.2609C22.2872 53.2834 21.9948 52.901 20.8477 52.8336Z" fill="#FD8D41"/>
<path d="M19.6562 52.8336L19.9936 50.022C19.9936 50.022 20.1736 49.5496 20.8484 49.7296C21.5231 49.9095 21.4782 50.4268 21.4782 50.4268L21.0958 53.2609C21.1183 53.2834 20.8259 52.901 19.6562 52.8336Z" fill="#FD8D41"/>
<path d="M23.7049 57.4449C23.7049 57.4449 24.2223 56.9276 25.1895 57.2425C26.1791 57.5574 26.1342 58.0297 26.1342 58.0297L25.3694 62.1909L24.3572 63.6079C24.3572 63.6079 24.942 63.7654 24.8521 64.3727C24.7621 65.0025 24.4472 64.9575 24.4472 64.9575L24.2223 65.7222C24.2223 65.7222 25.4144 68.2864 25.122 69.0286C24.8296 69.7709 23.0976 71.4354 23.0976 71.4354C23.0976 71.4354 21.1633 68.7812 21.5232 67.949C21.883 67.1168 23.3001 65.4523 23.3001 65.4523L23.3451 64.7325C23.3451 64.7325 22.6703 64.5301 22.8277 64.0128C22.9852 63.4954 23.39 63.3605 23.39 63.3605L22.9402 61.4711L23.7049 57.4449Z" fill="#FD8D41"/>
<g opacity="0.7">
<path opacity="0.7" d="M25.1219 69.0521C25.3244 68.5123 24.762 67.0278 24.4247 66.2405C23.9973 66.7803 23.1876 67.7925 22.9401 68.3773C22.7377 68.8497 23.2775 69.9293 23.7724 70.7615C24.3122 70.2217 24.9645 69.5019 25.1219 69.0521Z" fill="#FD8D41"/>
<path opacity="0.7" d="M24.7396 63.8567C24.6046 63.9241 24.3797 64.1041 24.2897 64.4415C24.2222 64.6889 24.3347 64.8688 24.4696 64.9813C24.4696 64.9813 24.7845 65.0038 24.8745 64.3965C24.897 64.1491 24.8295 63.9691 24.7396 63.8567Z" fill="#FD8D41"/>
<path opacity="0.7" d="M24.4014 61.9214L24.6938 63.136L25.3686 62.1913L26.1333 58.0301C26.1333 58.0301 26.1558 57.8052 25.8634 57.5803C25.3686 57.6253 25.1211 57.8727 25.1211 57.8727L24.4014 61.9214Z" fill="#FD8D41"/>
</g>
<path d="M25.0538 53.5311L25.4812 50.3147C24.8739 50.2697 24.6939 50.6295 24.6939 50.6295L24.2891 53.4636C24.604 53.4861 24.8514 53.5086 25.0538 53.5311Z" fill="#FD8D41"/>
<path d="M21.8373 49.7082C21.3425 49.6632 21.185 50.0231 21.185 50.0231L20.8477 52.8347C21.0726 52.8347 21.275 52.8797 21.455 52.9022L21.8373 49.7082Z" fill="#FD8D41"/>
<path d="M20.6234 49.7072C20.1511 49.6848 20.0161 50.0221 20.0161 50.0221L19.6787 52.8337C19.8811 52.8337 20.0611 52.8562 20.2185 52.9012C20.3535 51.979 20.6234 49.7072 20.6234 49.7072Z" fill="#FD8D41"/>
<path d="M42.1992 12.257V30.3412C43.3014 30.3637 44.3585 30.1387 44.3585 30.1387V12.257H42.1992Z" fill="black"/>
<path opacity="0.8" d="M39.9108 11.468C39.9108 11.468 37.8865 12.2777 37.5716 15.1118C37.2567 17.9459 41.4403 23.9964 41.8002 26.1107V13.3124C41.8227 13.3124 41.8902 11.7379 39.9108 11.468Z" fill="black"/>
<path d="M43.8242 28.6482H54.9356C54.9356 28.6482 59.6816 64.4115 54.9356 75.3655C54.9356 75.3655 71.2653 73.8135 76.0112 66.166L59.929 17.6043C59.5466 16.7046 60.4013 8.17983 43.8242 9.43942V28.6482Z" fill="black"/>
<g filter="url(#filter2_d_28_2470)">
<path d="M61.2964 18.8237C61.2964 18.8237 59.4295 17.1592 52.0069 16.5969L50.5674 21.2979C50.5674 21.2979 56.8878 21.6802 62.421 23.4122C62.3985 23.4122 62.0611 20.4431 61.2964 18.8237Z" fill="#FD8D41"/>
</g>
<path d="M51.6728 19.3547C56.5762 19.5122 60.8723 20.6593 62.4018 21.1091C62.7167 22.4362 62.8517 23.6733 62.8517 23.6733C57.3185 21.9189 50.998 21.559 50.998 21.559L51.6728 19.3547Z" fill="#FD8D41"/>
<path d="M69.1293 56.5225C69.1293 56.5225 68.6794 56.1626 67.9822 56.5225C67.2849 56.8823 67.3524 57.2647 67.3524 57.2647L68.432 60.5711L69.3542 61.6058C69.3542 61.6058 68.9268 61.8082 69.0618 62.3031C69.1968 62.7979 69.4442 62.7529 69.4442 62.7529L69.7141 63.3602C69.7141 63.3602 69.1293 65.5645 69.4217 66.1493C69.7366 66.7341 71.2436 67.8813 71.2436 67.8813C71.2436 67.8813 72.3907 65.497 72.0083 64.8673C71.626 64.2375 70.3664 63.0229 70.3664 63.0229L70.2314 62.438C70.2314 62.438 70.7263 62.1906 70.5463 61.7858C70.3664 61.3809 70.029 61.3134 70.029 61.3134L70.1415 59.7389L69.1293 56.5225Z" fill="#FD8D41"/>
<g opacity="0.6">
<path opacity="0.6" d="M69.421 66.1275C69.2185 65.7226 69.421 64.5305 69.5784 63.8332C69.9833 64.2381 70.5231 64.8229 70.748 65.2053C70.9505 65.5652 70.6805 66.4649 70.4106 67.1846C70.0283 66.8472 69.5784 66.4199 69.421 66.1275Z" fill="#FD8D41"/>
<path opacity="0.6" d="M69.2865 62.1451C69.3765 62.3476 69.309 62.505 69.219 62.6175C69.1741 62.55 69.1291 62.46 69.0841 62.3026C69.0391 62.1226 69.0616 61.9877 69.1066 61.8752C69.1741 61.9427 69.2415 62.0102 69.2865 62.1451Z" fill="#FD8D41"/>
<path opacity="0.6" d="M67.3521 57.2646C67.3521 57.2646 67.3071 57.0397 67.5995 56.7697C67.7795 56.8147 67.8694 56.8822 67.8694 56.8822L68.8816 60.0987L68.8141 61.0209L68.4093 60.571L67.3521 57.2646Z" fill="#FD8D41"/>
</g>
<path d="M67.688 56.3653C67.688 56.3653 67.2157 55.8704 66.3385 56.2078C65.4613 56.5452 65.5062 57.0176 65.5062 57.0176L66.361 61.0437L67.3282 62.3933C67.3282 62.3933 66.7883 62.5732 66.9008 63.1581C67.0133 63.7654 67.2832 63.7204 67.2832 63.7204L67.5306 64.4626C67.5306 64.4626 66.5409 67.0043 66.8333 67.7241C67.1257 68.4438 68.7452 69.9958 68.7452 69.9958C68.7452 69.9958 70.4097 67.3417 70.0498 66.532C69.6899 65.7447 68.3403 64.1477 68.3403 64.1477L68.2729 63.4505C68.2729 63.4505 68.8802 63.2255 68.7227 62.7307C68.5653 62.2359 68.1829 62.1234 68.1829 62.1234L68.5203 60.279L67.688 56.3653Z" fill="#FD8D41"/>
<g opacity="0.6">
<path opacity="0.6" d="M67.3062 63.7872L67.2837 63.7197C67.2837 63.7197 67.0138 63.7647 66.9014 63.1574C66.8339 62.7975 67.0138 62.5726 67.1488 62.4826C67.2163 62.5051 67.5762 62.6626 67.7111 63.1349C67.8236 63.4948 67.4862 63.7197 67.3062 63.7872Z" fill="#FD8D41"/>
<path opacity="0.6" d="M65.4849 56.9944C65.4849 56.9944 65.4399 56.5671 66.2046 56.2522C66.632 56.3196 66.8569 56.5446 66.8569 56.5446L67.5767 60.5933L67.1943 62.2127L66.3621 61.0431L65.4849 56.9944Z" fill="#FD8D41"/>
<path opacity="0.6" d="M66.8108 67.7241C66.5859 67.1618 67.1482 65.4523 67.3956 64.7776C67.778 65.2499 68.7227 66.4195 69.0151 67.0718C69.2175 67.5442 68.6777 68.6238 68.1829 69.4335C67.6655 68.9162 66.9908 68.174 66.8108 67.7241Z" fill="#FD8D41"/>
</g>
<path d="M63.3267 53.4634L62.9218 50.6519C62.9218 50.6519 62.6969 50.1795 61.8647 50.3595C61.0325 50.5394 61.0999 51.0567 61.0999 51.0567L61.5723 53.8908C61.5498 53.9133 61.9097 53.5084 63.3267 53.4634Z" fill="#FD8D41"/>
<path d="M66.7903 52.8336L66.4529 50.022C66.4529 50.022 66.273 49.5496 65.5982 49.7296C64.9234 49.9095 64.9684 50.4268 64.9684 50.4268L65.3508 53.2609C65.3508 53.2834 65.6432 52.901 66.7903 52.8336Z" fill="#FD8D41"/>
<path d="M67.9592 52.8336L67.6219 50.022C67.6219 50.022 67.4419 49.5496 66.7671 49.7296C66.0924 49.9095 66.1373 50.4268 66.1373 50.4268L66.5197 53.2609C66.5197 53.2834 66.8121 52.901 67.9592 52.8336Z" fill="#FD8D41"/>
<path d="M63.9334 57.4449C63.9334 57.4449 63.4161 56.9276 62.4489 57.2425C61.4592 57.5574 61.5042 58.0297 61.5042 58.0297L62.269 62.1909L63.2811 63.6079C63.2811 63.6079 62.6963 63.7654 62.7863 64.3727C62.8763 65.0025 63.1912 64.9575 63.1912 64.9575L63.4161 65.7222C63.4161 65.7222 62.224 68.2864 62.5164 69.0286C62.8088 69.7709 64.5407 71.4354 64.5407 71.4354C64.5407 71.4354 66.4751 68.7812 66.1152 67.949C65.7553 67.1168 64.3383 65.4523 64.3383 65.4523L64.2933 64.7325C64.2933 64.7325 64.9681 64.5301 64.8106 64.0128C64.6532 63.4954 64.2483 63.3605 64.2483 63.3605L64.6982 61.4711L63.9334 57.4449Z" fill="#FD8D41"/>
<g opacity="0.7">
<path opacity="0.7" d="M62.4969 69.052C62.2945 68.5122 62.8568 67.0277 63.1942 66.2404C63.6216 66.7803 64.4313 67.7924 64.6787 68.3773C64.8812 68.8496 64.3413 69.9292 63.8465 70.7615C63.3292 70.2217 62.6769 69.5019 62.4969 69.052Z" fill="#FD8D41"/>
<path opacity="0.7" d="M62.9001 63.8567C63.035 63.9241 63.2599 64.1041 63.3499 64.4415C63.4174 64.6889 63.3049 64.8688 63.17 64.9813C63.17 64.9813 62.8551 65.0038 62.7651 64.3965C62.7426 64.1491 62.8101 63.9691 62.9001 63.8567Z" fill="#FD8D41"/>
<path opacity="0.7" d="M63.2382 61.9214L62.9458 63.136L62.271 62.1913L61.5063 58.0301C61.5063 58.0301 61.4838 57.8052 61.7762 57.5803C62.271 57.6253 62.5184 57.8727 62.5184 57.8727L63.2382 61.9214Z" fill="#FD8D41"/>
</g>
<path d="M62.5836 53.5311L62.1562 50.3147C62.7636 50.2697 62.9435 50.6295 62.9435 50.6295L63.3484 53.4411C63.0335 53.4861 62.786 53.5086 62.5836 53.5311Z" fill="#FD8D41"/>
<path d="M65.8008 49.7082C66.2956 49.6632 66.4531 50.0231 66.4531 50.0231L66.7905 52.8347C66.5655 52.8347 66.3631 52.8797 66.1832 52.9022L65.8008 49.7082Z" fill="#FD8D41"/>
<path d="M67.0156 49.7073C67.488 49.6849 67.6229 50.0222 67.6229 50.0222L67.9603 52.8338C67.7579 52.8338 67.5779 52.8563 67.4205 52.9013C67.2855 51.9791 67.0156 49.7073 67.0156 49.7073Z" fill="#FD8D41"/>
<path d="M46.5177 12.257V30.3412C45.4156 30.3637 44.3584 30.1387 44.3584 30.1387V12.257H46.5177Z" fill="black"/>
<path d="M48.3721 11.468C48.3721 11.468 50.3964 12.2777 50.7113 15.1118C51.0262 17.9459 47.8599 27.8859 47.5 30.0002L50.7113 21.0002L52.5 17.5002L53 12.5002L51.5 9.50021L46.4827 10.0002L46.4827 13.3124C46.4827 13.3124 46.4152 11.7379 48.3721 11.468Z" fill="#FD8D41"/>
<path d="M41.1103 11.468C41.1103 11.468 39.086 12.2777 38.7711 15.1118C38.4562 17.9459 41.6225 27.8859 41.9824 30.0002L38.7711 21.0002L36.9824 17.5002L36.5 12.5002L37.9824 9.50021L42.9997 10.0002L42.9997 13.3124C42.9997 13.3124 43.0672 11.7379 41.1103 11.468Z" fill="#FD8D41"/>
<path d="M47 14.8879H42V16.5935H47V14.8879Z" fill="#FDF3E7"/>
<path d="M47 18.593H42V20.2985H47V18.593Z" fill="#FDF3E7"/>
<path d="M47 22.2981H42V24.0036H47V22.2981Z" fill="#FDF3E7"/>
<path d="M47 26.0031H42V27.7087H47V26.0031Z" fill="#FDF3E7"/>
<path d="M47 29.7082H42V31.4138H47V29.7082Z" fill="#FDF3E7"/>
<path d="M50.5306 8.41061C52.4875 9.13038 53.7696 13.9438 52.42 17.6776C51.0705 21.4114 49.7434 27.6194 49.1361 29.2838C48.8887 29.9361 48.1464 30.206 47.3592 30.296C47.764 28.609 48.7087 24.4029 49.9908 21.9737C51.6553 18.8697 54.1295 12.6842 51.6103 10.4799C49.1811 8.36563 48.5963 13.8988 44.7275 13.7189V9.24284C46.9318 9.42278 48.5738 7.69085 50.5306 8.41061Z" fill="#FD8D41"/>
<path d="M38.9249 8.41061C36.968 9.13038 35.6859 13.9438 37.0355 17.6776C38.385 21.4114 39.7121 27.6194 40.3194 29.2838C40.5668 29.9361 41.3091 30.206 42.0963 30.296C41.6915 28.609 40.7468 24.4029 39.4647 21.9737C37.8002 18.8697 35.326 12.6842 37.8452 10.4799C40.2744 8.36563 40.8592 13.8988 44.728 13.7189V9.24284C42.5237 9.42278 40.8817 7.69085 38.9249 8.41061Z" fill="#FD8D41"/>
</g>
</g>
<defs>
<filter id="filter0_d_28_2470" x="-18.4969" y="-13.3239" width="124.72" height="122.738" filterUnits="userSpaceOnUse" color-interpolation-filters="sRGB">
<feFlood flood-opacity="0" result="BackgroundImageFix"/>
<feColorMatrix in="SourceAlpha" type="matrix" values="0 0 0 0 0 0 0 0 0 0 0 0 0 0 0 0 0 0 127 0" result="hardAlpha"/>
<feOffset/>
<feGaussianBlur stdDeviation="10.7792"/>
<feComposite in2="hardAlpha" operator="out"/>
<feColorMatrix type="matrix" values="0 0 0 0 0.992157 0 0 0 0 0.827451 0 0 0 0 0.286275 0 0 0 0.2 0"/>
<feBlend mode="normal" in2="BackgroundImageFix" result="effect1_dropShadow_28_2470"/>
<feBlend mode="normal" in="SourceGraphic" in2="effect1_dropShadow_28_2470" result="shape"/>
</filter>
<filter id="filter1_d_28_2470" x="25.0809" y="23.6028" width="37.7611" height="45.5692" filterUnits="userSpaceOnUse" color-interpolation-filters="sRGB">
<feFlood flood-opacity="0" result="BackgroundImageFix"/>
<feColorMatrix in="SourceAlpha" type="matrix" values="0 0 0 0 0 0 0 0 0 0 0 0 0 0 0 0 0 0 127 0" result="hardAlpha"/>
<feOffset dy="4.31169"/>
<feGaussianBlur stdDeviation="2.15584"/>
<feComposite in2="hardAlpha" operator="out"/>
<feColorMatrix type="matrix" values="0 0 0 0 0.545833 0 0 0 0 0.226564 0 0 0 0 0.0454861 0 0 0 0.16 0"/>
<feBlend mode="normal" in2="BackgroundImageFix" result="effect1_dropShadow_28_2470"/>
<feBlend mode="normal" in="SourceGraphic" in2="effect1_dropShadow_28_2470" result="shape"/>
</filter>
<filter id="filter2_d_28_2470" x="46.2557" y="16.5969" width="20.4769" height="15.4387" filterUnits="userSpaceOnUse" color-interpolation-filters="sRGB">
<feFlood flood-opacity="0" result="BackgroundImageFix"/>
<feColorMatrix in="SourceAlpha" type="matrix" values="0 0 0 0 0 0 0 0 0 0 0 0 0 0 0 0 0 0 127 0" result="hardAlpha"/>
<feOffset dy="4.31169"/>
<feGaussianBlur stdDeviation="2.15584"/>
<feComposite in2="hardAlpha" operator="out"/>
<feColorMatrix type="matrix" values="0 0 0 0 0 0 0 0 0 0 0 0 0 0 0 0 0 0 0.25 0"/>
<feBlend mode="normal" in2="BackgroundImageFix" result="effect1_dropShadow_28_2470"/>
<feBlend mode="normal" in="SourceGraphic" in2="effect1_dropShadow_28_2470" result="shape"/>
</filter>
</defs>
</svg>
