<svg width="116" height="116" viewBox="0 0 116 116" fill="none" xmlns="http://www.w3.org/2000/svg">
<g filter="url(#filter0_d_122_193)">
<path fill-rule="evenodd" clip-rule="evenodd" d="M9.99994 58.2069C10.1114 84.6214 31.5588 106 57.9995 106C69.2554 106 79.6063 102.126 87.7916 95.6379L85.9781 95.1104L91.7441 91.7634L91.3035 92.5666C100.363 83.8355 106 71.576 106 58C106 43.0747 99.1875 29.7405 88.5028 20.9368L83.7068 22.2915C84.4665 21.6477 85.6427 20.6783 86.9111 19.6806C78.8697 13.6039 68.8555 10 57.9995 10C47.8109 10 38.3637 13.1744 30.593 18.5882C31.6214 19.7459 33.3134 21.3981 34.4083 22.4289L29.8055 19.1487C18.0859 27.6682 10.37 41.3611 10.0125 56.8727L13.2721 57.8548L9.99994 58.2069Z" fill="#1D1A25"/>
</g>
<mask id="mask0_122_193" style="mask-type:alpha" maskUnits="userSpaceOnUse" x="14" y="14" width="88" height="88">
<path fill-rule="evenodd" clip-rule="evenodd" d="M58.1895 102C82.4029 101.897 102 82.2373 102 58C102 47.682 98.4485 38.1935 92.5012 30.6902L92.0176 32.3525L88.9496 27.067L89.6853 27.4706C81.6819 19.1661 70.4443 14 58 14C44.3185 14 32.0954 20.2444 24.0254 30.0387L25.267 34.4346C24.677 33.7382 23.7884 32.6602 22.8739 31.4976C17.3036 38.8689 14 48.0486 14 58C14 67.3394 16.9098 75.9992 21.8722 83.1222C22.9335 82.1795 24.448 80.6285 25.393 79.6248L22.386 83.8442C30.1955 94.5872 42.7474 101.66 56.9663 101.988L57.8667 98.9996L58.1895 102Z" fill="#FDF3E7"/>
</mask>
<g mask="url(#mask0_122_193)">
<path fill-rule="evenodd" clip-rule="evenodd" d="M58.1895 102C82.4029 101.897 102 82.2373 102 58C102 47.682 98.4485 38.1935 92.5012 30.6902L92.0176 32.3525L88.9496 27.067L89.6853 27.4706C81.6819 19.1661 70.4443 14 58 14C44.3185 14 32.0954 20.2444 24.0254 30.0387L25.267 34.4346C24.677 33.7382 23.7884 32.6602 22.8739 31.4976C17.3036 38.8689 14 48.0486 14 58C14 67.3394 16.9098 75.9992 21.8722 83.1222C22.9335 82.1795 24.448 80.6285 25.393 79.6248L22.386 83.8442C30.1955 94.5872 42.7474 101.66 56.9663 101.988L57.8667 98.9996L58.1895 102Z" fill="#FDF2E4"/>
<path fill-rule="evenodd" clip-rule="evenodd" d="M68.333 26.7874L58.1768 19.1419V19.0019L58.0838 19.0719L57.9883 19L57.9883 19L57.9882 19.0001V19L57.9854 19.0021L47.3475 26.7875L47.4397 28.3413C44.4206 30.5273 43.2534 33.1098 43.2534 33.1098L43.1404 33.4382C42.767 33.5508 42.5707 33.6188 42.5707 33.6188L41.2061 38.3707L41.2089 38.3701C41.1632 38.5083 41.1164 38.6489 41.0685 38.7917C41.0131 38.9572 41.0436 39.1308 41.1358 39.264L40.739 40.4174C40.5852 40.4667 40.4556 40.5851 40.3984 40.7494C40.1799 41.3775 39.9493 42.0334 39.7097 42.7122C39.6493 42.8835 39.6818 43.0651 39.7809 43.2019L39.3902 44.3374C39.2221 44.3788 39.0774 44.5015 39.0155 44.6769C38.7887 45.3188 38.5574 45.9752 38.3239 46.6422C38.2595 46.826 38.302 47.0214 38.4188 47.1605L38.0397 48.2624C37.86 48.2981 37.7037 48.4256 37.6398 48.6112C37.4148 49.2646 37.19 49.9244 36.9673 50.5876C36.9062 50.7696 36.949 50.9614 37.0638 51.0987L36.6777 52.2206C36.511 52.2665 36.3699 52.3927 36.3125 52.5695C36.0968 53.2341 35.8853 53.8988 35.6801 54.5606C35.6344 54.7078 35.6559 54.8598 35.7271 54.9836L35.2828 56.2748C35.1869 56.3418 35.1123 56.4407 35.077 56.5618C34.9065 57.1458 34.7426 57.7251 34.5869 58.2973L27.4942 78.9108C27.6279 79.1185 27.7711 79.3215 27.923 79.5198L26.7151 79.8163L26.6348 79.8355L26.6353 79.8359C21.2162 81.1658 16.915 82.2129 16.5182 82.3095L16.5181 82.3095L16.4883 82.3166L16.4884 82.3167L16.4883 82.3168C17.8509 84.0971 19.3053 85.6826 20.8241 87.0941C19.6206 91.7675 18.5587 98.9787 18.5587 98.9787H58.1534V99H58.4175H58.5496H74.1987L74.3146 98.9787H98.4109C98.4278 98.9787 97.2889 91.293 96.034 86.651C97.3774 85.3584 98.6672 83.9256 99.8838 82.3378L99.8703 82.3344L99.8838 82.3168C99.8838 82.3168 95.4462 81.237 89.7746 79.8452C90.0253 79.5451 90.2559 79.2338 90.4637 78.911L83.4475 58.5105C83.2747 57.8692 83.0914 57.2185 82.8997 56.5618C82.862 56.4325 82.7795 56.3285 82.6741 56.2616L82.2401 54.9995C82.3188 54.873 82.3443 54.7142 82.2966 54.5606C82.0914 53.8988 81.8799 53.2341 81.6642 52.5695C81.605 52.3871 81.4566 52.2585 81.2829 52.2165L80.9026 51.1107C81.025 50.9728 81.0723 50.775 81.0094 50.5876C80.7867 49.9244 80.5618 49.2646 80.3369 48.6112C80.2712 48.4205 80.1079 48.2911 79.9221 48.2597L79.548 47.172C79.6722 47.0323 79.719 46.8311 79.6528 46.6422C79.4193 45.9752 79.1879 45.3188 78.9612 44.6769C78.8975 44.4964 78.7462 44.3719 78.572 44.334L78.1868 43.214C78.2929 43.0759 78.3292 42.8886 78.267 42.7122C78.0274 42.0334 77.7968 41.3775 77.5783 40.7494C77.5194 40.5801 77.3835 40.4594 77.2235 40.4131L76.8324 39.2759C76.9312 39.1412 76.9652 38.9622 76.9081 38.7917C76.8671 38.6692 76.8268 38.5483 76.7873 38.4291C76.8516 38.4463 76.8843 38.4556 76.8843 38.4556L75.2776 33.7036C75.1429 33.6622 75.0083 33.6214 74.8739 33.5813L74.7045 33.0889C74.7045 33.0889 72.9845 29.2835 68.3203 27.0014L68.333 26.7874ZM57.9882 20.586V25.3565L57.9883 25.3565V20.5859L57.9882 20.586Z" fill="#4D3423" fill-opacity="0.2"/>
<path d="M92.6572 84.9237C91.1266 82.6898 85.4177 81.6143 85.4177 81.6143L67.8983 81.8831V68.2109L58.4663 73.8991L49.0344 68.2109V81.8831L31.5149 81.6143C31.5149 81.6143 25.7854 82.6898 24.2755 84.9237C22.7655 87.1576 20.9453 99.9818 20.9453 99.9818H58.4043H58.5284H95.9873C96.008 99.9818 94.1671 87.1369 92.6572 84.9237Z" fill="#F6B38D"/>
<path opacity="0.5" d="M33.5212 81.6342C30.7909 82.3374 28.102 83.02 25.806 83.5992C25.1648 83.9715 24.627 84.4058 24.2961 84.9023C23.7997 85.6262 23.2619 87.5085 22.7861 89.6803C29.0948 95.8855 36.6238 98.7399 43.1186 99.9603H58.1974V79.09C54.7638 79.2969 49.055 77.5801 49.055 77.5801V81.8617L33.5212 81.6342Z" fill="#F6B38D"/>
<path opacity="0.5" d="M92.6564 84.9228C92.3875 84.5298 91.9945 84.1781 91.5395 83.8679C89.0574 83.2267 85.9961 82.4614 82.8728 81.6547L67.8975 81.8822V77.7661C67.6907 77.704 67.4838 77.6626 67.2977 77.6006C67.2977 77.6006 61.5888 79.3174 58.1553 79.1105V100.002H58.4035H58.5276H73.234C79.8943 98.7398 87.6508 95.7819 94.0422 89.2251C93.6079 87.2394 93.1115 85.5847 92.6564 84.9228Z" fill="#F6B38D"/>
<path d="M19 83.7359C19 83.7359 42.1042 77.9029 49.054 76C49.054 76 54.7629 77.7168 58.1964 77.5099V98.856C58.1964 98.856 33.2514 103.055 19 83.7359Z" fill="#FD8D41"/>
<path d="M28.5356 81.3159C38.8363 90.2721 51.7432 91.1202 58.1967 90.8927V87.79C51.8053 87.6246 42.2079 86.156 33.8515 79.9714C32.0313 80.4265 30.2111 80.9022 28.5356 81.3159Z" fill="#FDF3E7"/>
<path d="M38.0093 78.8961C45.3108 82.8054 52.9225 83.7775 58.197 83.881V80.6129C54.1222 80.2819 49.1994 79.3718 44.2559 77.2827C42.3736 77.7791 40.2432 78.3169 38.0093 78.8961Z" fill="#FDF3E7"/>
<path d="M22.8886 82.7634C20.5099 83.3633 19 83.7356 19 83.7356C33.2514 103.034 58.1964 111.856 58.1964 111.856V95.5876C52.4669 96.1047 34.844 96.3529 22.8886 82.7634Z" fill="#F6B38D"/>
<path d="M97.3722 83.7359C97.3722 83.7359 74.268 77.9029 67.3182 76C67.3182 76 61.6094 77.7168 58.1758 77.5099V98.856C58.1551 98.856 83.1209 103.055 97.3722 83.7359Z" fill="#FD8D41"/>
<path d="M87.837 81.3159C77.5363 90.2721 64.6294 91.1202 58.1553 90.8927V87.79C64.5467 87.6246 74.1441 86.156 82.5005 79.9714C84.3414 80.4265 86.1409 80.9022 87.837 81.3159Z" fill="#FDF3E7"/>
<path d="M78.3635 78.8961C71.062 82.8054 63.4502 83.7775 58.1758 83.881V80.6129C62.2506 80.2819 67.1734 79.3718 72.1169 77.2827C73.9785 77.7791 76.1296 78.3169 78.3635 78.8961Z" fill="#FDF3E7"/>
<path d="M93.4836 82.7634C95.8623 83.3633 97.3722 83.7563 97.3722 83.7563C83.1208 103.055 58.1758 108.876 58.1758 108.876V95.6083C63.8846 96.1047 81.5075 96.3529 93.4836 82.7634Z" fill="#F6B38D"/>
<path opacity="0.5" d="M58.5696 76.3608C58.5696 76.3608 64.961 75.9885 67.8154 70.652C67.8361 70.6106 67.8567 70.5486 67.8981 70.5072V68.1699L58.4661 73.8581L49.0342 68.1699V70.259C49.0962 70.3831 49.1583 70.5279 49.241 70.652C52.0954 75.9678 58.4868 76.3608 58.4868 76.3608H58.5696Z" fill="#F6B38D"/>
<path d="M49.7369 68.4379C49.6748 68.6655 48.5165 83.4753 51.1641 88.8739C51.1641 88.8739 45.538 88.3568 44.5452 82.6479C43.5523 76.9391 46.8204 61.0537 46.8204 61.0537L50.0885 66.0386L49.7369 68.4379Z" fill="black"/>
<path d="M67.3598 68.4386C67.4219 68.6661 68.5802 83.476 65.9326 88.8745C65.9326 88.8745 71.5587 88.3574 72.5515 82.6486C73.5444 76.9398 71 56.5 71 56.5L66.9875 66.0392L67.3598 68.4386Z" fill="black"/>
<g filter="url(#filter1_d_122_193)">
<path d="M66.3471 41.2383C58.9835 39.9145 58.5699 42.8517 58.5699 42.8517C58.5492 42.8723 58.5492 43.1619 58.5492 43.6377C58.5492 43.1619 58.5285 42.8723 58.5285 42.8517C58.5285 42.8517 58.1148 39.9145 50.7512 41.2383C43.3877 42.5621 45.4147 53.5867 45.4147 53.5867C45.4147 53.5867 47.1456 63.6842 50 69C52.8544 74.3158 58.5285 73.8707 58.5285 73.8707H58.5905C58.5905 73.8707 64.1456 74.3365 67 69C69.8544 63.6842 71.7043 53.5867 71.7043 53.5867C71.7043 53.5867 73.7106 42.5828 66.3471 41.2383Z" fill="#F9BE98"/>
</g>
<path d="M57.5 54.2614C55 55.5109 51.5 57.0107 50 54.2612C51 53.2613 54.5 52.0111 57.5 54.2614Z" fill="black"/>
<path d="M60 54.2614C62.5 55.5109 66 57.0107 67.5 54.2612C66.5 53.2613 63 52.0111 60 54.2614Z" fill="black"/>
<path d="M58.9418 45.9132H48.7238C48.7238 45.9132 44.3595 78.8009 48.7238 88.8741C48.7238 88.8741 33.7071 87.4469 29.3428 80.4143L44.1526 35.7573C44.1526 35.7573 47.793 27.4009 58.9624 28.2489V45.9132H58.9418Z" fill="black"/>
<path d="M58.9201 45.9133H69.1381C69.1381 45.9133 73.5024 78.8011 69.1381 88.8743C69.1381 88.8743 84.1547 87.4471 88.5191 80.4145L73.7093 35.7368C73.7093 35.7368 70.0688 27.3804 58.8994 28.2284V45.9133H58.9201Z" fill="black"/>
<path d="M79.5 73.5L79.4131 73.9924L79.5 73.5ZM69.5128 40.0326C69.5194 40.3086 69.7485 40.5271 70.0246 40.5205C70.3006 40.514 70.5191 40.2849 70.5125 40.0088L69.5128 40.0326ZM70.5979 42.0337C70.5818 41.758 70.3453 41.5476 70.0696 41.5637C69.7939 41.5798 69.5835 41.8164 69.5996 42.092L70.5979 42.0337ZM69.7466 44.1402C69.7697 44.4153 70.0115 44.6196 70.2867 44.5965C70.5619 44.5734 70.7662 44.3315 70.7431 44.0564L69.7466 44.1402ZM70.9356 46.0834C70.9067 45.8088 70.6606 45.6096 70.386 45.6386C70.1113 45.6675 69.9122 45.9136 69.9411 46.1882L70.9356 46.0834ZM70.1757 48.2295C70.2098 48.5035 70.4595 48.6981 70.7336 48.664C71.0076 48.63 71.2021 48.3802 71.1681 48.1062L70.1757 48.2295ZM71.437 50.125C71.3981 49.8516 71.145 49.6615 70.8716 49.7003C70.5982 49.7391 70.4081 49.9922 70.4469 50.2656L71.437 50.125ZM70.7529 52.2963C70.7964 52.569 71.0527 52.7548 71.3254 52.7113C71.5981 52.6678 71.7839 52.4115 71.7405 52.1388L70.7529 52.2963ZM72.0785 54.1477C72.0303 53.8758 71.7708 53.6944 71.4989 53.7426C71.227 53.7908 71.0457 54.0503 71.0938 54.3222L72.0785 54.1477ZM71.4706 56.3418C71.5237 56.6128 71.7865 56.7894 72.0574 56.7363C72.3284 56.6832 72.505 56.4204 72.4519 56.1494L71.4706 56.3418ZM72.8626 58.1414C72.8041 57.8716 72.5379 57.7002 72.2681 57.7587C71.9982 57.8171 71.8268 58.0833 71.8853 58.3532L72.8626 58.1414ZM72.343 60.3603C72.4075 60.6288 72.6774 60.7942 72.9459 60.7298C73.2144 60.6653 73.3799 60.3954 73.3154 60.1269L72.343 60.3603ZM73.8138 62.094C73.7425 61.8273 73.4683 61.6689 73.2016 61.7403C72.9348 61.8116 72.7764 62.0857 72.8478 62.3525L73.8138 62.094ZM73.4118 64.3388C73.4915 64.6032 73.7705 64.7529 74.0349 64.6731C74.2993 64.5934 74.4489 64.3144 74.3692 64.05L73.4118 64.3388ZM74.9903 65.9746C74.8999 65.7136 74.6152 65.5753 74.3542 65.6657C74.0933 65.756 73.955 66.0408 74.0453 66.3017L74.9903 65.9746ZM74.7734 68.2403C74.878 68.4958 75.17 68.6182 75.4255 68.5135C75.6811 68.4089 75.8034 68.1169 75.6988 67.8614L74.7734 68.2403ZM76.5289 69.6843C76.4031 69.4385 76.1018 69.3411 75.856 69.4669C75.6102 69.5927 75.5128 69.894 75.6386 70.1398L76.5289 69.6843ZM76.7308 71.9591C76.8925 72.183 77.2051 72.2334 77.4289 72.0718C77.6528 71.9101 77.7032 71.5976 77.5415 71.3737L76.7308 71.9591ZM78.8349 72.6941C78.6032 72.5437 78.2936 72.6096 78.1432 72.8413C77.9929 73.0729 78.0588 73.3826 78.2905 73.5329L78.8349 72.6941ZM80.5666 74.049C80.8413 74.0215 81.0418 73.7765 81.0143 73.5017C80.9868 73.2269 80.7418 73.0264 80.467 73.0539L80.5666 74.049ZM81.7627 72.2785C81.611 72.5092 81.6751 72.8193 81.9058 72.971C82.1366 73.1227 82.4466 73.0586 82.5983 72.8279L81.7627 72.2785ZM83.2955 70.7175C83.3313 70.4437 83.1383 70.1928 82.8644 70.157C82.5906 70.1213 82.3397 70.3143 82.3039 70.5881L83.2955 70.7175ZM82.3644 68.6526C82.3765 68.9285 82.61 69.1423 82.8859 69.1302C83.1618 69.1181 83.3756 68.8846 83.3634 68.6087L82.3644 68.6526ZM83.1731 66.5574C83.1364 66.2837 82.8848 66.0915 82.6111 66.1282C82.3375 66.1649 82.1453 66.4165 82.182 66.6902L83.1731 66.5574ZM81.8597 64.7269C81.9114 64.9982 82.1732 65.1762 82.4445 65.1245C82.7157 65.0728 82.8937 64.811 82.842 64.5397L81.8597 64.7269ZM82.4191 62.5394C82.3572 62.2703 82.0888 62.1023 81.8197 62.1643C81.5506 62.2262 81.3827 62.4946 81.4446 62.7637L82.4191 62.5394ZM80.9677 60.8199C81.037 61.0872 81.3098 61.2478 81.5771 61.1785C81.8445 61.1092 82.005 60.8363 81.9357 60.569L80.9677 60.8199ZM81.4041 58.6067C81.3293 58.3409 81.0531 58.1861 80.7873 58.2609C80.5215 58.3358 80.3667 58.6119 80.4416 58.8777L81.4041 58.6067ZM79.8803 56.9471C79.9595 57.2117 80.2381 57.362 80.5026 57.2829C80.7672 57.2037 80.9175 56.9251 80.8384 56.6606L79.8803 56.9471ZM80.245 54.7232C80.1625 54.4596 79.882 54.3128 79.6185 54.3953C79.3549 54.4778 79.2081 54.7583 79.2906 55.0218L80.245 54.7232ZM78.6791 53.1022C78.7642 53.3649 79.0461 53.5089 79.3088 53.4239C79.5715 53.3388 79.7156 53.0569 79.6305 52.7942L78.6791 53.1022ZM78.9994 50.8701C78.9124 50.6081 78.6294 50.4661 78.3674 50.5531C78.1053 50.6401 77.9633 50.923 78.0503 51.1851L78.9994 50.8701ZM77.4098 49.2727C77.4981 49.5343 77.7818 49.6748 78.0435 49.5865C78.3051 49.4982 78.4456 49.2145 78.3573 48.9529L77.4098 49.2727ZM77.7081 47.0389C77.6191 46.7775 77.3351 46.6378 77.0737 46.7268C76.8122 46.8157 76.6725 47.0998 76.7615 47.3612L77.7081 47.0389ZM76.1097 45.4476C76.1986 45.709 76.4827 45.8489 76.7441 45.76C77.0055 45.671 77.1454 45.387 77.0565 45.1256L76.1097 45.4476ZM76.41 43.2139C76.3222 42.9521 76.0388 42.811 75.777 42.8988C75.5152 42.9865 75.3741 43.2699 75.4619 43.5318L76.41 43.2139ZM74.8293 41.6145C74.9142 41.8773 75.196 42.0216 75.4588 41.9367C75.7216 41.8519 75.8658 41.5701 75.781 41.3073L74.8293 41.6145ZM69.5 39C69.5 39.3306 69.5043 39.6752 69.5128 40.0326L70.5125 40.0088C70.5042 39.6586 70.5 39.3219 70.5 39H69.5ZM69.5996 42.092C69.6379 42.7477 69.687 43.4322 69.7466 44.1402L70.7431 44.0564C70.6842 43.3563 70.6357 42.6802 70.5979 42.0337L69.5996 42.092ZM69.9411 46.1882C70.0114 46.8552 70.0897 47.537 70.1757 48.2295L71.1681 48.1062C71.0828 47.4197 71.0052 46.7441 70.9356 46.0834L69.9411 46.1882ZM70.4469 50.2656C70.5423 50.9373 70.6444 51.6153 70.7529 52.2963L71.7405 52.1388C71.6328 51.4635 71.5315 50.7911 71.437 50.125L70.4469 50.2656ZM71.0938 54.3222C71.2134 54.9967 71.339 55.671 71.4706 56.3418L72.4519 56.1494C72.3216 55.4847 72.197 54.8164 72.0785 54.1477L71.0938 54.3222ZM71.8853 58.3532C72.0319 59.0302 72.1846 59.7004 72.343 60.3603L73.3154 60.1269C73.1588 59.4746 73.0078 58.8116 72.8626 58.1414L71.8853 58.3532ZM72.8478 62.3525C73.0295 63.0315 73.2176 63.6951 73.4118 64.3388L74.3692 64.05C74.1783 63.4172 73.993 62.7638 73.8138 62.094L72.8478 62.3525ZM74.0453 66.3017C74.2802 66.9805 74.523 67.6288 74.7734 68.2403L75.6988 67.8614C75.4564 67.2692 75.22 66.6384 74.9903 65.9746L74.0453 66.3017ZM75.6386 70.1398C75.9875 70.8216 76.3515 71.4338 76.7308 71.9591L77.5415 71.3737C77.199 70.8993 76.8607 70.3329 76.5289 69.6843L75.6386 70.1398ZM78.2905 73.5329C78.6434 73.762 79.0182 73.9227 79.4131 73.9924L79.5869 73.0076C79.3465 72.9652 79.0961 72.8636 78.8349 72.6941L78.2905 73.5329ZM79.4131 73.9924C79.8234 74.0648 80.2082 74.0848 80.5666 74.049L80.467 73.0539C80.2155 73.0791 79.9239 73.0671 79.5869 73.0076L79.4131 73.9924ZM82.5983 72.8279C82.9726 72.2586 83.189 71.5337 83.2955 70.7175L82.3039 70.5881C82.2084 71.3197 82.0241 71.881 81.7627 72.2785L82.5983 72.8279ZM83.3634 68.6087C83.3351 67.9654 83.2697 67.2786 83.1731 66.5574L82.182 66.6902C82.2755 67.3883 82.3377 68.0448 82.3644 68.6526L83.3634 68.6087ZM82.842 64.5397C82.7185 63.8918 82.5766 63.2235 82.4191 62.5394L81.4446 62.7637C81.5996 63.4372 81.7389 64.0931 81.8597 64.7269L82.842 64.5397ZM81.9357 60.569C81.7684 59.9235 81.5904 59.2682 81.4041 58.6067L80.4416 58.8777C80.6262 59.5334 80.8023 60.1819 80.9677 60.8199L81.9357 60.569ZM80.8384 56.6606C80.6458 56.0166 80.4473 55.3698 80.245 54.7232L79.2906 55.0218C79.4918 55.6649 79.689 56.3077 79.8803 56.9471L80.8384 56.6606ZM79.6305 52.7942C79.4215 52.1486 79.2105 51.5062 78.9994 50.8701L78.0503 51.1851C78.2607 51.8192 78.471 52.4593 78.6791 53.1022L79.6305 52.7942ZM78.3573 48.9529C78.1381 48.3033 77.9209 47.6641 77.7081 47.0389L76.7615 47.3612C76.9742 47.986 77.191 48.6243 77.4098 49.2727L78.3573 48.9529ZM77.0565 45.1256C76.8316 44.4644 76.6151 43.8256 76.41 43.2139L75.4619 43.5318C75.6676 44.1456 75.8847 44.7859 76.1097 45.4476L77.0565 45.1256ZM75.781 41.3073C75.674 40.9761 75.5726 40.6571 75.4774 40.3513L74.5226 40.6487C74.6191 40.9583 74.7215 41.2806 74.8293 41.6145L75.781 41.3073Z" fill="#FD8D41"/>
<path d="M38.3789 73.5L38.4658 73.9924L38.3789 73.5ZM48.3661 40.0326C48.3595 40.3086 48.1304 40.5271 47.8543 40.5205C47.5783 40.514 47.3598 40.2849 47.3664 40.0088L48.3661 40.0326ZM47.281 42.0337C47.2971 41.758 47.5336 41.5476 47.8093 41.5637C48.085 41.5798 48.2954 41.8164 48.2793 42.092L47.281 42.0337ZM48.1323 44.1402C48.1092 44.4153 47.8674 44.6196 47.5922 44.5965C47.317 44.5734 47.1127 44.3315 47.1358 44.0564L48.1323 44.1402ZM46.9433 46.0834C46.9722 45.8088 47.2183 45.6096 47.4929 45.6386C47.7676 45.6675 47.9667 45.9136 47.9378 46.1882L46.9433 46.0834ZM47.7032 48.2295C47.6691 48.5035 47.4194 48.6981 47.1453 48.664C46.8713 48.63 46.6768 48.3802 46.7108 48.1062L47.7032 48.2295ZM46.4419 50.125C46.4808 49.8516 46.7339 49.6615 47.0073 49.7003C47.2807 49.7391 47.4708 49.9922 47.432 50.2656L46.4419 50.125ZM47.126 52.2963C47.0825 52.569 46.8262 52.7548 46.5535 52.7113C46.2808 52.6678 46.095 52.4115 46.1384 52.1388L47.126 52.2963ZM45.8004 54.1477C45.8486 53.8758 46.1081 53.6944 46.38 53.7426C46.6519 53.7908 46.8333 54.0503 46.7851 54.3222L45.8004 54.1477ZM46.4083 56.3418C46.3552 56.6128 46.0925 56.7894 45.8215 56.7363C45.5505 56.6832 45.3739 56.4204 45.427 56.1494L46.4083 56.3418ZM45.0163 58.1414C45.0748 57.8716 45.341 57.7002 45.6109 57.7587C45.8807 57.8171 46.0521 58.0833 45.9936 58.3532L45.0163 58.1414ZM45.5359 60.3603C45.4714 60.6288 45.2015 60.7942 44.933 60.7298C44.6645 60.6653 44.499 60.3954 44.5635 60.1269L45.5359 60.3603ZM44.0651 62.094C44.1365 61.8273 44.4106 61.6689 44.6773 61.7403C44.9441 61.8116 45.1025 62.0857 45.0311 62.3525L44.0651 62.094ZM44.4671 64.3388C44.3874 64.6032 44.1084 64.7529 43.844 64.6731C43.5797 64.5934 43.43 64.3144 43.5097 64.05L44.4671 64.3388ZM42.8886 65.9746C42.979 65.7136 43.2637 65.5753 43.5247 65.6657C43.7856 65.756 43.9239 66.0408 43.8336 66.3017L42.8886 65.9746ZM43.1055 68.2403C43.0009 68.4958 42.7089 68.6182 42.4534 68.5135C42.1978 68.4089 42.0755 68.1169 42.1801 67.8614L43.1055 68.2403ZM41.3501 69.6843C41.4758 69.4385 41.7771 69.3411 42.0229 69.4669C42.2688 69.5927 42.3661 69.894 42.2403 70.1398L41.3501 69.6843ZM41.1481 71.9591C40.9864 72.183 40.6738 72.2334 40.45 72.0718C40.2261 71.9101 40.1757 71.5976 40.3374 71.3737L41.1481 71.9591ZM39.0441 72.6941C39.2757 72.5437 39.5853 72.6096 39.7357 72.8413C39.886 73.0729 39.8201 73.3826 39.5885 73.5329L39.0441 72.6941ZM37.3123 74.049C37.0376 74.0215 36.8371 73.7765 36.8646 73.5017C36.8921 73.2269 37.1371 73.0264 37.4119 73.0539L37.3123 74.049ZM36.1162 72.2785C36.2679 72.5092 36.2038 72.8193 35.9731 72.971C35.7424 73.1227 35.4323 73.0586 35.2806 72.8279L36.1162 72.2785ZM34.5834 70.7175C34.5476 70.4437 34.7407 70.1928 35.0145 70.157C35.2883 70.1213 35.5392 70.3143 35.575 70.5881L34.5834 70.7175ZM35.5145 68.6526C35.5024 68.9285 35.2689 69.1423 34.993 69.1302C34.7172 69.1181 34.5033 68.8846 34.5155 68.6087L35.5145 68.6526ZM34.7058 66.5574C34.7425 66.2837 34.9941 66.0915 35.2678 66.1282C35.5415 66.1649 35.7336 66.4165 35.6969 66.6902L34.7058 66.5574ZM36.0192 64.7269C35.9675 64.9982 35.7057 65.1762 35.4344 65.1245C35.1632 65.0728 34.9852 64.811 35.0369 64.5397L36.0192 64.7269ZM35.4598 62.5394C35.5217 62.2703 35.7901 62.1023 36.0592 62.1643C36.3283 62.2262 36.4963 62.4946 36.4343 62.7637L35.4598 62.5394ZM36.9112 60.8199C36.8419 61.0872 36.5691 61.2478 36.3018 61.1785C36.0345 61.1092 35.8739 60.8363 35.9432 60.569L36.9112 60.8199ZM36.4748 58.6067C36.5496 58.3409 36.8258 58.1861 37.0916 58.2609C37.3574 58.3358 37.5122 58.6119 37.4373 58.8777L36.4748 58.6067ZM37.9986 56.9471C37.9195 57.2117 37.6408 57.362 37.3763 57.2829C37.1117 57.2037 36.9614 56.9251 37.0405 56.6606L37.9986 56.9471ZM37.6339 54.7232C37.7164 54.4596 37.9969 54.3128 38.2604 54.3953C38.524 54.4778 38.6708 54.7583 38.5883 55.0218L37.6339 54.7232ZM39.1998 53.1022C39.1147 53.3649 38.8328 53.5089 38.5701 53.4239C38.3074 53.3388 38.1634 53.0569 38.2484 52.7942L39.1998 53.1022ZM38.8795 50.8701C38.9665 50.6081 39.2495 50.4661 39.5115 50.5531C39.7736 50.6401 39.9156 50.923 39.8286 51.1851L38.8795 50.8701ZM40.4691 49.2727C40.3808 49.5343 40.0971 49.6748 39.8354 49.5865C39.5738 49.4982 39.4333 49.2145 39.5216 48.9529L40.4691 49.2727ZM40.1708 47.0389C40.2598 46.7775 40.5438 46.6378 40.8052 46.7268C41.0667 46.8157 41.2064 47.0998 41.1174 47.3612L40.1708 47.0389ZM41.7692 45.4476C41.6803 45.709 41.3962 45.8489 41.1348 45.76C40.8734 45.671 40.7335 45.387 40.8224 45.1256L41.7692 45.4476ZM41.4689 43.2139C41.5567 42.9521 41.8401 42.811 42.1019 42.8988C42.3638 42.9865 42.5048 43.2699 42.4171 43.5318L41.4689 43.2139ZM43.0496 41.6145C42.9647 41.8773 42.6829 42.0216 42.4201 41.9367C42.1574 41.8519 42.0131 41.5701 42.0979 41.3073L43.0496 41.6145ZM48.3789 39C48.3789 39.3306 48.3746 39.6752 48.3661 40.0326L47.3664 40.0088C47.3747 39.6586 47.3789 39.3219 47.3789 39H48.3789ZM48.2793 42.092C48.241 42.7477 48.1919 43.4322 48.1323 44.1402L47.1358 44.0564C47.1947 43.3563 47.2432 42.6802 47.281 42.0337L48.2793 42.092ZM47.9378 46.1882C47.8675 46.8552 47.7892 47.537 47.7032 48.2295L46.7108 48.1062C46.7961 47.4197 46.8737 46.7441 46.9433 46.0834L47.9378 46.1882ZM47.432 50.2656C47.3366 50.9373 47.2345 51.6153 47.126 52.2963L46.1384 52.1388C46.2461 51.4635 46.3474 50.7911 46.4419 50.125L47.432 50.2656ZM46.7851 54.3222C46.6655 54.9967 46.5399 55.671 46.4083 56.3418L45.427 56.1494C45.5574 55.4847 45.6819 54.8164 45.8004 54.1477L46.7851 54.3222ZM45.9936 58.3532C45.847 59.0302 45.6943 59.7004 45.5359 60.3603L44.5635 60.1269C44.7201 59.4746 44.8711 58.8116 45.0163 58.1414L45.9936 58.3532ZM45.0311 62.3525C44.8494 63.0315 44.6613 63.6951 44.4671 64.3388L43.5097 64.05C43.7006 63.4172 43.8859 62.7638 44.0651 62.094L45.0311 62.3525ZM43.8336 66.3017C43.5987 66.9805 43.3559 67.6288 43.1055 68.2403L42.1801 67.8614C42.4225 67.2692 42.6589 66.6384 42.8886 65.9746L43.8336 66.3017ZM42.2403 70.1398C41.8914 70.8216 41.5274 71.4338 41.1481 71.9591L40.3374 71.3737C40.6799 70.8993 41.0182 70.3329 41.3501 69.6843L42.2403 70.1398ZM39.5885 73.5329C39.2355 73.762 38.8607 73.9227 38.4658 73.9924L38.292 73.0076C38.5324 72.9652 38.7828 72.8636 39.0441 72.6941L39.5885 73.5329ZM38.4658 73.9924C38.0555 74.0648 37.6707 74.0848 37.3123 74.049L37.4119 73.0539C37.6634 73.0791 37.955 73.0671 38.292 73.0076L38.4658 73.9924ZM35.2806 72.8279C34.9063 72.2586 34.6899 71.5337 34.5834 70.7175L35.575 70.5881C35.6705 71.3197 35.8548 71.881 36.1162 72.2785L35.2806 72.8279ZM34.5155 68.6087C34.5438 67.9654 34.6092 67.2786 34.7058 66.5574L35.6969 66.6902C35.6034 67.3883 35.5412 68.0448 35.5145 68.6526L34.5155 68.6087ZM35.0369 64.5397C35.1604 63.8918 35.3024 63.2235 35.4598 62.5394L36.4343 62.7637C36.2793 63.4372 36.14 64.0931 36.0192 64.7269L35.0369 64.5397ZM35.9432 60.569C36.1106 59.9235 36.2885 59.2682 36.4748 58.6067L37.4373 58.8777C37.2527 59.5334 37.0766 60.1819 36.9112 60.8199L35.9432 60.569ZM37.0405 56.6606C37.2331 56.0166 37.4316 55.3698 37.6339 54.7232L38.5883 55.0218C38.3871 55.6649 38.1899 56.3077 37.9986 56.9471L37.0405 56.6606ZM38.2484 52.7942C38.4574 52.1486 38.6684 51.5062 38.8795 50.8701L39.8286 51.1851C39.6182 51.8192 39.4079 52.4593 39.1998 53.1022L38.2484 52.7942ZM39.5216 48.9529C39.7408 48.3033 39.958 47.6641 40.1708 47.0389L41.1174 47.3612C40.9047 47.986 40.6879 48.6243 40.4691 49.2727L39.5216 48.9529ZM40.8224 45.1256C41.0473 44.4644 41.2638 43.8256 41.4689 43.2139L42.4171 43.5318C42.2113 44.1456 41.9942 44.7859 41.7692 45.4476L40.8224 45.1256ZM42.0979 41.3073C42.2049 40.9761 42.3063 40.6571 42.4015 40.3513L43.3563 40.6487C43.2598 40.9583 43.1574 41.2806 43.0496 41.6145L42.0979 41.3073Z" fill="#FD8D41"/>
<path d="M43.5109 36.254C43.5109 36.254 57.845 31.1036 74.2476 36.3367L75.7575 40.97C75.7575 40.97 60.2237 36.4195 42.2285 40.8872L43.5109 36.254Z" fill="#FD8D41"/>
<path d="M49.4893 30.1722L58.1766 23.4085V22.002L48.4551 29.593L49.0549 40.0799C49.3652 39.9971 49.6961 39.9351 50.0478 39.873L49.4893 30.1722Z" fill="#FADF7E"/>
<path d="M53.7075 30.4592L51.7383 32.6104L53.8895 34.5795L55.8587 32.4284L53.7075 30.4592Z" fill="#2B93B7"/>
<path fill-rule="evenodd" clip-rule="evenodd" d="M58 22.0002V22L48.4336 29.5723L49.0334 40.0592C52.2808 39.2939 58 39.319 58 39.319V39.5C58 39.5 64.0511 39.2939 67.2985 40.0592L67.5 29.5002L58 22.0002Z" fill="#FD8D41"/>
<path d="M56.9528 39.6595C56.9528 39.6595 54.1898 35.4963 58.0741 31C58.0741 31 61.5179 34.5637 59.1953 39.6595C59.2354 39.6595 57.9539 40.4256 56.9528 39.6595Z" fill="#FDF3E7"/>
<path d="M66.6873 30.1721L58 23.5V22L67.7215 29.5929L67.1217 40.0798C66.8114 39.997 66.4805 39.935 66.1289 39.8729L66.6873 30.1721Z" fill="#FDF3E7"/>
<path d="M49.0343 30.1722L58 23.5V22L48.0001 29.593L48.6 40.0799C48.9102 39.9971 49.2412 39.9351 49.5928 39.873L49.0343 30.1722Z" fill="#FDF3E7"/>
</g>
<defs>
<filter id="filter0_d_122_193" x="0" y="0" width="116" height="116" filterUnits="userSpaceOnUse" color-interpolation-filters="sRGB">
<feFlood flood-opacity="0" result="BackgroundImageFix"/>
<feColorMatrix in="SourceAlpha" type="matrix" values="0 0 0 0 0 0 0 0 0 0 0 0 0 0 0 0 0 0 127 0" result="hardAlpha"/>
<feOffset/>
<feGaussianBlur stdDeviation="5"/>
<feComposite in2="hardAlpha" operator="out"/>
<feColorMatrix type="matrix" values="0 0 0 0 0 0 0 0 0 0 0 0 0 0 0 0 0 0 0.5 0"/>
<feBlend mode="normal" in2="BackgroundImageFix" result="effect1_dropShadow_122_193"/>
<feBlend mode="normal" in="SourceGraphic" in2="effect1_dropShadow_122_193" result="shape"/>
</filter>
<filter id="filter1_d_122_193" x="40.8475" y="40.8955" width="35.4183" height="41.6089" filterUnits="userSpaceOnUse" color-interpolation-filters="sRGB">
<feFlood flood-opacity="0" result="BackgroundImageFix"/>
<feColorMatrix in="SourceAlpha" type="matrix" values="0 0 0 0 0 0 0 0 0 0 0 0 0 0 0 0 0 0 127 0" result="hardAlpha"/>
<feOffset dy="4.31169"/>
<feGaussianBlur stdDeviation="2.15584"/>
<feComposite in2="hardAlpha" operator="out"/>
<feColorMatrix type="matrix" values="0 0 0 0 0.545833 0 0 0 0 0.226564 0 0 0 0 0.0454861 0 0 0 0.16 0"/>
<feBlend mode="normal" in2="BackgroundImageFix" result="effect1_dropShadow_122_193"/>
<feBlend mode="normal" in="SourceGraphic" in2="effect1_dropShadow_122_193" result="shape"/>
</filter>
</defs>
</svg>
