<svg width="88" height="88" viewBox="0 0 88 88" fill="none" xmlns="http://www.w3.org/2000/svg">
<mask id="mask0_32_3997" style="mask-type:alpha" maskUnits="userSpaceOnUse" x="0" y="0" width="88" height="88">
<path fill-rule="evenodd" clip-rule="evenodd" d="M44.1895 87.9996C68.4028 87.8975 88 68.2373 88 44C88 33.682 84.4485 24.1934 78.5012 16.6902L78.0176 18.3525L74.9495 13.067L75.6854 13.4707C67.682 5.16611 56.4443 0 44 0C30.3185 0 18.0954 6.24443 10.0254 16.0387L11.267 20.4346C10.6769 19.7382 9.78835 18.6602 8.8739 17.4976C3.3036 24.8689 0 34.0487 0 44C0 53.3394 2.90978 61.9992 7.87221 69.1222C8.93349 68.1795 10.448 66.6285 11.3929 65.6249L8.38601 69.8441C16.1955 80.5872 28.7473 87.6603 42.9663 87.9881L43.8667 84.9997L44.1895 87.9996Z" fill="#FDF3E7"/>
</mask>
<g mask="url(#mask0_32_3997)">
<path fill-rule="evenodd" clip-rule="evenodd" d="M44.1895 87.9996C68.4028 87.8975 88 68.2373 88 44C88 33.682 84.4485 24.1934 78.5012 16.6902L78.0176 18.3525L74.9495 13.067L75.6854 13.4707C67.682 5.16611 56.4443 0 44 0C30.3185 0 18.0954 6.24443 10.0254 16.0387L11.267 20.4346C10.6769 19.7382 9.78835 18.6602 8.8739 17.4976C3.3036 24.8689 0 34.0487 0 44C0 53.3394 2.90978 61.9992 7.87221 69.1222C8.93349 68.1795 10.448 66.6285 11.3929 65.6249L8.38601 69.8441C16.1955 80.5872 28.7473 87.6603 42.9663 87.9881L43.8667 84.9997L44.1895 87.9996Z" fill="#FDF2E4"/>
<path d="M53.5617 56.1773C53.5617 56.1773 57.9328 51.1652 58 41.0002C58.0672 30.8352 30 39.5001 30 39.5001C30 39.5001 27.7554 50.1943 33.3782 54.8317C39.0009 59.4898 53.5617 56.1773 53.5617 56.1773Z" fill="#4D3423" fill-opacity="0.2"/>
<path d="M80.3758 70.5854C78.7181 68.3495 72.5354 67.2729 72.5354 67.2729L53.5614 67.5421V53.8576L43.3464 59.5509L33.1538 53.8369V67.5214L14.1799 67.2522C14.1799 67.2522 7.97476 68.3288 6.33946 70.5647C4.68176 72.8006 2.71045 85.6362 2.71045 85.6362H43.2792H43.4136H84.0048C84.0048 85.6569 82.0335 72.8213 80.3758 70.5854Z" fill="#4D3423" fill-opacity="0.2"/>
<path d="M43.436 60.3583C43.436 60.3583 41.7111 59.0333 39.5158 57.3771L33.1538 53.8369V67.5214L14.1799 67.2523C14.1799 67.2523 7.97476 68.3288 6.33946 70.5647C4.68176 72.8006 2.71045 85.6362 2.71045 85.6362H43.2792H43.4136V60.3583H43.436Z" fill="#4D3423" fill-opacity="0.2"/>
<path opacity="0.5" d="M43.4594 62.0352C43.4594 62.0352 50.3814 61.6625 53.4728 56.3212C53.4952 56.2798 53.5176 56.2177 53.5624 56.1763V53.8369L43.3474 59.5301L33.1548 53.8369V55.9279C33.222 56.0521 33.2892 56.197 33.3788 56.3212C36.4702 61.6418 43.3922 62.0352 43.3922 62.0352H43.4594Z" fill="#4D3423" fill-opacity="0.2"/>
<path d="M28.7272 42.4506C28.7272 42.4506 28.2568 34.0867 43.3553 34.2937V5.02017C43.3553 5.02017 25.9495 4.17136 20.73 13.4876L28.7272 42.4506Z" fill="#4D3423" fill-opacity="0.2"/>
<path d="M29.3451 40.5045C29.3451 40.5045 28.3818 38.8276 26.9482 39.7799C25.5369 40.753 28.1578 49.1996 31.2044 49.4895L29.3451 40.5045Z" fill="#4D3423" fill-opacity="0.2"/>
<path d="M57.7599 42.4506C57.7599 42.4506 58.2303 34.0867 43.1318 34.2937V5.02017C43.1318 5.02017 60.5377 4.17136 65.7572 13.4876L57.7599 42.4506Z" fill="#4D3423" fill-opacity="0.2"/>
<path d="M57.6601 40.5045C57.6601 40.5045 58.6233 38.8276 60.057 39.7799C61.4907 40.7323 58.8474 49.1996 55.8008 49.4895L57.6601 40.5045Z" fill="#4D3423" fill-opacity="0.2"/>
<path d="M33.343 66.5592C33.343 66.5592 35.5878 71.0851 43 71.0851V86.9983C43 86.9983 11.1064 87.4529 2 73.6891C2 73.6891 3.05888 65.2985 11.3182 65.0919C19.5775 64.8852 33.4912 65.0919 33.4912 65.0919L33.343 66.5592Z" fill="#4D3423" fill-opacity="0.2"/>
<path d="M52.657 66.5592C52.657 66.5592 50.4122 71.0851 43 71.0851V86.9983C43 86.9983 74.8936 87.4529 84 73.6891C84 73.6891 82.9411 65.2985 74.6818 65.0919C66.4225 64.8852 52.6358 65.0919 52.6358 65.0919L52.657 66.5592Z" fill="#4D3423" fill-opacity="0.2"/>
<path d="M52.8486 56.9393C52.8486 56.9393 57.9395 48.9999 58.0001 39.0807C58.0607 29.1615 29.5557 39.0807 29.5557 39.0807C29.5557 39.0807 29.5759 51.1009 34.6466 55.6262C39.7173 60.1716 52.8486 56.9393 52.8486 56.9393Z" fill="black"/>
<path d="M77.0307 70.9997C75.5358 68.8179 69.96 67.7674 69.96 67.7674L52.8489 68.03V54.6764L43.6367 60.232L34.4448 54.6562V68.0098L17.3337 67.7472C17.3337 67.7472 11.7377 68.7977 10.263 70.9795C8.76801 73.1613 6.99023 85.6866 6.99023 85.6866H43.5761H43.6973H80.3034C80.3034 85.7068 78.5257 73.1815 77.0307 70.9997Z" fill="#F6B38D"/>
<path d="M43.7175 61.0199C43.7175 61.0199 42.162 59.7269 40.1822 58.1108L34.4448 54.6562V68.0098L17.3337 67.7472C17.3337 67.7472 11.7377 68.7977 10.263 70.9795C8.76801 73.1613 6.99023 85.6866 6.99023 85.6866H43.5761H43.6973V61.0199H43.7175Z" fill="#F6B38D"/>
<path opacity="0.5" d="M43.7383 62.6562C43.7383 62.6562 49.9807 62.2926 52.7686 57.0805C52.7888 57.0401 52.809 56.9795 52.8494 56.9391V54.6562L43.6372 60.2118L34.4453 54.6562V56.6966C34.5059 56.8179 34.5665 56.9593 34.6473 57.0805C37.4352 62.2724 43.6776 62.6562 43.6776 62.6562H43.7383Z" fill="#F6B38D"/>
<g filter="url(#filter0_d_32_3997)">
<path d="M51.3337 31.2228C44.1418 29.9298 43.7378 32.7985 43.7378 32.7985C43.7176 32.8187 43.7176 33.1016 43.7176 33.5662C43.7176 33.1016 43.6974 32.8187 43.6974 32.7985C43.6974 32.7985 43.2933 29.9298 36.1014 31.2228C28.9095 32.5157 30.8893 43.2834 30.8893 43.2834C30.8893 43.2834 31.8792 53.3036 34.667 58.4955C37.4549 63.6874 43.6974 64.0713 43.6974 64.0713H43.758C43.758 64.0713 50.0004 63.7076 52.7883 58.4955C55.5762 53.3036 56.5661 43.2834 56.5661 43.2834C56.5661 43.2834 58.5459 32.5157 51.3337 31.2228Z" fill="#F9BE98"/>
</g>
<path d="M46 46.4693C48 43.9689 51 42.4691 53.5 46.4696C52.5 47.4695 49.5 47.4693 46 46.4693Z" fill="black"/>
<path d="M41.5 46.4693C39.5 43.9689 36.5 42.4691 34 46.4696C35 47.4695 38 47.4693 41.5 46.4693Z" fill="black"/>
<path d="M30.4529 43.545C30.4529 43.545 30.0286 35.3833 43.6448 35.5854V7.01968C43.6448 7.01968 27.9478 6.19139 23.2407 15.2823L30.4529 43.545Z" fill="black"/>
<path d="M43.8795 35.5852V29.5044C41.6977 29.4438 35.0512 29.6256 29.9199 33.6862L31.4755 40.5953C32.6876 38.2721 35.8189 35.464 43.8795 35.5852Z" fill="#F1843C"/>
<path d="M25.3179 24.4853L26.5098 29.1318C36.2068 22.5257 43.3785 23.2126 43.3785 23.2126V18.4247C34.1664 18.4247 27.8633 22.5055 25.3179 24.4853Z" fill="#F1843C"/>
<path d="M31.0102 41.6459C31.0102 41.6459 30.1415 40.0095 28.8486 40.9388C27.5759 41.8883 29.9395 50.1308 32.687 50.4136L31.0102 41.6459Z" fill="#FBBF99"/>
<path d="M56.6348 43.545C56.6348 43.545 57.059 35.3833 43.4429 35.5854V7.01968C43.4429 7.01968 59.1399 6.19139 63.8469 15.2823L56.6348 43.545Z" fill="black"/>
<path d="M42.9741 35.5617V29.3307C45.1559 29.2701 52.5053 29.6261 57.6366 33.6867L56.0811 40.5958C54.8689 38.2725 51.0347 35.4405 42.9741 35.5617Z" fill="#F1843C"/>
<path d="M61.2369 24.4853L60.045 29.1318C50.348 22.5257 43.1763 23.2126 43.1763 23.2126V18.4247C52.3884 18.4247 58.6914 22.5055 61.2369 24.4853Z" fill="#F1843C"/>
<path d="M56.5454 41.6459C56.5454 41.6459 57.4141 40.0095 58.707 40.9388C60 41.8681 57.6161 50.1308 54.8687 50.4136L56.5454 41.6459Z" fill="#FBBF99"/>
<path d="M34.4449 67.7247C34.4449 67.7247 36.5863 72.149 43.6571 72.149V87.7045C43.6571 87.7045 13.2328 88.149 4.5459 74.6944C4.5459 74.6944 5.556 66.4924 13.4348 66.2904C21.3136 66.0884 34.5863 66.2904 34.5863 66.2904L34.4449 67.7247Z" fill="#FD8D41"/>
<path d="M43.6571 81.2423V77.1615C35.5965 76.7776 18.9298 75.0402 10.8692 66.9998C9.45502 67.4241 8.36411 68.1513 7.51562 68.9998C15.1318 79.4645 36.1015 81.02 43.6571 81.2423Z" fill="#FDF3E7"/>
<path d="M5.49539 71.3936C4.72772 73.0704 4.5459 74.5047 4.5459 74.5047C13.2328 87.9593 43.6571 87.5149 43.6571 87.5149V84.2825C38.3237 84.2219 13.3944 83.3734 5.49539 71.3936Z" fill="#F3B089"/>
<path d="M52.8689 67.7247C52.8689 67.7247 50.7275 72.149 43.6567 72.149V87.7045C43.6567 87.7045 74.081 88.149 82.7679 74.6944C82.7679 74.6944 81.7578 66.4924 73.879 66.2904C66.0002 66.0884 52.8487 66.2904 52.8487 66.2904L52.8689 67.7247Z" fill="#FD8D41"/>
<path d="M43.6567 81.2423V77.1615C51.7376 76.7776 68.384 75.0402 76.4649 66.9998C77.879 67.4241 78.9699 68.1513 79.8184 68.9998C72.182 79.4645 51.2123 81.02 43.6567 81.2423Z" fill="#FDF3E7"/>
<path d="M81.8184 71.3936C82.6063 73.0704 82.7679 74.5047 82.7679 74.5047C74.081 87.9593 43.6567 87.5149 43.6567 87.5149V84.2825C49.0103 84.2219 73.9194 83.3734 81.8184 71.3936Z" fill="#F3B089"/>
<path d="M40.3778 9.07721L44.0129 10.6351L45.5708 9.59651L48.6866 9.07721L49.7252 15.3089L46.6094 25.6949H41.4164L37.7812 13.2316L40.3778 9.07721Z" fill="black"/>
<path opacity="0.8" d="M40.5469 11.154C40.5469 11.154 39.0635 11.7857 38.8327 13.997C38.6019 16.2082 41.6677 20.929 41.9314 22.5786V12.593C41.9479 12.593 41.9973 11.3646 40.5469 11.154Z" fill="black"/>
<path d="M47.5965 10.6719C47.5965 10.6719 49.2094 11.3283 49.4603 13.6256C49.7112 15.923 47.1883 23.9806 46.9016 25.6945L49.4603 18.3989L50.8855 15.5617L51.2839 11.5086L50.0887 9.07675L46.091 9.48206L46.091 12.167C46.091 12.167 46.0373 10.8907 47.5965 10.6719Z" fill="#FD8D41"/>
<path d="M41.4649 10.6719C41.4649 10.6719 39.8476 11.3283 39.596 13.6256C39.3444 15.923 41.8741 23.9806 42.1616 25.6945L39.596 18.3989L38.167 15.5617L37.7816 11.5086L38.9659 9.07675L42.9744 9.48206L42.9744 12.167C42.9744 12.167 43.0283 10.8907 41.4649 10.6719Z" fill="#FD8D41"/>
<path d="M46.1075 13.4042H42.0747V14.7799H46.1075V13.4042Z" fill="#FDF3E7"/>
<path d="M46.1075 16.3923H42.0747V17.7679H46.1075V16.3923Z" fill="#FDF3E7"/>
<path d="M46.1075 19.3813H42.0747V20.7569H46.1075V19.3813Z" fill="#FDF3E7"/>
<path d="M46.1075 22.3693H42.0747V23.745H46.1075V22.3693Z" fill="#FDF3E7"/>
<path d="M46.1075 25.3573H42.0747V26.733H46.1075V25.3573Z" fill="#FDF3E7"/>
<path d="M49.1269 8.17902C50.8512 8.75507 51.981 12.6074 50.7918 15.5956C49.6026 18.5839 48.4331 23.5523 47.898 24.8844C47.68 25.4064 47.0259 25.6225 46.3322 25.6945C46.6889 24.3444 47.5214 20.9781 48.6512 19.0339C50.1179 16.5497 52.2981 11.5993 50.0782 9.83516C47.9376 8.14302 47.4223 12.5714 44.0132 12.4274V8.84508C45.9556 8.98909 47.4025 7.60298 49.1269 8.17902Z" fill="#FD8D41"/>
<path d="M39.6302 8.17902C38.1522 8.75507 37.1838 12.6074 38.2032 15.5956C39.2225 18.5839 40.2248 23.5523 40.6835 24.8844C40.8704 25.4064 41.4311 25.6225 42.0257 25.6945C41.7199 24.3444 41.0063 20.9781 40.038 19.0339C38.7808 16.5497 36.912 11.5993 38.8148 9.83516C40.6496 8.14302 41.0913 12.5714 44.0134 12.4274V8.84508C42.3485 8.98909 41.1083 7.60298 39.6302 8.17902Z" fill="#FD8D41"/>
</g>
<defs>
<filter id="filter0_d_32_3997" x="26.2215" y="30.888" width="35.0116" height="42.0196" filterUnits="userSpaceOnUse" color-interpolation-filters="sRGB">
<feFlood flood-opacity="0" result="BackgroundImageFix"/>
<feColorMatrix in="SourceAlpha" type="matrix" values="0 0 0 0 0 0 0 0 0 0 0 0 0 0 0 0 0 0 127 0" result="hardAlpha"/>
<feOffset dy="4.41815"/>
<feGaussianBlur stdDeviation="2.20908"/>
<feComposite in2="hardAlpha" operator="out"/>
<feColorMatrix type="matrix" values="0 0 0 0 0.545833 0 0 0 0 0.226564 0 0 0 0 0.0454861 0 0 0 0.16 0"/>
<feBlend mode="normal" in2="BackgroundImageFix" result="effect1_dropShadow_32_3997"/>
<feBlend mode="normal" in="SourceGraphic" in2="effect1_dropShadow_32_3997" result="shape"/>
</filter>
</defs>
</svg>
