<svg width="263" height="138" viewBox="0 0 263 138" fill="none" xmlns="http://www.w3.org/2000/svg">
<g opacity="0.4" filter="url(#filter0_d_66_1542)">
<path fill-rule="evenodd" clip-rule="evenodd" d="M181.972 9C182.141 9.12577 182.328 9.24537 182.535 9.35564C184.985 10.66 186.618 11.9643 187.027 14.573C187.353 16.66 187.707 20.66 187.843 22.3991C187.843 19.7904 188.17 14.0513 189.477 11.9643C190.266 10.7028 191.593 9.69553 192.79 9H245.013L245.013 9.0012C245.421 9.0012 246.319 9.78381 246.646 12.9142C246.973 16.0447 247.054 26.3925 247.054 31.1751C247.19 25.9577 247.463 14.4795 247.463 10.3056C247.789 9.26207 248.688 9.87077 249.096 10.3056V9H250C252.209 9 254 10.7909 254 13V125C254 127.209 252.209 129 250 129H214.858L214.227 123.782L212.968 129H26.3023L27.3741 119.87C26.6537 121.915 25.4249 125.525 24.3355 129H13C10.7909 129 9 127.209 9 125V13C9 11.0426 10.406 9.41354 12.2632 9.06772V10.6109C12.2632 11.1632 12.7507 11.5397 13.0897 11.1037C13.2395 10.9109 13.3802 10.6515 13.4882 10.3066C13.8149 9.26312 14.441 18.5675 14.7132 23.3501V11.6109C14.9437 11.6109 15.1354 11.4336 15.1534 11.2039L15.3259 9H54.2394L55.5464 19.4379L55.9522 10.3646L56.1625 9H181.972Z" fill="#4D3423"/>
</g>
<path fill-rule="evenodd" clip-rule="evenodd" d="M180.909 12.4783C181.074 12.5969 181.257 12.7097 181.46 12.8137C183.858 14.0425 185.457 15.2712 185.857 17.7287C186.176 19.6947 186.523 23.4628 186.656 25.1011C186.656 22.6436 186.976 17.2372 188.255 15.2712C189.028 14.0826 190.327 13.1335 191.499 12.4783H242.612L242.611 12.479C243.011 12.479 243.89 13.2163 244.21 16.1652C244.53 19.1142 244.61 28.8621 244.61 33.3675C244.743 28.4525 245.009 17.6397 245.009 13.7077C245.329 12.7248 246.209 13.2982 246.608 13.7077V12.4783H247.407C249.616 12.4783 251.407 14.2691 251.407 16.4783V121.522C251.407 123.731 249.616 125.522 247.407 125.522H213.097L212.479 120.608L211.248 125.522H28.5294L29.5785 116.921C28.8734 118.848 27.6707 122.248 26.6043 125.522H15.5923C13.3831 125.522 11.5923 123.731 11.5923 121.522V16.4783C11.5923 14.5444 12.9646 12.9311 14.7886 12.559V13.9364C14.7886 14.4887 15.2786 14.869 15.6177 14.4331C15.7568 14.2544 15.8868 14.0177 15.9876 13.7076C16.3074 12.7247 16.9203 21.4896 17.1867 25.995V14.9364C17.4125 14.9364 17.6005 14.7631 17.6188 14.538L17.7863 12.4783H55.8763L57.1554 22.3089L57.5526 13.7615L57.7581 12.4783H180.909Z" fill="#FDF3E7"/>
<defs>
<filter id="filter0_d_66_1542" x="0" y="0" width="263" height="138" filterUnits="userSpaceOnUse" color-interpolation-filters="sRGB">
<feFlood flood-opacity="0" result="BackgroundImageFix"/>
<feColorMatrix in="SourceAlpha" type="matrix" values="0 0 0 0 0 0 0 0 0 0 0 0 0 0 0 0 0 0 127 0" result="hardAlpha"/>
<feOffset/>
<feGaussianBlur stdDeviation="4.5"/>
<feComposite in2="hardAlpha" operator="out"/>
<feColorMatrix type="matrix" values="0 0 0 0 0 0 0 0 0 0 0 0 0 0 0 0 0 0 1 0"/>
<feBlend mode="normal" in2="BackgroundImageFix" result="effect1_dropShadow_66_1542"/>
<feBlend mode="normal" in="SourceGraphic" in2="effect1_dropShadow_66_1542" result="shape"/>
</filter>
</defs>
</svg>
