<svg width="721" height="61" viewBox="0 0 721 61" fill="none" xmlns="http://www.w3.org/2000/svg">
<g filter="url(#filter0_b_267_5464)">
<mask id="path-1-inside-1_267_5464" fill="white">
<path fill-rule="evenodd" clip-rule="evenodd" d="M524.46 60.6647C524.315 60.8696 524.064 61 523.813 61H139.374C138.991 61 138.625 60.8364 138.37 60.5502C138.227 60.3904 138.125 60.1989 138.071 59.9915L138.031 59.8347C137.604 58.1851 135.449 57.7775 134.449 59.1571L133.858 59.9719C133.39 60.6177 132.641 61 131.843 61H19.7372C19.0459 61 18.4186 60.5955 18.1333 59.9659C18.0523 59.7871 17.8742 59.6722 17.6779 59.6722H17.624C17.1681 59.6722 16.7986 59.3027 16.7986 58.8469C16.7986 57.9089 15.3095 57.6377 14.8869 58.475C14.2607 59.7154 13.6345 60.5785 13.1936 60.3353C12.533 59.9708 11.4562 59.7941 10.5872 59.7193C10.0369 59.6719 9.5886 60.1199 9.5886 60.6722C9.5886 60.8533 9.44185 61 9.26083 61H8C3.58172 61 0 57.4183 0 53V8C0 3.58172 3.58172 0 8 0H48.7758C48.9972 0 49.2154 0.0535126 49.4119 0.155499C50.4189 0.678082 51.3835 1.16981 52.2462 1.60375C52.7356 1.84992 53.2257 1.28707 52.9178 0.833977C52.6769 0.479519 52.9308 0 53.3593 0H599.146C599.86 0 600.557 0.22361 601.137 0.639458L602.211 1.40848C603.168 2.09333 604.5 1.86562 605.174 0.901821C605.57 0.33662 606.216 0 606.906 0H713C717.418 0 721 3.58172 721 8V53C721 57.4183 717.418 61 713 61H706.857C706.69 61 706.555 60.865 706.555 60.6986C706.555 60.5103 706.385 60.3679 706.199 60.3977C705.068 60.5784 703.217 60.7622 702.172 60.4955C701.901 60.4263 701.75 60.1634 701.739 59.8839C701.73 59.6424 701.714 59.3719 701.693 59.0784C701.631 58.2056 699.798 58.2616 699.345 59.0106C698.384 60.6017 695.741 60.9996 694.539 60.9997C694.539 60.9997 694.539 60.9998 694.539 60.9998C694.539 60.9999 694.539 61 694.539 61H528.315C528.105 61 527.834 60.851 527.693 60.6949C527.111 60.0466 524.965 59.9543 524.46 60.6647Z"/>
</mask>
<path fill-rule="evenodd" clip-rule="evenodd" d="M524.46 60.6647C524.315 60.8696 524.064 61 523.813 61H139.374C138.991 61 138.625 60.8364 138.37 60.5502C138.227 60.3904 138.125 60.1989 138.071 59.9915L138.031 59.8347C137.604 58.1851 135.449 57.7775 134.449 59.1571L133.858 59.9719C133.39 60.6177 132.641 61 131.843 61H19.7372C19.0459 61 18.4186 60.5955 18.1333 59.9659C18.0523 59.7871 17.8742 59.6722 17.6779 59.6722H17.624C17.1681 59.6722 16.7986 59.3027 16.7986 58.8469C16.7986 57.9089 15.3095 57.6377 14.8869 58.475C14.2607 59.7154 13.6345 60.5785 13.1936 60.3353C12.533 59.9708 11.4562 59.7941 10.5872 59.7193C10.0369 59.6719 9.5886 60.1199 9.5886 60.6722C9.5886 60.8533 9.44185 61 9.26083 61H8C3.58172 61 0 57.4183 0 53V8C0 3.58172 3.58172 0 8 0H48.7758C48.9972 0 49.2154 0.0535126 49.4119 0.155499C50.4189 0.678082 51.3835 1.16981 52.2462 1.60375C52.7356 1.84992 53.2257 1.28707 52.9178 0.833977C52.6769 0.479519 52.9308 0 53.3593 0H599.146C599.86 0 600.557 0.22361 601.137 0.639458L602.211 1.40848C603.168 2.09333 604.5 1.86562 605.174 0.901821C605.57 0.33662 606.216 0 606.906 0H713C717.418 0 721 3.58172 721 8V53C721 57.4183 717.418 61 713 61H706.857C706.69 61 706.555 60.865 706.555 60.6986C706.555 60.5103 706.385 60.3679 706.199 60.3977C705.068 60.5784 703.217 60.7622 702.172 60.4955C701.901 60.4263 701.75 60.1634 701.739 59.8839C701.73 59.6424 701.714 59.3719 701.693 59.0784C701.631 58.2056 699.798 58.2616 699.345 59.0106C698.384 60.6017 695.741 60.9996 694.539 60.9997C694.539 60.9997 694.539 60.9998 694.539 60.9998C694.539 60.9999 694.539 61 694.539 61H528.315C528.105 61 527.834 60.851 527.693 60.6949C527.111 60.0466 524.965 59.9543 524.46 60.6647Z" fill="#1E1A24" fill-opacity="0.7"/>
<path d="M13.1936 60.3353L12.9983 60.6893V60.6893L13.1936 60.3353ZM10.5872 59.7193L10.5525 60.1221L10.5525 60.1221L10.5872 59.7193ZM694.539 60.9997V61.404V60.9997ZM702.172 60.4955L702.272 60.1037L702.172 60.4955ZM701.739 59.8839L701.335 59.8993L701.739 59.8839ZM706.199 60.3977L706.263 60.7969L706.199 60.3977ZM602.211 1.40848L602.447 1.07973L602.211 1.40848ZM601.137 0.639458L601.373 0.310715L601.137 0.639458ZM49.4119 0.155499L49.5982 -0.203373L49.4119 0.155499ZM14.8869 58.475L14.5259 58.2928L14.8869 58.475ZM52.2462 1.60375L52.0645 1.96495L52.2462 1.60375ZM701.693 59.0784L701.29 59.1072L701.693 59.0784ZM133.858 59.9719L133.531 59.7346L133.858 59.9719ZM138.031 59.8347L137.639 59.936L138.031 59.8347ZM134.449 59.1571L134.121 58.9198L134.449 59.1571ZM138.071 59.9915L137.68 60.0929L138.071 59.9915ZM139.374 60.5957H523.813V61.4043H139.374V60.5957ZM137.68 60.0929L137.639 59.936L138.422 59.7333L138.463 59.8902L137.68 60.0929ZM134.776 59.3944L134.185 60.2092L133.531 59.7346L134.121 58.9198L134.776 59.3944ZM19.7372 60.5957H131.843V61.4043H19.7372V60.5957ZM17.6779 59.2679C18.0329 59.2679 18.3551 59.4756 18.5016 59.799L17.765 60.1327C17.7495 60.0985 17.7154 60.0766 17.6779 60.0766V59.2679ZM17.624 59.2679H17.6779V60.0766H17.624V59.2679ZM13.3889 59.9813C13.3504 59.96 13.326 59.985 13.3734 59.961C13.4342 59.9302 13.5322 59.8529 13.663 59.6994C13.9208 59.3966 14.2165 58.9058 14.5259 58.2928L15.2478 58.6572C14.9311 59.2846 14.6006 59.8456 14.2786 60.2237C14.1194 60.4106 13.939 60.581 13.7388 60.6824C13.5252 60.7905 13.2572 60.8322 12.9983 60.6893L13.3889 59.9813ZM10.6219 59.3164C11.4928 59.3914 12.6466 59.5716 13.3889 59.9813L12.9983 60.6893C12.4194 60.3699 11.4196 60.1968 10.5525 60.1221L10.6219 59.3164ZM9.18428 60.6722C9.18428 59.9046 9.81447 59.2469 10.6219 59.3164L10.5525 60.1221C10.2594 60.0969 9.99292 60.3353 9.99292 60.6722H9.18428ZM8 60.5957H9.26083V61.4043H8V60.5957ZM0.404321 53C0.404321 57.195 3.80502 60.5957 8 60.5957V61.4043C3.35842 61.4043 -0.404321 57.6416 -0.404321 53H0.404321ZM0.404321 8V53H-0.404321V8H0.404321ZM8 0.40432C3.80502 0.40432 0.404321 3.80502 0.404321 8H-0.404321C-0.404321 3.35842 3.35842 -0.40432 8 -0.40432V0.40432ZM48.7758 0.40432H8V-0.40432H48.7758V0.40432ZM49.5982 -0.203373C50.6035 0.318371 51.5666 0.809322 52.4279 1.24255L52.0645 1.96495C51.2004 1.5303 50.2343 1.0378 49.2257 0.514374L49.5982 -0.203373ZM599.146 0.40432H53.3593V-0.40432H599.146V0.40432ZM601.976 1.73722L600.902 0.968204L601.373 0.310715L602.447 1.07973L601.976 1.73722ZM713 0.40432H606.906V-0.40432H713V0.40432ZM720.596 8C720.596 3.80502 717.195 0.40432 713 0.40432V-0.40432C717.642 -0.40432 721.404 3.35842 721.404 8H720.596ZM720.596 53V8H721.404V53H720.596ZM713 60.5957C717.195 60.5957 720.596 57.195 720.596 53H721.404C721.404 57.6416 717.642 61.4043 713 61.4043V60.5957ZM706.857 60.5957H713V61.4043H706.857V60.5957ZM702.272 60.1037C702.734 60.2216 703.408 60.2453 704.134 60.2105C704.85 60.1762 705.581 60.087 706.135 59.9984L706.263 60.7969C705.686 60.889 704.926 60.9821 704.173 61.0182C703.429 61.0538 702.655 61.0361 702.072 60.8872L702.272 60.1037ZM702.097 59.0495C702.118 59.3463 702.134 59.6213 702.143 59.8685L701.335 59.8993C701.326 59.6634 701.311 59.3976 701.29 59.1072L702.097 59.0495ZM694.539 60.5954C695.105 60.5953 696.024 60.5004 696.909 60.2167C697.804 59.93 698.593 59.4735 698.999 58.8015L699.691 59.2196C699.136 60.1387 698.123 60.6769 697.156 60.9868C696.179 61.2999 695.175 61.404 694.539 61.404V60.5954ZM528.315 60.5957H694.539V61.4043H528.315V60.5957ZM528.315 61.4043C528.124 61.4043 527.939 61.3398 527.795 61.2664C527.647 61.1914 527.502 61.0867 527.393 60.965L527.994 60.4248C528.025 60.4592 528.086 60.5071 528.161 60.5456C528.24 60.5857 528.296 60.5957 528.315 60.5957V61.4043ZM694.74 60.649C695.114 60.8631 694.937 61.4043 694.539 61.4043V60.5957C694.141 60.5957 693.964 61.1366 694.338 61.3507L694.74 60.649ZM694.539 61.404C694.757 61.404 694.906 61.2408 694.937 61.0729C694.965 60.9171 694.9 60.7407 694.74 60.649L694.338 61.3507C694.178 61.259 694.113 61.0824 694.141 60.9266C694.172 60.7586 694.32 60.5954 694.539 60.5954V61.404ZM702.072 60.8872C701.572 60.7596 701.35 60.2931 701.335 59.8993L702.143 59.8685C702.146 59.9431 702.168 60.0042 702.194 60.044C702.218 60.0803 702.244 60.0966 702.272 60.1037L702.072 60.8872ZM706.151 60.6986C706.151 60.7645 706.209 60.8056 706.263 60.7969L706.135 59.9984C706.561 59.9303 706.96 60.256 706.96 60.6986H706.151ZM602.447 1.07973C603.22 1.63361 604.297 1.44944 604.843 0.669975L605.505 1.13367C604.702 2.28179 603.115 2.55306 601.976 1.73722L602.447 1.07973ZM599.146 -0.40432C599.945 -0.40432 600.723 -0.154285 601.373 0.310715L600.902 0.968204C600.39 0.601501 599.776 0.40432 599.146 0.40432V-0.40432ZM52.5834 1.06124C52.16 0.438351 52.6062 -0.40432 53.3593 -0.40432V0.40432C53.2553 0.40432 53.1937 0.520687 53.2522 0.606705L52.5834 1.06124ZM48.7758 -0.40432C49.0623 -0.40432 49.3444 -0.335075 49.5982 -0.203373L49.2257 0.514374C49.0864 0.442097 48.932 0.40432 48.7758 0.40432V-0.40432ZM16.3943 58.8469C16.3943 58.638 16.2332 58.4506 15.9261 58.3925C15.6177 58.3342 15.3533 58.4483 15.2478 58.6572L14.5259 58.2928C14.8431 57.6644 15.5345 57.4955 16.0764 57.5979C16.6194 57.7006 17.2029 58.1178 17.2029 58.8469H16.3943ZM52.4279 1.24255C52.4668 1.26212 52.493 1.26097 52.5105 1.25696C52.5317 1.25208 52.5559 1.23871 52.5762 1.2154C52.5965 1.19209 52.6069 1.16588 52.6089 1.14323C52.6107 1.12434 52.608 1.09747 52.5834 1.06124L53.2522 0.606705C53.791 1.39946 52.9322 2.40139 52.0645 1.96495L52.4279 1.24255ZM701.29 59.1072C701.286 59.0541 701.263 59.0018 701.165 58.9465C701.056 58.8849 700.881 58.8412 700.664 58.8406C700.452 58.84 700.231 58.8813 700.048 58.9566C699.86 59.0335 699.745 59.1314 699.691 59.2196L698.999 58.8015C699.172 58.5153 699.456 58.3252 699.741 58.2083C700.03 58.0898 700.357 58.0311 700.667 58.032C700.973 58.0328 701.296 58.0921 701.562 58.242C701.839 58.3983 702.069 58.6662 702.097 59.0495L701.29 59.1072ZM17.624 60.0766C16.9448 60.0766 16.3943 59.526 16.3943 58.8469H17.2029C17.2029 59.0794 17.3914 59.2679 17.624 59.2679V60.0766ZM706.857 61.4043C706.467 61.4043 706.151 61.0883 706.151 60.6986H706.96C706.96 60.6417 706.914 60.5957 706.857 60.5957V61.4043ZM19.7372 61.4043C18.8872 61.4043 18.1158 60.907 17.765 60.1327L18.5016 59.799C18.7214 60.2841 19.2046 60.5957 19.7372 60.5957V61.4043ZM134.185 60.2092C133.641 60.9599 132.77 61.4043 131.843 61.4043V60.5957C132.511 60.5957 133.139 60.2755 133.531 59.7346L134.185 60.2092ZM137.639 59.936C137.298 58.6174 135.576 58.2916 134.776 59.3944L134.121 58.9198C135.322 57.2633 137.909 57.7527 138.422 59.7333L137.639 59.936ZM527.393 60.965C527.318 60.8821 527.156 60.7829 526.896 60.7035C526.645 60.627 526.343 60.5814 526.038 60.5745C525.733 60.5675 525.441 60.5998 525.208 60.667C524.965 60.7371 524.839 60.8292 524.79 60.8988L524.13 60.4305C524.333 60.145 524.665 59.9822 524.984 59.89C525.314 59.795 525.69 59.7577 526.057 59.766C526.424 59.7744 526.8 59.829 527.131 59.93C527.453 60.0281 527.778 60.1835 527.994 60.4248L527.393 60.965ZM9.99292 60.6722C9.99292 61.0766 9.66515 61.4043 9.26083 61.4043V60.5957C9.21855 60.5957 9.18428 60.63 9.18428 60.6722H9.99292ZM138.068 60.8194C137.883 60.6116 137.75 60.3625 137.68 60.0929L138.463 59.8902C138.5 60.0352 138.572 60.1692 138.672 60.281L138.068 60.8194ZM523.813 60.5957C523.932 60.5957 524.06 60.5297 524.13 60.4305L524.79 60.8988C524.569 61.2095 524.196 61.4043 523.813 61.4043V60.5957ZM604.843 0.669975C605.314 -0.00331879 606.084 -0.40432 606.906 -0.40432V0.40432C606.348 0.40432 605.825 0.676563 605.505 1.13367L604.843 0.669975ZM139.374 61.4043C138.875 61.4043 138.4 61.1915 138.068 60.8194L138.672 60.281C138.85 60.4812 139.106 60.5957 139.374 60.5957V61.4043Z" fill="#D27436" mask="url(#path-1-inside-1_267_5464)"/>
</g>
<defs>
<filter id="filter0_b_267_5464" x="-29.5154" y="-29.5154" width="780.031" height="120.031" filterUnits="userSpaceOnUse" color-interpolation-filters="sRGB">
<feFlood flood-opacity="0" result="BackgroundImageFix"/>
<feGaussianBlur in="BackgroundImage" stdDeviation="14.7577"/>
<feComposite in2="SourceAlpha" operator="in" result="effect1_backgroundBlur_267_5464"/>
<feBlend mode="normal" in="SourceGraphic" in2="effect1_backgroundBlur_267_5464" result="shape"/>
</filter>
</defs>
</svg>
