<svg xmlns="http://www.w3.org/2000/svg" width="53" height="56" fill="none" viewBox="0 0 53 56"><path fill="#FDF3E7" fill-rule="evenodd" d="M13.3255 1.39019C13.3255 2.17005 12.6813 2.81429 11.9014 2.81429C11.1215 2.81429 10.4773 2.17005 10.4773 1.39019C10.4773 0.610328 11.1215 0 11.9014 0C12.6813 0 13.3255 0.610328 13.3255 1.39019ZM11.6301 4.44183C11.6301 5.22169 10.9859 5.86593 10.206 5.86593C9.42617 5.86593 8.78194 5.22169 8.78194 4.44183C8.78194 3.66197 9.42617 3.01773 10.206 3.01773C10.9859 3.01773 11.6301 3.66197 11.6301 4.44183ZM13.5967 5.86593C12.8169 5.86593 12.1726 5.22169 12.1726 4.44183C12.1726 3.66197 12.8169 3.01773 13.5967 3.01773C14.3766 3.01773 14.9869 3.66197 14.9869 4.44183C14.9869 5.22169 14.3766 5.86593 13.5967 5.86593ZM0 13.5289C0 9.83306 3.01773 6.81533 6.7136 6.81533H21.2258C21.2258 6.81533 20.2764 8.1377 19.7 8.95147C19.3949 9.35836 18.9202 9.59571 18.4116 9.59571H13.0881V52.3719C13.0881 54.3725 11.4606 56 9.46008 56H8.40896C8.40896 56 9.35836 54.6776 9.96869 53.8638C10.2399 53.4909 10.2738 53.434 10.2738 53.2826V52.3719V11.5623C10.2738 11.0537 10.5112 10.579 10.9181 10.2739C11.0944 10.1563 11.2707 10.0275 11.4535 9.89383C11.5872 9.79616 11.7243 9.69593 11.8675 9.59571H6.74751C4.57746 9.59571 2.78038 11.3589 2.78038 13.5289C2.78038 15.5634 4.44183 17.2248 6.47625 17.2248H9.49399C9.49399 17.2248 8.54459 18.5133 7.93426 19.361C7.6291 19.7678 7.1544 20.0052 6.64579 20.0052H6.47625C2.8821 20.0052 0 17.1231 0 13.5289ZM30.5965 24.6844V25.9728H38.4072C38.4072 25.9728 37.683 27.9055 37.1066 28.7532H27.8161V24.6844C27.8161 20.5138 31.2068 17.1231 35.3095 16.9536L35.3435 16.9196H38.1916C38.1916 16.9196 37.2423 18.242 36.6658 19.0558C36.3946 19.4627 35.9538 19.7 35.4791 19.7L35.4452 19.7339C32.8343 19.8696 30.5965 22.0396 30.5965 24.6844ZM49.5225 25.9728V24.6844C49.5225 20.446 46.0979 16.9875 41.8934 16.9196V6.81533C41.8934 6.81533 40.571 7.76473 39.7233 8.34115C39.3165 8.64631 39.0791 9.12101 39.0791 9.62962V28.7532H41.656C42.2664 27.9055 43.1565 25.9728 43.1565 25.9728H41.8595V19.7339C44.572 19.8017 46.7082 21.9718 46.7082 24.6844V28.7532H49.8955C50.3702 28.7532 50.8788 28.5159 51.15 28.109C51.7604 27.2613 52.7098 25.9728 52.7098 25.9728H49.5225ZM15.7632 52.6698V40.8363H25.3929C25.3929 40.8363 24.4435 42.1247 23.867 42.9724C23.5619 43.3793 23.0872 43.6166 22.5786 43.6166H18.5436V49.8895L18.3402 52.6698H15.7632ZM49.461 48.601C49.461 45.4815 47.63 42.8368 44.9853 41.5822C46.2059 40.2259 46.9519 38.4289 46.9519 36.4283V33.1733C46.9519 33.1733 45.6634 34.1227 44.8157 34.6991C44.4088 35.0042 44.1715 35.4789 44.1715 35.9875V36.4283C44.1715 38.2254 43.2221 39.7851 41.8319 40.6328V30.7319C41.8319 30.7319 40.5095 31.6813 39.6618 32.2578C39.255 32.5629 39.0176 33.0376 39.0176 33.5462V52.6698H41.6285H41.6428C42.2531 51.8222 43.2318 49.8895 43.2318 49.8895H41.798V43.7184C41.8997 43.7184 41.9675 43.6845 42.0353 43.6505C44.6123 43.8201 46.6467 45.9562 46.6467 48.601V52.6698H49.461C49.8679 52.602 50.2748 52.3647 50.5121 52.0256C51.1224 51.1779 52.0718 49.8895 52.0718 49.8895H49.461V48.601ZM27.3736 25.9658L25.004 25.9824V26.0288H21.0684V25.9997H17.9474C17.5066 25.9997 17.0997 25.5928 17.0997 25.1521V24.818L22.4055 24.818C23.5074 24.818 24.4272 24.0388 24.644 23.0013H24.7627V16.9465H22.1858C17.9135 16.9804 14.3193 20.439 14.3193 24.7113V25.1521C14.3193 27.1526 15.9469 28.7801 17.9474 28.7801H24.5593C25.0679 28.7801 25.5426 28.5428 25.8138 28.1359C26.4242 27.2882 27.3736 25.9658 27.3736 25.9658ZM21.9484 22.0933V19.7608C20.2853 19.8472 18.7736 20.7591 17.8952 22.0933H21.9484ZM35.9835 49.8991L38.3531 49.8826C38.3531 49.8826 37.4037 51.2049 36.7933 52.0526C36.5221 52.4595 36.0474 52.6969 35.5388 52.6969H28.9269C26.9264 52.6969 25.2988 51.0693 25.2988 49.0688V48.628C25.2988 44.3557 28.893 40.8972 33.1653 40.8633H35.7422V46.9181H35.6263C35.4092 47.9552 34.4895 48.7341 33.3879 48.7341H28.0792V49.0688C28.0792 49.5096 28.4861 49.9165 28.9269 49.9165H32.0479V49.9455H35.9835V49.8991ZM32.9279 43.6776V46.0094H28.8751C29.7536 44.6755 31.2651 43.7639 32.9279 43.6776Z" clip-rule="evenodd"/></svg>