<svg width="173" height="75" viewBox="0 0 173 75" fill="none" xmlns="http://www.w3.org/2000/svg">
    <g opacity="0.4" filter="url(#filter0_d_191_862)">
        <path fill-rule="evenodd" clip-rule="evenodd" d="M118.432 9C118.539 9.05931 118.657 9.11571 118.788 9.16771C120.338 9.78279 121.371 10.3979 121.63 11.628C121.836 12.6122 122.06 14.4984 122.146 15.3185C122.146 14.0883 122.353 11.382 123.18 10.3979C123.679 9.80299 124.519 9.32798 125.276 9H158.315L158.315 9.00057C158.573 9.00057 159.141 9.36961 159.348 10.8458C159.555 12.322 159.606 17.2016 159.606 19.4569C159.693 16.9966 159.865 11.5839 159.865 9.61565C160.071 9.12358 160.64 9.41062 160.898 9.61565V9.10121C162.675 9.5088 164 11.0996 164 13V61.5873C164 63.7964 162.209 65.5873 160 65.5873H139.237L138.838 63.1266L138.042 65.5873H19.9467L20.6248 61.2819C20.1691 62.2465 19.3917 63.9485 18.7025 65.5873H13C10.7909 65.5873 9 63.7964 9 61.5873V13C9 11.4779 9.85017 10.1544 11.1016 9.47834C11.225 9.88039 11.6285 10.078 11.8224 9.65597C11.8284 9.64297 11.8342 9.6297 11.8399 9.61614C12.0466 9.12408 12.4427 13.5116 12.6149 15.7669V10.2312C12.7617 10.2312 12.8849 10.1203 12.9002 9.9743L13.0025 9H37.6212L38.4481 13.9221L38.7049 9.64348L38.8379 9H118.432Z" fill="#4D3423" />
    </g>
    <path fill-rule="evenodd" clip-rule="evenodd" d="M117.759 10.6402C117.863 10.6962 117.979 10.7494 118.108 10.7984C119.625 11.3778 120.636 11.9573 120.889 13.1161C121.091 14.0432 121.311 15.8201 121.395 16.5926C121.395 15.4338 121.597 12.8843 122.406 11.9573C122.896 11.3967 123.718 10.9492 124.459 10.6402H156.795L156.795 10.6406C157.048 10.6406 157.604 10.9882 157.807 12.3788C158.009 13.7694 158.059 18.3662 158.059 20.4907C158.144 18.1731 158.312 13.0741 158.312 11.22C158.515 10.7564 159.071 11.0268 159.324 11.22V10.7572C161.067 11.1886 162.36 12.7634 162.36 14.6402V59.9471C162.36 62.1562 160.569 63.9471 158.36 63.9471H138.123L137.732 61.6297L136.953 63.9471H21.3555L22.0193 59.8914C21.5732 60.8 20.8123 62.4033 20.1376 63.9471H14.6401C12.431 63.9471 10.6401 62.1562 10.6401 59.9471V14.6402C10.6401 13.1233 11.4846 11.8035 12.729 11.1254C12.8799 11.4724 13.2477 11.6167 13.4209 11.2199C13.6232 10.7564 14.0109 14.8896 14.1795 17.0142V11.7994C14.3234 11.7994 14.4442 11.691 14.4598 11.548L14.5587 10.641C14.5858 10.6405 14.6129 10.6402 14.6401 10.6402H38.6566L39.4658 15.276L39.7171 11.2454L39.8472 10.6402H117.759Z" fill="#4D3423" />
    <path d="M67.1447 44.24C65.1927 44.24 63.6647 43.472 62.5607 41.936C61.4727 40.4 60.9287 38.248 60.9287 35.48C60.9287 32.728 61.4727 30.584 62.5607 29.048C63.6647 27.496 65.1927 26.72 67.1447 26.72C69.1127 26.72 70.6407 27.488 71.7287 29.024C72.8327 30.56 73.3847 32.712 73.3847 35.48C73.3847 38.248 72.8327 40.4 71.7287 41.936C70.6407 43.472 69.1127 44.24 67.1447 44.24ZM67.1447 39.848C68.1847 39.848 68.7047 38.392 68.7047 35.48C68.7047 32.584 68.1767 31.136 67.1207 31.136C66.1127 31.136 65.6087 32.584 65.6087 35.48C65.6087 38.392 66.1207 39.848 67.1447 39.848ZM83.48 32.504L86.696 42.584C86.984 43.432 87.224 43.912 87.416 44.024L87.392 44.072C87.28 44.024 86.888 44 86.216 44H82.352L80.408 37.592L79.424 39.2V42.32C79.424 43.28 79.488 43.848 79.616 44.024L79.592 44.048C79.432 44.016 78.936 44 78.104 44H76.184C75.352 44 74.856 44.016 74.696 44.048L74.672 44.024C74.8 43.848 74.864 43.28 74.864 42.32V28.64C74.864 27.68 74.8 27.112 74.672 26.936L74.696 26.912C74.856 26.944 75.352 26.96 76.184 26.96H78.104C78.936 26.96 79.432 26.944 79.592 26.912L79.616 26.936C79.488 27.112 79.424 27.68 79.424 28.64V32.024L81.272 28.064C81.352 27.888 81.432 27.664 81.512 27.392C81.592 27.12 81.616 26.968 81.584 26.936L81.608 26.912C81.688 26.944 81.872 26.96 82.16 26.96H85.424C86.288 26.96 86.792 26.936 86.936 26.888L86.984 26.936C86.856 26.984 86.52 27.456 85.976 28.352L83.48 32.504ZM97.6972 27.176L99.9532 42.56C100.081 43.392 100.241 43.88 100.433 44.024L100.409 44.072C100.345 44.024 100.073 44 99.5932 44H97.0492C96.2172 44 95.7212 44.024 95.5612 44.072L95.5372 44.048C95.6332 43.792 95.6252 43.224 95.5132 42.344L95.3692 41.24L92.3692 41.264L92.2252 42.344C92.0972 43.272 92.0892 43.84 92.2012 44.048L92.1772 44.072C92.0172 44.024 91.5212 44 90.6892 44H88.3852C87.9212 44 87.6492 44.024 87.5692 44.072L87.5452 44.024C87.7372 43.832 87.8972 43.344 88.0252 42.56L90.0892 28.616C90.2332 27.688 90.2492 27.12 90.1372 26.912L90.1612 26.888C90.3212 26.936 90.8172 26.96 91.6492 26.96H97.4812C97.6092 26.96 97.6812 27.032 97.6972 27.176ZM93.8332 29.816L92.8732 37.352H94.8412L93.8332 29.816ZM112.502 26.888L112.526 26.936C112.318 27.08 112.07 27.56 111.782 28.376L108.35 38.216V42.32C108.35 43.28 108.414 43.848 108.542 44.024L108.518 44.048C108.358 44.016 107.862 44 107.03 44H105.014C104.182 44 103.686 44.016 103.526 44.048L103.502 44.024C103.63 43.848 103.694 43.28 103.694 42.32V37.88L100.286 28.376C99.9824 27.528 99.7344 27.048 99.5424 26.936L99.5664 26.888C99.6944 26.936 100.086 26.96 100.742 26.96H104.462C104.574 26.96 104.646 26.944 104.678 26.912L104.702 26.936C104.702 27.368 104.742 27.744 104.822 28.064L105.998 32.96L107.318 28.064C107.446 27.52 107.486 27.144 107.438 26.936L107.462 26.912C107.494 26.944 107.566 26.96 107.678 26.96H111.326C111.998 26.96 112.39 26.936 112.502 26.888Z" fill="#FDF3E7" />
    <defs>
        <filter id="filter0_d_191_862" x="0" y="0" width="173" height="74.5873" filterUnits="userSpaceOnUse" color-interpolation-filters="sRGB">
            <feFlood flood-opacity="0" result="BackgroundImageFix" />
            <feColorMatrix in="SourceAlpha" type="matrix" values="0 0 0 0 0 0 0 0 0 0 0 0 0 0 0 0 0 0 127 0" result="hardAlpha" />
            <feOffset />
            <feGaussianBlur stdDeviation="4.5" />
            <feComposite in2="hardAlpha" operator="out" />
            <feColorMatrix type="matrix" values="0 0 0 0 0 0 0 0 0 0 0 0 0 0 0 0 0 0 1 0" />
            <feBlend mode="normal" in2="BackgroundImageFix" result="effect1_dropShadow_191_862" />
            <feBlend mode="normal" in="SourceGraphic" in2="effect1_dropShadow_191_862" result="shape" />
        </filter>
    </defs>
</svg>