<svg xmlns="http://www.w3.org/2000/svg" width="22" height="13" fill="none" viewBox="0 0 22 13"><path fill="#FDF3E7" d="M9.9591 1.58786C9.9591 0.955136 10.4738 0.431824 11.1066 0.431824C11.7394 0.431824 12.2588 0.950378 12.2541 1.58786L12.2541 4.64208C12.3202 4.70868 12.3769 4.78004 12.4335 4.85616L12.2541 7.88659L12.2541 11.369C12.2541 12.0017 11.7394 12.525 11.1066 12.525C10.4785 12.525 9.9591 12.0065 9.9591 11.369L9.9591 8.06737C9.65216 7.94368 9.37827 7.74863 9.16105 7.506L1.14747 7.506C0.519421 7.506 -1.84037e-05 6.98745 -1.83761e-05 6.34996C-1.83487e-05 5.71724 0.514699 5.19393 1.14747 5.19393L8.82105 5.19393C9.05244 4.70393 9.45855 4.31858 9.9591 4.11877L9.9591 1.58786Z"/><path fill="#FDF3E7" d="M20.8412 5.67818C21.3447 5.94774 21.3542 6.66639 20.8578 6.94906L11.3185 12.3819C10.8346 12.6576 10.2333 12.308 10.2333 11.7511L10.2333 1.21203C10.2333 0.663496 10.8183 0.31312 11.3019 0.571987L20.8412 5.67818Z"/></svg>