<svg width="100" height="44" viewBox="0 0 100 44" fill="none" xmlns="http://www.w3.org/2000/svg">
<path opacity="0.7" fill-rule="evenodd" clip-rule="evenodd" d="M70.3019 44C70.3704 43.9539 70.4463 43.91 70.5305 43.8696C71.5263 43.3913 72.1902 42.9131 72.3561 41.9566C72.4889 41.1913 72.6327 39.7247 72.688 39.087C72.688 40.0435 72.8208 42.1479 73.3519 42.9131C73.6729 43.3756 74.2122 43.745 74.6986 44H91.1579C93.2497 44 95.1634 43.2373 96.636 41.9748C96.7291 40.4403 96.754 37.3888 96.754 35.8693C96.794 37.2529 96.8629 39.8371 96.898 41.7406C98.5475 40.2033 99.5789 38.0116 99.5789 35.5789V8.42105C99.5789 3.77023 95.8087 0 91.1579 0H83.6691L83.4127 1.91323L82.9011 0H8.42106C7.95198 0 7.49186 0.038353 7.04366 0.112095L7.46472 3.34778C7.19208 2.64939 6.74027 1.45385 6.32187 0.263741C2.68673 1.19645 0 4.49499 0 8.42105V35.5789C0 37.7351 0.810369 39.7021 2.14316 41.1917C2.21331 40.3356 2.27731 39.4137 2.31994 38.7379V41.3833C3.85396 42.9953 6.02017 44 8.42105 44H18.3844L18.9156 40.1732L19.0805 43.5001L19.1659 44H70.3019Z" fill="#FDF3E7"/>
<path fill-rule="evenodd" clip-rule="evenodd" d="M69.87 42.7237C69.937 42.6804 70.0111 42.6392 70.0932 42.6013C71.0679 42.1507 71.7177 41.7002 71.8802 40.7991C72.0101 40.0783 72.1509 38.6966 72.2051 38.0959C72.2051 38.997 72.335 40.9793 72.8549 41.7002C73.1689 42.1357 73.6964 42.4834 74.1723 42.7237H90.1022C92.2304 42.7237 94.1742 41.9342 95.6568 40.6321C95.7389 39.1382 95.7614 36.4376 95.7614 35.0647C95.7992 36.3238 95.8635 38.6387 95.8988 40.4111C97.5153 38.8766 98.5232 36.7073 98.5232 34.3026V9.69545C98.5232 5.04463 94.753 1.27438 90.1022 1.27438H82.9519L82.7009 3.07716L82.1999 1.27438H9.47281C8.95393 1.27438 8.446 1.32131 7.95305 1.41116L8.36108 4.42879C8.09777 3.77968 7.66374 2.67464 7.25884 1.56845C3.68207 2.54053 1.05176 5.81081 1.05176 9.69543V34.3026C1.05176 36.4449 1.85174 38.4004 3.16928 39.8866C3.23157 39.1365 3.28774 38.3534 3.32618 37.7671V40.0588C4.86271 41.6989 7.04808 42.7237 9.47281 42.7237H19.0515L19.5715 39.1185L19.7329 42.2525L19.8165 42.7237H69.87Z" fill="#1C1A24"/>
</svg>
