<svg width="14" height="16" viewBox="0 0 14 16" fill="none" xmlns="http://www.w3.org/2000/svg">
<path d="M0.931473 4.2668C2.68637 4.99209 4.40101 5.82619 6.08346 6.74188C6.08346 4.7745 6.08346 2.80713 6.08346 0.839763C6.08346 -0.275383 7.62905 -0.284449 7.62905 0.839763C7.62905 2.70741 7.62905 4.56598 7.62905 6.43362C9.3115 5.12809 11.1066 4.06734 13.0225 3.21511C13.9483 2.80713 14.3508 4.48439 13.4331 4.89236C11.4608 5.77179 9.62545 6.93227 7.91081 8.32847C9.3759 10.1236 10.8651 11.8915 12.3866 13.6231C13.0869 14.421 11.9921 15.654 11.2918 14.8561C9.75425 13.0973 8.24085 11.3113 6.75965 9.48894C5.6085 11.1481 4.45736 12.7981 3.30622 14.4572C2.69442 15.3367 1.60767 14.1037 2.21142 13.2242C3.33036 11.6104 4.44931 10.0057 5.56826 8.39193C3.91801 7.48531 2.24361 6.66028 0.520916 5.94405C-0.396782 5.56327 -0.00232529 3.87695 0.931473 4.2668Z" fill="#FFE0A2" fill-opacity="0.6"/>
</svg>
